<?xml version="1.0" encoding="utf-8"?>
<!-- Generator: Adobe Illustrator 18.0.0, SVG Export Plug-In . SVG Version: 6.00 Build 0)  -->
<!DOCTYPE svg PUBLIC "-//W3C//DTD SVG 1.1//EN" "http://www.w3.org/Graphics/SVG/1.1/DTD/svg11.dtd">
<svg version="1.1" id="Camada_1" xmlns="http://www.w3.org/2000/svg" xmlns:xlink="http://www.w3.org/1999/xlink" x="0px" y="0px"
	 viewBox="0 0 91.7 21" enable-background="new 0 0 91.7 21" xml:space="preserve">
<path fill-rule="evenodd" clip-rule="evenodd" fill="#E42333" d="M82.9,3.3h3.5v14h-3.5V3.3z"/>
<path fill-rule="evenodd" clip-rule="evenodd" fill="#E42333" d="M77.7,8.6h14v3.5h-14V8.6z"/>
<g>
	<g>
		<path fill="#E02333" d="M10.2,6l-3.5,9H4.6L1.1,6h2.3l1.3,3.4c0.4,1,0.7,1.9,1,2.9h0c0.3-0.8,0.6-1.8,1-2.8L7.9,6H10.2z"/>
		<path fill="#E02333" d="M15.2,13.4c0.4,0,0.9,0,1.3-0.1c0.5-0.1,0.9-0.2,1.4-0.4v1.8c-0.3,0.1-0.7,0.2-1.3,0.4s-1.2,0.2-1.8,0.2
			c-0.6,0-1.2-0.1-1.8-0.2c-0.6-0.2-1.1-0.4-1.5-0.8c-0.4-0.4-0.8-0.8-1-1.4c-0.3-0.6-0.4-1.3-0.4-2.1c0-0.8,0.1-1.5,0.4-2.1
			s0.6-1.1,0.9-1.5c0.4-0.4,0.8-0.7,1.4-0.9c0.5-0.2,1-0.3,1.6-0.3c0.6,0,1.1,0.1,1.6,0.3c0.5,0.2,0.9,0.4,1.2,0.8
			c0.3,0.4,0.6,0.8,0.8,1.4c0.2,0.6,0.3,1.3,0.3,2.1c0,0.3,0,0.6,0,0.8h-5.9c0,0.4,0.1,0.8,0.3,1.1c0.2,0.3,0.4,0.5,0.6,0.7
			c0.3,0.2,0.5,0.3,0.9,0.4C14.5,13.4,14.8,13.4,15.2,13.4z M14.3,7.4c-0.3,0-0.5,0.1-0.7,0.2C13.4,7.7,13.2,7.8,13,8
			c-0.2,0.2-0.3,0.4-0.4,0.6c-0.1,0.2-0.2,0.5-0.2,0.8H16c0-0.3,0-0.5-0.1-0.8c-0.1-0.2-0.2-0.4-0.3-0.6c-0.1-0.2-0.3-0.3-0.5-0.4
			C14.9,7.5,14.6,7.4,14.3,7.4z"/>
		<path fill="#E02333" d="M21.9,16.1c0,0.8-0.1,1.5-0.4,1.9c-0.3,0.5-0.7,0.8-1.2,1.1c-0.5,0.2-1.2,0.3-1.9,0.3
			c-0.3,0-0.6,0-0.9-0.1c-0.3,0-0.5-0.1-0.7-0.2v-1.8c0.2,0.1,0.4,0.1,0.7,0.1s0.5,0.1,0.7,0.1c0.3,0,0.6,0,0.8-0.1s0.4-0.2,0.5-0.4
			c0.1-0.1,0.2-0.3,0.2-0.5s0.1-0.5,0.1-0.8V6h2.2V16.1z M19.6,1.5H22v2.4h-2.3V1.5z"/>
		<path fill="#E02333" d="M28.7,14L28.7,14c-0.2,0.1-0.3,0.3-0.5,0.4c-0.2,0.1-0.4,0.3-0.6,0.4c-0.2,0.1-0.5,0.2-0.7,0.3
			s-0.6,0.1-0.9,0.1c-0.4,0-0.8-0.1-1.2-0.2c-0.4-0.1-0.7-0.3-1-0.6c-0.3-0.3-0.5-0.6-0.6-0.9c-0.2-0.4-0.2-0.8-0.2-1.2
			c0-0.5,0.1-0.9,0.3-1.3c0.2-0.4,0.4-0.7,0.7-1c0.3-0.3,0.7-0.5,1.1-0.6c0.4-0.1,0.9-0.2,1.5-0.2c0.4,0,0.7,0,1.1,0.1
			c0.3,0,0.6,0.1,0.9,0.2V9.1c0-0.2,0-0.4-0.1-0.6c-0.1-0.2-0.2-0.4-0.3-0.5c-0.2-0.2-0.4-0.3-0.6-0.4c-0.3-0.1-0.6-0.1-0.9-0.1
			c-0.4,0-0.9,0-1.3,0.1c-0.4,0.1-0.9,0.2-1.4,0.4V6.4c0.5-0.2,0.9-0.3,1.4-0.5c0.5-0.1,1-0.2,1.6-0.2c0.7,0,1.2,0.1,1.7,0.2
			c0.5,0.2,0.9,0.4,1.2,0.7c0.3,0.3,0.6,0.6,0.7,1c0.2,0.4,0.2,0.8,0.2,1.3v3.4c0,0.6,0,1.1,0,1.5s0,0.8,0,1.1h-2L28.7,14z
			 M28.5,11.1c-0.2,0-0.5-0.1-0.7-0.1c-0.3,0-0.5-0.1-0.8-0.1c-0.5,0-1,0.1-1.3,0.3c-0.3,0.2-0.5,0.5-0.5,1c0,0.2,0,0.4,0.1,0.5
			c0.1,0.2,0.2,0.3,0.3,0.4c0.1,0.1,0.3,0.2,0.4,0.2c0.2,0,0.3,0.1,0.5,0.1c0.2,0,0.4,0,0.6-0.1c0.2-0.1,0.4-0.1,0.5-0.2
			c0.2-0.1,0.3-0.2,0.5-0.3c0.1-0.1,0.2-0.2,0.3-0.3V11.1z"/>
		<path fill="#E02333" d="M46.8,9.5c0-0.2,0-0.4,0-0.5s0-0.3-0.1-0.4c-0.1-0.3-0.2-0.5-0.4-0.7c-0.2-0.2-0.5-0.3-0.8-0.3
			c-0.2,0-0.4,0-0.6,0.1s-0.4,0.1-0.6,0.2c-0.2,0.1-0.4,0.2-0.6,0.4c-0.2,0.1-0.3,0.3-0.5,0.5v6.2H41V9.5c0-0.2,0-0.4,0-0.5
			s0-0.3-0.1-0.4c-0.1-0.3-0.2-0.5-0.4-0.7c-0.2-0.2-0.5-0.3-0.8-0.3c-0.2,0-0.4,0-0.6,0.1s-0.4,0.1-0.6,0.2
			c-0.2,0.1-0.4,0.2-0.6,0.4c-0.2,0.1-0.3,0.3-0.5,0.5v6.2h-2.2V6H37l0.2,1.3h0c0.1-0.2,0.3-0.4,0.5-0.5c0.2-0.2,0.4-0.3,0.7-0.5
			c0.3-0.1,0.5-0.2,0.8-0.3c0.3-0.1,0.6-0.1,1-0.1c0.6,0,1.1,0.1,1.6,0.4c0.5,0.3,0.8,0.7,1.1,1.2h0c0.2-0.2,0.4-0.5,0.6-0.7
			c0.2-0.2,0.5-0.4,0.7-0.5c0.3-0.1,0.5-0.3,0.8-0.3c0.3-0.1,0.6-0.1,1-0.1c0.6,0,1.2,0.1,1.6,0.4c0.4,0.3,0.8,0.6,1,1.1
			c0.1,0.1,0.1,0.2,0.2,0.4c0,0.1,0.1,0.3,0.1,0.5c0,0.2,0,0.4,0.1,0.6c0,0.2,0,0.5,0,0.7v5.6h-2.2V9.5z"/>
		<path fill="#E02333" d="M55.7,14L55.7,14c-0.2,0.1-0.3,0.3-0.5,0.4c-0.2,0.1-0.4,0.3-0.6,0.4c-0.2,0.1-0.5,0.2-0.7,0.3
			s-0.6,0.1-0.9,0.1c-0.4,0-0.8-0.1-1.2-0.2c-0.4-0.1-0.7-0.3-1-0.6c-0.3-0.3-0.5-0.6-0.6-0.9c-0.2-0.4-0.2-0.8-0.2-1.2
			c0-0.5,0.1-0.9,0.3-1.3c0.2-0.4,0.4-0.7,0.7-1c0.3-0.3,0.7-0.5,1.1-0.6c0.4-0.1,0.9-0.2,1.5-0.2c0.4,0,0.7,0,1.1,0.1
			c0.3,0,0.6,0.1,0.9,0.2V9.1c0-0.2,0-0.4-0.1-0.6c-0.1-0.2-0.2-0.4-0.3-0.5c-0.2-0.2-0.4-0.3-0.6-0.4c-0.3-0.1-0.6-0.1-0.9-0.1
			c-0.4,0-0.9,0-1.3,0.1c-0.4,0.1-0.9,0.2-1.4,0.4V6.4c0.5-0.2,0.9-0.3,1.4-0.5c0.5-0.1,1-0.2,1.6-0.2c0.7,0,1.2,0.1,1.7,0.2
			c0.5,0.2,0.9,0.4,1.2,0.7c0.3,0.3,0.6,0.6,0.7,1c0.2,0.4,0.2,0.8,0.2,1.3v3.4c0,0.6,0,1.1,0,1.5s0,0.8,0,1.1h-2L55.7,14z
			 M55.6,11.1c-0.2,0-0.5-0.1-0.7-0.1c-0.3,0-0.5-0.1-0.8-0.1c-0.5,0-1,0.1-1.3,0.3c-0.3,0.2-0.5,0.5-0.5,1c0,0.2,0,0.4,0.1,0.5
			c0.1,0.2,0.2,0.3,0.3,0.4c0.1,0.1,0.3,0.2,0.4,0.2c0.2,0,0.3,0.1,0.5,0.1c0.2,0,0.4,0,0.6-0.1c0.2-0.1,0.4-0.1,0.5-0.2
			c0.2-0.1,0.3-0.2,0.5-0.3c0.1-0.1,0.2-0.2,0.3-0.3V11.1z"/>
		<path fill="#E02333" d="M59.3,1.5h2.3v2.4h-2.3V1.5z M59.3,6h2.2v9h-2.2V6z"/>
		<path fill="#E02333" d="M67,12.3c0-0.2-0.1-0.3-0.2-0.5c-0.1-0.1-0.3-0.2-0.4-0.3c-0.2-0.1-0.4-0.2-0.6-0.2
			c-0.2-0.1-0.5-0.1-0.7-0.2c-0.3-0.1-0.6-0.2-0.9-0.3c-0.3-0.1-0.6-0.3-0.8-0.5S63,10,62.8,9.7c-0.1-0.3-0.2-0.6-0.2-1
			c0-0.5,0.1-0.9,0.3-1.3c0.2-0.4,0.4-0.7,0.7-0.9c0.3-0.2,0.7-0.4,1.1-0.5c0.4-0.1,0.8-0.2,1.3-0.2c0.6,0,1.1,0,1.5,0.1
			C68,6,68.5,6.1,68.9,6.2V8c-0.2-0.1-0.4-0.1-0.6-0.2c-0.2-0.1-0.5-0.1-0.7-0.2c-0.2,0-0.5-0.1-0.7-0.1c-0.2,0-0.4,0-0.7,0
			c-0.3,0-0.5,0-0.7,0.1c-0.2,0-0.3,0.1-0.4,0.2C65,7.9,64.9,8,64.8,8.1c0,0.1-0.1,0.2-0.1,0.3c0,0.2,0.1,0.4,0.2,0.5
			C65,9,65.2,9.2,65.4,9.2c0.2,0.1,0.4,0.1,0.6,0.2c0.2,0.1,0.4,0.1,0.6,0.2c0.3,0.1,0.6,0.2,0.9,0.3c0.3,0.1,0.6,0.3,0.8,0.4
			c0.2,0.2,0.5,0.4,0.6,0.7c0.2,0.3,0.2,0.7,0.2,1.1c0,0.5-0.1,0.9-0.3,1.3c-0.2,0.4-0.5,0.7-0.8,0.9c-0.3,0.3-0.8,0.4-1.2,0.6
			c-0.5,0.1-1,0.2-1.6,0.2c-0.6,0-1.1,0-1.5-0.1c-0.5-0.1-0.8-0.2-1.1-0.3v-1.8c0.5,0.2,0.9,0.3,1.3,0.4c0.4,0.1,0.8,0.1,1.1,0.1
			c0.3,0,0.5,0,0.8-0.1c0.2,0,0.4-0.1,0.6-0.2c0.2-0.1,0.3-0.2,0.4-0.3C67,12.7,67,12.5,67,12.3z"/>
	</g>
</g>
</svg>
