<?xml version="1.0" encoding="utf-8"?>
<!-- Generator: Adobe Illustrator 18.0.0, SVG Export Plug-In . SVG Version: 6.00 Build 0)  -->
<!DOCTYPE svg PUBLIC "-//W3C//DTD SVG 1.1//EN" "http://www.w3.org/Graphics/SVG/1.1/DTD/svg11.dtd">
<svg version="1.1" id="Camada_1" xmlns="http://www.w3.org/2000/svg" xmlns:xlink="http://www.w3.org/1999/xlink" x="0px" y="0px"
	 viewBox="0 0 78.7 18.1" enable-background="new 0 0 78.7 18.1" xml:space="preserve">
<path fill-rule="evenodd" clip-rule="evenodd" fill="#E42333" d="M0,10.1h19v1H0V10.1z"/>
<path fill-rule="evenodd" clip-rule="evenodd" fill="#E42333" d="M8,17.3L0.7,10L0,10.8l7.3,7.3L8,17.3z"/>
<path fill-rule="evenodd" clip-rule="evenodd" fill="#E42333" d="M8,3.8l-7.3,7.3L0,10.3L7.3,3L8,3.8z"/>
<g>
	<g>
		<path fill="#D01A23" d="M36.4,6.3l-4.2,10.8h-2.6L25.3,6.3h2.8l1.5,4.1c0.4,1.2,0.8,2.3,1.2,3.5h0c0.3-1,0.7-2.1,1.2-3.4l1.5-4.2
			H36.4z"/>
		<path fill="#D01A23" d="M47.1,11.8c0,0.9-0.1,1.6-0.4,2.3s-0.6,1.3-1.1,1.8c-0.5,0.5-1,0.9-1.7,1.2s-1.4,0.4-2.3,0.4
			c-0.9,0-1.6-0.1-2.3-0.4s-1.2-0.7-1.7-1.2c-0.5-0.5-0.8-1.1-1.1-1.8s-0.4-1.5-0.4-2.3c0-0.9,0.1-1.6,0.4-2.3s0.6-1.3,1.1-1.8
			c0.5-0.5,1-0.9,1.7-1.2s1.4-0.4,2.3-0.4c0.9,0,1.6,0.1,2.3,0.4s1.2,0.7,1.7,1.2c0.5,0.5,0.8,1.1,1.1,1.8S47.1,10.9,47.1,11.8z
			 M44.4,11.8c0-0.6-0.1-1.1-0.2-1.5c-0.1-0.4-0.3-0.8-0.6-1.1c-0.2-0.3-0.5-0.5-0.9-0.7s-0.7-0.2-1.1-0.2c-0.4,0-0.7,0.1-1.1,0.2
			S40,8.9,39.7,9.1c-0.2,0.3-0.4,0.7-0.6,1.1C39,10.7,39,11.2,39,11.8c0,0.6,0.1,1.1,0.2,1.5c0.1,0.4,0.3,0.8,0.6,1.1
			s0.5,0.5,0.9,0.7c0.3,0.2,0.7,0.2,1.1,0.2c0.4,0,0.8-0.1,1.1-0.2c0.3-0.2,0.6-0.4,0.9-0.7c0.2-0.3,0.4-0.7,0.6-1.1
			S44.4,12.4,44.4,11.8z"/>
		<path fill="#D01A23" d="M48.5,17.2V1h2.7v16.2H48.5z"/>
		<path fill="#D01A23" d="M59.6,17.2c-0.3,0.1-0.7,0.2-1.1,0.2c-0.4,0.1-0.8,0.1-1.2,0.1c-0.9,0-1.7-0.1-2.2-0.4
			c-0.6-0.3-1-0.7-1.2-1.3c-0.2-0.4-0.3-0.9-0.3-1.6V8.5h-2V6.3h2v-3h2.7v3h3.1v2.2h-3.1v5.3c0,0.4,0.1,0.7,0.2,0.9
			c0.2,0.3,0.7,0.5,1.3,0.5c0.3,0,0.6,0,0.9-0.1c0.3,0,0.6-0.1,0.9-0.2V17.2z"/>
		<path fill="#D01A23" d="M66.9,16L66.9,16c-0.2,0.2-0.4,0.3-0.6,0.5s-0.4,0.3-0.7,0.5s-0.6,0.3-0.9,0.4c-0.3,0.1-0.7,0.1-1.1,0.1
			c-0.5,0-1-0.1-1.4-0.2c-0.4-0.2-0.8-0.4-1.2-0.7c-0.3-0.3-0.6-0.7-0.8-1.1S60,14.5,60,14c0-0.6,0.1-1.1,0.3-1.6s0.5-0.9,0.9-1.2
			c0.4-0.3,0.8-0.6,1.4-0.7s1.1-0.3,1.8-0.3c0.5,0,0.9,0,1.3,0.1s0.7,0.1,1,0.2v-0.4c0-0.3,0-0.5-0.1-0.7S66.4,9,66.2,8.8
			s-0.4-0.3-0.7-0.4c-0.3-0.1-0.7-0.2-1.1-0.2c-0.5,0-1.1,0.1-1.6,0.2c-0.5,0.1-1.1,0.3-1.7,0.5V6.8c0.5-0.2,1.1-0.4,1.7-0.5
			c0.6-0.1,1.3-0.2,1.9-0.2c0.8,0,1.5,0.1,2.1,0.3c0.6,0.2,1.1,0.5,1.5,0.8s0.7,0.7,0.9,1.2c0.2,0.5,0.3,1,0.3,1.5V14
			c0,0.7,0,1.3,0,1.8c0,0.5,0,1,0,1.4H67L66.9,16z M66.7,12.6c-0.3-0.1-0.5-0.1-0.9-0.2c-0.3,0-0.7-0.1-1-0.1
			c-0.6,0-1.2,0.1-1.5,0.4s-0.6,0.7-0.6,1.2c0,0.2,0,0.5,0.1,0.6s0.2,0.3,0.3,0.5s0.3,0.2,0.5,0.3s0.4,0.1,0.6,0.1
			c0.3,0,0.5,0,0.8-0.1s0.5-0.2,0.7-0.3c0.2-0.1,0.4-0.2,0.5-0.4c0.2-0.1,0.3-0.3,0.4-0.4V12.6z"/>
		<path fill="#D01A23" d="M77.6,8.5h-0.2c-0.8,0-1.5,0.1-2.1,0.4c-0.6,0.2-1.1,0.6-1.4,1.1v7.3h-2.7V6.3h2.2l0.2,1.5h0
			c0.3-0.6,0.7-1,1.3-1.3c0.5-0.3,1.2-0.5,2-0.5c0.3,0,0.5,0,0.7,0V8.5z"/>
	</g>
</g>
</svg>
