<?xml version="1.0" encoding="utf-8"?>
<!-- Generator: Adobe Illustrator 18.0.0, SVG Export Plug-In . SVG Version: 6.00 Build 0)  -->
<!DOCTYPE svg PUBLIC "-//W3C//DTD SVG 1.1//EN" "http://www.w3.org/Graphics/SVG/1.1/DTD/svg11.dtd">
<svg version="1.1" id="Camada_1" xmlns="http://www.w3.org/2000/svg" xmlns:xlink="http://www.w3.org/1999/xlink" x="0px" y="0px"
	 viewBox="0 0 129.3 24.2" enable-background="new 0 0 129.3 24.2" xml:space="preserve">
<g opacity="0.63">
	<path fill="#BABABA" d="M24,1.2c-6.6,0.4-11.7,4.2-11.7,8.7c0,3.7,3.4,6.8,8.2,8.1l7.4,6.2v-5.8c6-0.8,10.4-4.3,10.4-8.5
		c0-4.8-5.8-8.7-13-8.7C24.8,1.2,24.4,1.2,24,1.2L24,1.2z"/>
	<path fill="#BABABA" d="M11.3,9.9c0-1.9,0.8-3.7,2.2-5.2c-1-0.4-2.1-0.6-3.4-0.7l0,0C9.8,4,9.5,4,9.2,4C4.3,4,0.3,6.6,0.3,9.9
		c0,2.9,3,5.2,7.1,5.8v3.9l5-4.2c0.3-0.1,0.7-0.2,1-0.3C12,13.6,11.3,11.8,11.3,9.9z"/>
	<path fill="#BABABA" d="M24,2.8c-6.6,0.4-11.7,3.9-11.7,8.1c0,3.4,3.4,6.3,8.2,7.5l7.4,5.8v-5.4c6-0.7,10.4-4,10.4-7.9
		c0-4.5-5.8-8.1-13-8.1C24.8,2.8,24.4,2.7,24,2.8L24,2.8z"/>
	<path fill="#BABABA" d="M11.3,10.9c0-1.7,0.8-3.4,2.2-4.8c-1-0.4-2.1-0.6-3.4-0.7l0,0c-0.3,0-0.6,0-0.9,0c-4.9,0-8.8,2.5-8.8,5.5
		c0,2.7,3,4.9,7.1,5.4v3.6l5-3.9c0.3-0.1,0.7-0.2,1-0.3C12,14.3,11.3,12.6,11.3,10.9z"/>
	<g>
		<g>
			<path fill="#BABABA" d="M50.5,7.4c-0.6,0-1.2,0.1-1.7,0.3c-0.5,0.2-1,0.5-1.3,0.9C47.1,9,46.8,9.5,46.6,10
				c-0.2,0.6-0.3,1.2-0.3,2c0,0.7,0.1,1.4,0.3,1.9c0.2,0.6,0.5,1,0.8,1.4c0.4,0.4,0.8,0.7,1.3,0.8c0.5,0.2,1.1,0.3,1.8,0.3
				c0.5,0,0.9,0,1.4-0.1s0.9-0.2,1.4-0.3v2c-0.4,0.1-0.9,0.2-1.4,0.3c-0.5,0.1-1,0.1-1.6,0.1c-1.1,0-2-0.1-2.8-0.4
				c-0.8-0.3-1.5-0.7-2-1.3c-0.5-0.5-0.9-1.2-1.2-2c-0.3-0.8-0.4-1.6-0.4-2.5c0-0.9,0.1-1.8,0.4-2.6C44.6,8.7,45,8,45.6,7.4
				s1.2-1.1,2-1.4c0.8-0.3,1.7-0.5,2.8-0.5c0.5,0,1,0,1.5,0.1c0.5,0.1,0.9,0.2,1.3,0.3v1.9c-0.5-0.2-1-0.3-1.4-0.3
				C51.3,7.4,50.9,7.4,50.5,7.4z"/>
			<path fill="#BABABA" d="M56.6,8.3c0,0.5,0,0.8,0,1.1c0,0.3,0,0.6-0.1,0.8h0c0.1-0.2,0.3-0.3,0.5-0.5c0.2-0.2,0.4-0.3,0.6-0.5
				c0.2-0.1,0.5-0.2,0.8-0.3c0.3-0.1,0.6-0.1,1-0.1c0.3,0,0.6,0,0.9,0.1C60.5,9,60.8,9.1,61,9.3c0.2,0.1,0.5,0.3,0.7,0.5
				c0.2,0.2,0.4,0.4,0.5,0.7c0.1,0.2,0.2,0.5,0.3,0.8c0.1,0.3,0.1,0.7,0.1,1.1v5.8h-2.2v-5.5c0-0.3,0-0.5,0-0.7
				c0-0.2-0.1-0.3-0.1-0.5c-0.1-0.3-0.3-0.5-0.6-0.6c-0.2-0.1-0.5-0.2-0.8-0.2c-0.4,0-0.8,0.1-1.2,0.3c-0.4,0.2-0.7,0.5-1,0.9v6.2
				h-2.2V4.7h2.2V8.3z"/>
			<path fill="#BABABA" d="M69.3,17.2L69.3,17.2c-0.2,0.1-0.3,0.3-0.5,0.4c-0.2,0.1-0.4,0.3-0.6,0.4c-0.2,0.1-0.5,0.2-0.7,0.3
				s-0.6,0.1-0.9,0.1c-0.4,0-0.8-0.1-1.2-0.2c-0.4-0.1-0.7-0.3-1-0.6c-0.3-0.3-0.5-0.6-0.6-0.9c-0.2-0.4-0.2-0.8-0.2-1.2
				c0-0.5,0.1-0.9,0.3-1.3c0.2-0.4,0.4-0.7,0.7-1c0.3-0.3,0.7-0.5,1.1-0.6c0.4-0.1,0.9-0.2,1.5-0.2c0.4,0,0.7,0,1.1,0.1
				c0.3,0,0.6,0.1,0.9,0.2v-0.4c0-0.2,0-0.4-0.1-0.6c-0.1-0.2-0.2-0.4-0.3-0.5c-0.2-0.2-0.4-0.3-0.6-0.4c-0.3-0.1-0.6-0.1-0.9-0.1
				c-0.4,0-0.9,0-1.3,0.1c-0.4,0.1-0.9,0.2-1.4,0.4V9.5c0.5-0.2,0.9-0.3,1.4-0.5c0.5-0.1,1-0.2,1.6-0.2c0.7,0,1.2,0.1,1.7,0.2
				c0.5,0.2,0.9,0.4,1.2,0.7c0.3,0.3,0.6,0.6,0.7,1c0.2,0.4,0.2,0.8,0.2,1.3v3.4c0,0.6,0,1.1,0,1.5s0,0.8,0,1.1h-2L69.3,17.2z
				 M69.1,14.3c-0.2,0-0.5-0.1-0.7-0.1c-0.3,0-0.5-0.1-0.8-0.1c-0.5,0-1,0.1-1.3,0.3c-0.3,0.2-0.5,0.5-0.5,1c0,0.2,0,0.4,0.1,0.5
				c0.1,0.2,0.2,0.3,0.3,0.4c0.1,0.1,0.3,0.2,0.4,0.2c0.2,0,0.3,0.1,0.5,0.1c0.2,0,0.4,0,0.6-0.1c0.2-0.1,0.4-0.1,0.5-0.2
				c0.2-0.1,0.3-0.2,0.5-0.3c0.1-0.1,0.2-0.2,0.3-0.3V14.3z"/>
			<path fill="#BABABA" d="M78.3,18.1c-0.2,0.1-0.5,0.1-0.9,0.2c-0.3,0-0.7,0.1-1,0.1c-0.8,0-1.4-0.1-1.9-0.4
				c-0.5-0.2-0.8-0.6-1-1.1c-0.1-0.3-0.2-0.8-0.2-1.3v-4.7h-1.7V9.1h1.7V6.6h2.2v2.5h2.6v1.8h-2.6v4.4c0,0.3,0.1,0.6,0.2,0.8
				c0.2,0.3,0.6,0.4,1.1,0.4c0.3,0,0.5,0,0.8-0.1c0.3,0,0.5-0.1,0.7-0.2V18.1z"/>
			<path fill="#BABABA" d="M93.1,11.9c0,0.9-0.1,1.8-0.4,2.6c-0.3,0.8-0.7,1.5-1.2,2c-0.5,0.6-1.2,1-1.9,1.3
				c-0.8,0.3-1.6,0.5-2.6,0.5s-1.8-0.2-2.6-0.5c-0.8-0.3-1.4-0.8-1.9-1.3c-0.5-0.6-0.9-1.2-1.2-2c-0.3-0.8-0.4-1.7-0.4-2.6
				s0.1-1.8,0.4-2.6c0.3-0.8,0.7-1.5,1.2-2c0.5-0.6,1.2-1,1.9-1.3c0.8-0.3,1.6-0.5,2.6-0.5s1.8,0.2,2.6,0.5c0.8,0.3,1.4,0.8,1.9,1.3
				c0.5,0.6,0.9,1.2,1.2,2C93,10.1,93.1,11,93.1,11.9z M90.8,11.9c0-0.8-0.1-1.4-0.3-2c-0.2-0.6-0.4-1-0.8-1.4
				c-0.3-0.4-0.7-0.7-1.2-0.8s-0.9-0.3-1.5-0.3s-1,0.1-1.5,0.3s-0.8,0.5-1.2,0.8c-0.3,0.4-0.6,0.8-0.8,1.4c-0.2,0.6-0.3,1.2-0.3,2
				c0,0.8,0.1,1.4,0.3,2c0.2,0.6,0.4,1,0.8,1.4c0.3,0.4,0.7,0.7,1.2,0.8c0.5,0.2,0.9,0.3,1.5,0.3s1-0.1,1.5-0.3
				c0.5-0.2,0.8-0.5,1.2-0.8c0.3-0.4,0.6-0.8,0.8-1.4C90.7,13.3,90.8,12.7,90.8,11.9z"/>
			<path fill="#BABABA" d="M96.4,10.4L96.4,10.4c0.2-0.2,0.3-0.4,0.5-0.5c0.2-0.2,0.4-0.3,0.7-0.5c0.3-0.1,0.5-0.2,0.8-0.3
				c0.3-0.1,0.6-0.1,1-0.1c0.3,0,0.6,0,1,0.1c0.3,0.1,0.6,0.2,0.8,0.3c0.3,0.2,0.5,0.4,0.7,0.6c0.2,0.3,0.3,0.5,0.5,0.9
				c0.1,0.2,0.1,0.4,0.1,0.6c0,0.2,0,0.5,0,0.8v5.8h-2.2v-5.5c0-0.2,0-0.4,0-0.6c0-0.2-0.1-0.3-0.1-0.5c-0.1-0.3-0.3-0.5-0.5-0.6
				c-0.2-0.1-0.5-0.2-0.8-0.2c-0.4,0-0.8,0.1-1.2,0.3c-0.4,0.2-0.7,0.5-1,0.9v6.2h-2.2v-9h1.8L96.4,10.4z"/>
			<path fill="#BABABA" d="M104,18.1V4.7h2.2v13.4H104z"/>
			<path fill="#BABABA" d="M107.8,4.7h2.3v2.4h-2.3V4.7z M107.8,9.1h2.2v9h-2.2V9.1z"/>
			<path fill="#BABABA" d="M113.6,10.4L113.6,10.4c0.2-0.2,0.3-0.4,0.5-0.5c0.2-0.2,0.4-0.3,0.7-0.5c0.3-0.1,0.5-0.2,0.8-0.3
				c0.3-0.1,0.6-0.1,1-0.1c0.3,0,0.6,0,1,0.1c0.3,0.1,0.6,0.2,0.8,0.3c0.3,0.2,0.5,0.4,0.7,0.6c0.2,0.3,0.3,0.5,0.5,0.9
				c0.1,0.2,0.1,0.4,0.1,0.6c0,0.2,0,0.5,0,0.8v5.8h-2.2v-5.5c0-0.2,0-0.4,0-0.6c0-0.2-0.1-0.3-0.1-0.5c-0.1-0.3-0.3-0.5-0.5-0.6
				c-0.2-0.1-0.5-0.2-0.8-0.2c-0.4,0-0.8,0.1-1.2,0.3c-0.4,0.2-0.7,0.5-1,0.9v6.2h-2.2v-9h1.8L113.6,10.4z"/>
			<path fill="#BABABA" d="M125.8,16.6c0.4,0,0.9,0,1.3-0.1c0.5-0.1,0.9-0.2,1.4-0.4v1.8c-0.3,0.1-0.7,0.2-1.3,0.4s-1.2,0.2-1.8,0.2
				c-0.6,0-1.2-0.1-1.8-0.2c-0.6-0.2-1.1-0.4-1.5-0.8c-0.4-0.4-0.8-0.8-1-1.4c-0.3-0.6-0.4-1.3-0.4-2.1c0-0.8,0.1-1.5,0.4-2.1
				s0.6-1.1,0.9-1.5c0.4-0.4,0.8-0.7,1.4-0.9c0.5-0.2,1-0.3,1.6-0.3c0.6,0,1.1,0.1,1.6,0.3c0.5,0.2,0.9,0.4,1.2,0.8
				c0.3,0.4,0.6,0.8,0.8,1.4c0.2,0.6,0.3,1.3,0.3,2.1c0,0.3,0,0.6,0,0.8h-5.9c0,0.4,0.1,0.8,0.3,1.1c0.2,0.3,0.4,0.5,0.6,0.7
				c0.3,0.2,0.5,0.3,0.9,0.4C125,16.5,125.4,16.6,125.8,16.6z M124.9,10.6c-0.3,0-0.5,0.1-0.7,0.2c-0.2,0.1-0.4,0.2-0.6,0.4
				c-0.2,0.2-0.3,0.4-0.4,0.6c-0.1,0.2-0.2,0.5-0.2,0.8h3.5c0-0.3,0-0.5-0.1-0.8c-0.1-0.2-0.2-0.4-0.3-0.6c-0.1-0.2-0.3-0.3-0.5-0.4
				C125.4,10.7,125.2,10.6,124.9,10.6z"/>
		</g>
	</g>
</g>
<path fill="#F58182" d="M24,0c-6.6,0.4-11.7,4.2-11.7,8.7c0,3.7,3.4,6.8,8.2,8.1l7.4,6.2v-5.8c6-0.8,10.4-4.3,10.4-8.5
	c0-4.8-5.8-8.7-13-8.7C24.8,0,24.4,0,24,0L24,0z"/>
<path fill="#F58182" d="M11.3,8.7c0-1.9,0.8-3.7,2.2-5.2c-1-0.4-2.1-0.6-3.4-0.7l0,0c-0.3,0-0.6,0-0.9,0c-4.9,0-8.8,2.6-8.8,5.9
	c0,2.9,3,5.2,7.1,5.8v3.9l5-4.2c0.3-0.1,0.7-0.2,1-0.3C12,12.4,11.3,10.6,11.3,8.7z"/>
<path fill="#DD1408" d="M24,1.6C17.4,2,12.3,5.5,12.3,9.7c0,3.4,3.4,6.3,8.2,7.5l7.4,5.8v-5.4c6-0.7,10.4-4,10.4-7.9
	c0-4.5-5.8-8.1-13-8.1C24.8,1.6,24.4,1.6,24,1.6L24,1.6z"/>
<path fill="#DD1408" d="M11.3,9.7c0-1.7,0.8-3.4,2.2-4.8c-1-0.4-2.1-0.6-3.4-0.7l0,0c-0.3,0-0.6,0-0.9,0c-4.9,0-8.8,2.5-8.8,5.5
	c0,2.7,3,4.9,7.1,5.4v3.6l5-3.9c0.3-0.1,0.7-0.2,1-0.3C12,13.1,11.3,11.5,11.3,9.7z"/>
<g>
	<g>
		<path fill="#ED171E" d="M50.5,6.2c-0.6,0-1.2,0.1-1.7,0.3c-0.5,0.2-1,0.5-1.3,0.9c-0.4,0.4-0.7,0.9-0.9,1.4
			c-0.2,0.6-0.3,1.2-0.3,2c0,0.7,0.1,1.4,0.3,1.9c0.2,0.6,0.5,1,0.8,1.4c0.4,0.4,0.8,0.7,1.3,0.8c0.5,0.2,1.1,0.3,1.8,0.3
			c0.5,0,0.9,0,1.4-0.1s0.9-0.2,1.4-0.3v2c-0.4,0.1-0.9,0.2-1.4,0.3c-0.5,0.1-1,0.1-1.6,0.1c-1.1,0-2-0.1-2.8-0.4
			c-0.8-0.3-1.5-0.7-2-1.3c-0.5-0.5-0.9-1.2-1.2-2c-0.3-0.8-0.4-1.6-0.4-2.5c0-0.9,0.1-1.8,0.4-2.6c0.3-0.8,0.7-1.5,1.2-2.1
			s1.2-1.1,2-1.4c0.8-0.3,1.7-0.5,2.8-0.5c0.5,0,1,0,1.5,0.1c0.5,0.1,0.9,0.2,1.3,0.3v1.9c-0.5-0.2-1-0.3-1.4-0.3
			C51.3,6.3,50.9,6.2,50.5,6.2z"/>
		<path fill="#ED171E" d="M56.6,7.2c0,0.5,0,0.8,0,1.1c0,0.3,0,0.6-0.1,0.8h0C56.7,9,56.8,8.8,57,8.6c0.2-0.2,0.4-0.3,0.6-0.5
			c0.2-0.1,0.5-0.2,0.8-0.3c0.3-0.1,0.6-0.1,1-0.1c0.3,0,0.6,0,0.9,0.1C60.5,7.9,60.8,8,61,8.1c0.2,0.1,0.5,0.3,0.7,0.5
			c0.2,0.2,0.4,0.4,0.5,0.7c0.1,0.2,0.2,0.5,0.3,0.8c0.1,0.3,0.1,0.7,0.1,1.1v5.8h-2.2v-5.5c0-0.3,0-0.5,0-0.7
			c0-0.2-0.1-0.3-0.1-0.5c-0.1-0.3-0.3-0.5-0.6-0.6c-0.2-0.1-0.5-0.2-0.8-0.2c-0.4,0-0.8,0.1-1.2,0.3c-0.4,0.2-0.7,0.5-1,0.9v6.2
			h-2.2V3.5h2.2V7.2z"/>
		<path fill="#ED171E" d="M69.3,16L69.3,16c-0.2,0.1-0.3,0.3-0.5,0.4c-0.2,0.1-0.4,0.3-0.6,0.4c-0.2,0.1-0.5,0.2-0.7,0.3
			s-0.6,0.1-0.9,0.1c-0.4,0-0.8-0.1-1.2-0.2c-0.4-0.1-0.7-0.3-1-0.6c-0.3-0.3-0.5-0.6-0.6-0.9c-0.2-0.4-0.2-0.8-0.2-1.2
			c0-0.5,0.1-0.9,0.3-1.3c0.2-0.4,0.4-0.7,0.7-1c0.3-0.3,0.7-0.5,1.1-0.6c0.4-0.1,0.9-0.2,1.5-0.2c0.4,0,0.7,0,1.1,0.1
			c0.3,0,0.6,0.1,0.9,0.2v-0.4c0-0.2,0-0.4-0.1-0.6c-0.1-0.2-0.2-0.4-0.3-0.5c-0.2-0.2-0.4-0.3-0.6-0.4c-0.3-0.1-0.6-0.1-0.9-0.1
			c-0.4,0-0.9,0-1.3,0.1c-0.4,0.1-0.9,0.2-1.4,0.4V8.4c0.5-0.2,0.9-0.3,1.4-0.5c0.5-0.1,1-0.2,1.6-0.2c0.7,0,1.2,0.1,1.7,0.2
			c0.5,0.2,0.9,0.4,1.2,0.7c0.3,0.3,0.6,0.6,0.7,1c0.2,0.4,0.2,0.8,0.2,1.3v3.4c0,0.6,0,1.1,0,1.5c0,0.4,0,0.8,0,1.1h-2L69.3,16z
			 M69.1,13.1c-0.2,0-0.5-0.1-0.7-0.1c-0.3,0-0.5-0.1-0.8-0.1c-0.5,0-1,0.1-1.3,0.3c-0.3,0.2-0.5,0.5-0.5,1c0,0.2,0,0.4,0.1,0.5
			c0.1,0.2,0.2,0.3,0.3,0.4c0.1,0.1,0.3,0.2,0.4,0.2c0.2,0,0.3,0.1,0.5,0.1c0.2,0,0.4,0,0.6-0.1c0.2-0.1,0.4-0.1,0.5-0.2
			c0.2-0.1,0.3-0.2,0.5-0.3c0.1-0.1,0.2-0.2,0.3-0.3V13.1z"/>
		<path fill="#ED171E" d="M78.3,16.9c-0.2,0.1-0.5,0.1-0.9,0.2c-0.3,0-0.7,0.1-1,0.1c-0.8,0-1.4-0.1-1.9-0.4c-0.5-0.2-0.8-0.6-1-1.1
			c-0.1-0.3-0.2-0.8-0.2-1.3V9.8h-1.7V8h1.7V5.4h2.2V8h2.6v1.8h-2.6v4.4c0,0.3,0.1,0.6,0.2,0.8c0.2,0.3,0.6,0.4,1.1,0.4
			c0.3,0,0.5,0,0.8-0.1c0.3,0,0.5-0.1,0.7-0.2V16.9z"/>
		<path fill="#ED171E" d="M93.1,10.7c0,0.9-0.1,1.8-0.4,2.6c-0.3,0.8-0.7,1.5-1.2,2c-0.5,0.6-1.2,1-1.9,1.3
			c-0.8,0.3-1.6,0.5-2.6,0.5s-1.8-0.2-2.6-0.5c-0.8-0.3-1.4-0.8-1.9-1.3c-0.5-0.6-0.9-1.2-1.2-2c-0.3-0.8-0.4-1.7-0.4-2.6
			s0.1-1.8,0.4-2.6c0.3-0.8,0.7-1.5,1.2-2c0.5-0.6,1.2-1,1.9-1.3c0.8-0.3,1.6-0.5,2.6-0.5s1.8,0.2,2.6,0.5c0.8,0.3,1.4,0.8,1.9,1.3
			c0.5,0.6,0.9,1.2,1.2,2C93,8.9,93.1,9.8,93.1,10.7z M90.8,10.7c0-0.8-0.1-1.4-0.3-2c-0.2-0.6-0.4-1-0.8-1.4
			C89.4,7,89,6.7,88.6,6.5s-0.9-0.3-1.5-0.3s-1,0.1-1.5,0.3S84.8,7,84.4,7.3c-0.3,0.4-0.6,0.8-0.8,1.4c-0.2,0.6-0.3,1.2-0.3,2
			c0,0.8,0.1,1.4,0.3,2c0.2,0.6,0.4,1,0.8,1.4c0.3,0.4,0.7,0.7,1.2,0.8c0.5,0.2,0.9,0.3,1.5,0.3s1-0.1,1.5-0.3
			c0.5-0.2,0.8-0.5,1.2-0.8c0.3-0.4,0.6-0.8,0.8-1.4C90.7,12.2,90.8,11.5,90.8,10.7z"/>
		<path fill="#ED171E" d="M96.4,9.2L96.4,9.2c0.2-0.2,0.3-0.4,0.5-0.5c0.2-0.2,0.4-0.3,0.7-0.5c0.3-0.1,0.5-0.2,0.8-0.3
			c0.3-0.1,0.6-0.1,1-0.1c0.3,0,0.6,0,1,0.1c0.3,0.1,0.6,0.2,0.8,0.3c0.3,0.2,0.5,0.4,0.7,0.6c0.2,0.3,0.3,0.5,0.5,0.9
			c0.1,0.2,0.1,0.4,0.1,0.6c0,0.2,0,0.5,0,0.8v5.8h-2.2v-5.5c0-0.2,0-0.4,0-0.6c0-0.2-0.1-0.3-0.1-0.5c-0.1-0.3-0.3-0.5-0.5-0.6
			c-0.2-0.1-0.5-0.2-0.8-0.2c-0.4,0-0.8,0.1-1.2,0.3c-0.4,0.2-0.7,0.5-1,0.9v6.2h-2.2V8h1.8L96.4,9.2z"/>
		<path fill="#ED171E" d="M104,16.9V3.5h2.2v13.4H104z"/>
		<path fill="#ED171E" d="M107.8,3.5h2.3v2.4h-2.3V3.5z M107.8,8h2.2v9h-2.2V8z"/>
		<path fill="#ED171E" d="M113.6,9.2L113.6,9.2c0.2-0.2,0.3-0.4,0.5-0.5c0.2-0.2,0.4-0.3,0.7-0.5c0.3-0.1,0.5-0.2,0.8-0.3
			c0.3-0.1,0.6-0.1,1-0.1c0.3,0,0.6,0,1,0.1c0.3,0.1,0.6,0.2,0.8,0.3c0.3,0.2,0.5,0.4,0.7,0.6c0.2,0.3,0.3,0.5,0.5,0.9
			c0.1,0.2,0.1,0.4,0.1,0.6c0,0.2,0,0.5,0,0.8v5.8h-2.2v-5.5c0-0.2,0-0.4,0-0.6c0-0.2-0.1-0.3-0.1-0.5c-0.1-0.3-0.3-0.5-0.5-0.6
			c-0.2-0.1-0.5-0.2-0.8-0.2c-0.4,0-0.8,0.1-1.2,0.3c-0.4,0.2-0.7,0.5-1,0.9v6.2h-2.2V8h1.8L113.6,9.2z"/>
		<path fill="#ED171E" d="M125.8,15.4c0.4,0,0.9,0,1.3-0.1c0.5-0.1,0.9-0.2,1.4-0.4v1.8c-0.3,0.1-0.7,0.2-1.3,0.4s-1.2,0.2-1.8,0.2
			c-0.6,0-1.2-0.1-1.8-0.2c-0.6-0.2-1.1-0.4-1.5-0.8c-0.4-0.4-0.8-0.8-1-1.4c-0.3-0.6-0.4-1.3-0.4-2.1c0-0.8,0.1-1.5,0.4-2.1
			s0.6-1.1,0.9-1.5c0.4-0.4,0.8-0.7,1.4-0.9c0.5-0.2,1-0.3,1.6-0.3c0.6,0,1.1,0.1,1.6,0.3c0.5,0.2,0.9,0.4,1.2,0.8
			c0.3,0.4,0.6,0.8,0.8,1.4c0.2,0.6,0.3,1.3,0.3,2.1c0,0.3,0,0.6,0,0.8h-5.9c0,0.4,0.1,0.8,0.3,1.1c0.2,0.3,0.4,0.5,0.6,0.7
			c0.3,0.2,0.5,0.3,0.9,0.4C125,15.4,125.4,15.4,125.8,15.4z M124.9,9.4c-0.3,0-0.5,0.1-0.7,0.2c-0.2,0.1-0.4,0.2-0.6,0.4
			c-0.2,0.2-0.3,0.4-0.4,0.6c-0.1,0.2-0.2,0.5-0.2,0.8h3.5c0-0.3,0-0.5-0.1-0.8c-0.1-0.2-0.2-0.4-0.3-0.6c-0.1-0.2-0.3-0.3-0.5-0.4
			C125.4,9.5,125.2,9.4,124.9,9.4z"/>
	</g>
</g>
</svg>
