<?xml version="1.0" encoding="utf-8"?>
<!-- Generator: Adobe Illustrator 18.0.0, SVG Export Plug-In . SVG Version: 6.00 Build 0)  -->
<!DOCTYPE svg PUBLIC "-//W3C//DTD SVG 1.1//EN" "http://www.w3.org/Graphics/SVG/1.1/DTD/svg11.dtd">
<svg version="1.1" id="Camada_1" xmlns="http://www.w3.org/2000/svg" xmlns:xlink="http://www.w3.org/1999/xlink" x="0px" y="0px"
	 viewBox="0 0 50.2 50.2" enable-background="new 0 0 50.2 50.2" xml:space="preserve">
<path fill-rule="evenodd" clip-rule="evenodd" fill="#FFFFFF" d="M25.1,0C39,0,50.2,11.2,50.2,25.1C50.2,39,39,50.2,25.1,50.2
	C11.2,50.2,0,39,0,25.1C0,11.2,11.2,0,25.1,0L25.1,0z M16.3,22.6c-1.2,0-2.2,0.5-3,1.2c-0.8,0.8-1.2,1.8-1.2,3V36
	c0,1.2,0.5,2.2,1.2,3c0.8,0.8,1.8,1.2,3,1.2h17.6c1.2,0,2.2-0.5,3-1.2c0.8-0.8,1.2-1.8,1.2-3v-9.2c0-1.2-0.5-2.2-1.2-3
	c-0.8-0.8-1.8-1.2-3-1.2H16.3L16.3,22.6z M28.5,19.4h0.7c0.2,0,0.4-0.1,0.5-0.2c0.3-0.2,0.6-0.4,0.9-0.8v0.9h1.6v-5.7v-2.7h-1.6v2.7
	v3.7c-0.1,0.2-0.3,0.3-0.5,0.5c-0.2,0.1-0.3,0.2-0.4,0.2c-0.1,0-0.3,0-0.3-0.1c-0.1-0.1-0.1-0.2-0.1-0.4v-3.7v-2.7h-1.6v2.7V18
	c0,0.5,0.1,0.9,0.3,1.1C28.1,19.2,28.3,19.3,28.5,19.4L28.5,19.4z M23.5,19.5h1.2c0.4-0.1,0.8-0.3,1.1-0.6c0.4-0.4,0.6-1,0.6-1.7
	v-0.6h0v-3.8c0-0.7-0.2-1.3-0.6-1.7c-0.3-0.3-0.7-0.5-1.1-0.6h-1.2c-0.4,0.1-0.8,0.3-1.1,0.6c-0.4,0.4-0.6,1-0.6,1.7v0.5h0v3.7
	c0,0.7,0.2,1.3,0.6,1.7C22.7,19.2,23.1,19.4,23.5,19.5L23.5,19.5z M19.9,19.3v-4.7l2.1-6.7h-1.8L19,12.5h-0.1l-1.1-4.6H16v0l2.1,6.9
	v4.5v0.1L19.9,19.3L19.9,19.3L19.9,19.3z M24.8,13.5v-0.7c0-0.2-0.1-0.4-0.2-0.5c-0.1-0.1-0.3-0.2-0.5-0.2c-0.2,0-0.4,0.1-0.5,0.2
	c-0.1,0.1-0.2,0.3-0.2,0.5v3.9h0v0.7c0,0.2,0.1,0.4,0.2,0.5c0.1,0.1,0.3,0.2,0.5,0.2c0.2,0,0.4-0.1,0.5-0.2c0.1-0.1,0.2-0.3,0.2-0.5
	L24.8,13.5L24.8,13.5L24.8,13.5z M19.5,25.5h-5.4v1.7h1.8v9.8h1.8v-9.8h1.8V25.5L19.5,25.5z M22.4,34.9c-0.1,0.2-0.3,0.3-0.5,0.5
	c-0.2,0.1-0.3,0.2-0.4,0.2c-0.1,0-0.3,0-0.3-0.1c-0.1-0.1-0.1-0.2-0.1-0.4v-6.5h-1.6v7.1c0,0.5,0.1,0.9,0.3,1.1
	c0.2,0.3,0.5,0.4,0.8,0.4c0.3,0,0.6-0.1,0.9-0.3c0.3-0.2,0.6-0.4,0.9-0.8v0.9H24v-8.4h-1.6V34.9L22.4,34.9z M28.5,28.4
	c-0.2,0-0.5,0.1-0.7,0.2c-0.2,0.1-0.5,0.3-0.7,0.6v-3.7h-1.6v11.4h1.6v-0.6c0.2,0.3,0.4,0.4,0.7,0.6C28,37,28.3,37,28.6,37
	c0.5,0,0.8-0.2,1.1-0.5c0.2-0.3,0.4-0.8,0.4-1.4v-4.7c0-0.7-0.1-1.2-0.4-1.6C29.4,28.6,29,28.4,28.5,28.4L28.5,28.4z M28.4,35v-4.4
	c0-0.3-0.1-0.5-0.2-0.6c-0.1-0.1-0.3-0.2-0.5-0.2c-0.1,0-0.2,0-0.3,0.1c-0.1,0.1-0.2,0.1-0.3,0.3v5.3c0.1,0.1,0.3,0.2,0.4,0.3
	c0.1,0.1,0.2,0.1,0.4,0.1c0.2,0,0.3-0.1,0.4-0.2C28.3,35.4,28.4,35.2,28.4,35L28.4,35z M35.8,32.9v-2.2c0-0.8-0.2-1.4-0.6-1.8
	c-0.4-0.4-0.9-0.6-1.7-0.6c-0.7,0-1.3,0.2-1.7,0.7c-0.4,0.5-0.7,1.1-0.7,1.8v3.8c0,0.8,0.2,1.5,0.6,1.9c0.4,0.5,1,0.7,1.7,0.7
	c0.8,0,1.4-0.2,1.8-0.7c0.4-0.4,0.6-1.1,0.6-2v-0.6h-1.6v0.6c0,0.5-0.1,0.8-0.2,1c-0.1,0.1-0.3,0.2-0.5,0.2c-0.2,0-0.4-0.1-0.5-0.3
	c-0.1-0.2-0.2-0.5-0.2-0.9v-1.6H35.8L35.8,32.9z M32.8,30.7v0.9h1.4v-0.9c0-0.4-0.1-0.6-0.2-0.8c-0.1-0.2-0.3-0.2-0.5-0.2
	c-0.2,0-0.4,0.1-0.5,0.2C32.9,30.1,32.8,30.4,32.8,30.7z"/>
</svg>
