<?xml version="1.0" encoding="utf-8"?>
<!-- Generator: Adobe Illustrator 18.0.0, SVG Export Plug-In . SVG Version: 6.00 Build 0)  -->
<!DOCTYPE svg PUBLIC "-//W3C//DTD SVG 1.1//EN" "http://www.w3.org/Graphics/SVG/1.1/DTD/svg11.dtd">
<svg version="1.1" id="Camada_1" xmlns="http://www.w3.org/2000/svg" xmlns:xlink="http://www.w3.org/1999/xlink" x="0px" y="0px"
	 viewBox="0 0 43 36" enable-background="new 0 0 43 36" xml:space="preserve">
<path fill="#1B822B" d="M5.4,34.3l-1.1-4.6h0l-1.1,4.6H1.7L0,27.6h1.4l1,4.6h0l1.1-4.6H5l1.1,4.6h0l1.1-4.6h1.4l-1.8,6.7H5.4z"/>
<path fill="#1B822B" d="M10.2,27.6v2.5h0c0.2-0.3,0.4-0.5,0.6-0.6c0.3-0.1,0.5-0.2,0.8-0.2c0.3,0,0.6,0,0.9,0.1
	c0.2,0.1,0.4,0.2,0.5,0.4c0.1,0.2,0.2,0.4,0.3,0.6c0.1,0.2,0.1,0.5,0.1,0.8v3h-1.3v-2.7c0-0.4-0.1-0.7-0.2-0.9
	c-0.1-0.2-0.3-0.3-0.7-0.3c-0.4,0-0.6,0.1-0.8,0.3c-0.2,0.2-0.2,0.6-0.2,1.1v2.5H8.9v-6.7H10.2z"/>
<path fill="#1B822B" d="M14.3,30.2c0.1-0.2,0.3-0.4,0.5-0.5c0.2-0.1,0.4-0.2,0.7-0.3c0.3-0.1,0.5-0.1,0.8-0.1c0.2,0,0.5,0,0.7,0.1
	c0.2,0,0.5,0.1,0.7,0.2c0.2,0.1,0.4,0.2,0.5,0.4c0.1,0.2,0.2,0.4,0.2,0.7v2.5c0,0.2,0,0.4,0,0.6c0,0.2,0.1,0.4,0.1,0.5h-1.3
	c0-0.1,0-0.2-0.1-0.2c0-0.1,0-0.2,0-0.2c-0.2,0.2-0.5,0.4-0.7,0.5c-0.3,0.1-0.6,0.1-0.9,0.1c-0.2,0-0.4,0-0.6-0.1
	c-0.2-0.1-0.4-0.1-0.5-0.3c-0.1-0.1-0.3-0.3-0.3-0.5c-0.1-0.2-0.1-0.4-0.1-0.6c0-0.3,0-0.5,0.1-0.7c0.1-0.2,0.2-0.3,0.4-0.4
	c0.1-0.1,0.3-0.2,0.5-0.2c0.2-0.1,0.4-0.1,0.6-0.1c0.2,0,0.4-0.1,0.6-0.1c0.2,0,0.4,0,0.5-0.1c0.1,0,0.3-0.1,0.3-0.2
	c0.1-0.1,0.1-0.2,0.1-0.3c0-0.1,0-0.3-0.1-0.3c0-0.1-0.1-0.2-0.2-0.2c-0.1,0-0.2-0.1-0.3-0.1c-0.1,0-0.2,0-0.3,0
	c-0.3,0-0.5,0.1-0.6,0.2c-0.1,0.1-0.2,0.3-0.3,0.6h-1.3C14.1,30.6,14.2,30.4,14.3,30.2z M16.9,32c-0.1,0-0.2,0.1-0.3,0.1
	c-0.1,0-0.2,0-0.3,0c-0.1,0-0.2,0-0.3,0c-0.1,0-0.2,0-0.3,0.1c-0.1,0-0.2,0.1-0.2,0.1c-0.1,0.1-0.1,0.1-0.2,0.2
	c0,0.1-0.1,0.2-0.1,0.3c0,0.1,0,0.2,0.1,0.3c0,0.1,0.1,0.1,0.2,0.2c0.1,0,0.2,0.1,0.3,0.1c0.1,0,0.2,0,0.3,0c0.3,0,0.5,0,0.6-0.1
	c0.1-0.1,0.2-0.2,0.3-0.3c0.1-0.1,0.1-0.2,0.1-0.4c0-0.1,0-0.2,0-0.3v-0.5C17,32,17,32,16.9,32z"/>
<path fill="#1B822B" d="M21.8,29.4v0.9h-1v2.4c0,0.2,0,0.4,0.1,0.5c0.1,0.1,0.2,0.1,0.4,0.1c0.1,0,0.1,0,0.2,0c0.1,0,0.1,0,0.2,0v1
	c-0.1,0-0.2,0-0.4,0c-0.1,0-0.3,0-0.4,0c-0.2,0-0.4,0-0.6,0c-0.2,0-0.3-0.1-0.5-0.2c-0.1-0.1-0.2-0.2-0.3-0.3
	c-0.1-0.2-0.1-0.3-0.1-0.6v-2.9h-0.8v-0.9h0.8V28h1.3v1.5H21.8z"/>
<path fill="#1B822B" d="M23.3,33.1c0.1,0.1,0.1,0.2,0.2,0.3c0.1,0.1,0.2,0.1,0.3,0.1c0.1,0,0.2,0,0.4,0c0.1,0,0.2,0,0.3,0
	c0.1,0,0.2-0.1,0.3-0.1c0.1,0,0.2-0.1,0.2-0.2c0.1-0.1,0.1-0.2,0.1-0.3c0-0.2-0.1-0.4-0.4-0.5c-0.3-0.1-0.6-0.2-1.1-0.3
	c-0.2,0-0.4-0.1-0.6-0.2c-0.2-0.1-0.3-0.1-0.5-0.2c-0.1-0.1-0.3-0.2-0.3-0.4c-0.1-0.1-0.1-0.3-0.1-0.5c0-0.3,0.1-0.6,0.2-0.8
	c0.1-0.2,0.3-0.4,0.5-0.5c0.2-0.1,0.4-0.2,0.7-0.2c0.2,0,0.5-0.1,0.8-0.1c0.3,0,0.5,0,0.7,0.1c0.2,0,0.5,0.1,0.6,0.3
	c0.2,0.1,0.3,0.3,0.5,0.5c0.1,0.2,0.2,0.4,0.2,0.7H25c0-0.3-0.1-0.4-0.3-0.5c-0.2-0.1-0.4-0.1-0.6-0.1c-0.1,0-0.2,0-0.2,0
	c-0.1,0-0.2,0-0.2,0.1c-0.1,0-0.1,0.1-0.2,0.1c0,0.1-0.1,0.1-0.1,0.2c0,0.1,0,0.2,0.1,0.3c0.1,0.1,0.2,0.1,0.3,0.2
	c0.1,0,0.3,0.1,0.5,0.1c0.2,0,0.4,0.1,0.5,0.1c0.2,0,0.4,0.1,0.6,0.2c0.2,0.1,0.3,0.1,0.5,0.2c0.1,0.1,0.3,0.2,0.3,0.4
	c0.1,0.2,0.1,0.3,0.1,0.6c0,0.3-0.1,0.6-0.2,0.8c-0.1,0.2-0.3,0.4-0.5,0.5c-0.2,0.1-0.4,0.2-0.7,0.3c-0.3,0.1-0.5,0.1-0.8,0.1
	c-0.3,0-0.5,0-0.8-0.1c-0.3-0.1-0.5-0.2-0.7-0.3c-0.2-0.1-0.4-0.3-0.5-0.5C22,33.3,22,33,22,32.7h1.2C23.2,32.9,23.2,33,23.3,33.1z"
	/>
<path fill="#1B822B" d="M30.4,31.7l-0.8-2.5h0l-0.9,2.5H30.4z M30.3,27.6l2.5,6.7h-1.5l-0.5-1.5h-2.5l-0.5,1.5h-1.5l2.5-6.7H30.3z"
	/>
<path fill="#1B822B" d="M35.9,33.3c0.1-0.1,0.3-0.2,0.3-0.3c0.1-0.1,0.2-0.3,0.2-0.5c0-0.2,0.1-0.4,0.1-0.6c0-0.2,0-0.4-0.1-0.6
	c0-0.2-0.1-0.4-0.2-0.5c-0.1-0.1-0.2-0.3-0.4-0.4c-0.1-0.1-0.3-0.1-0.5-0.1c-0.2,0-0.4,0-0.5,0.1c-0.1,0.1-0.3,0.2-0.3,0.4
	c-0.1,0.1-0.2,0.3-0.2,0.5c0,0.2-0.1,0.4-0.1,0.6c0,0.2,0,0.4,0.1,0.6c0,0.2,0.1,0.4,0.2,0.5c0.1,0.1,0.2,0.3,0.4,0.3
	c0.1,0.1,0.3,0.1,0.5,0.1C35.6,33.4,35.8,33.4,35.9,33.3z M34.2,29.4v0.6h0c0.2-0.3,0.4-0.5,0.6-0.6c0.2-0.1,0.5-0.2,0.8-0.2
	c0.4,0,0.7,0.1,1,0.2c0.3,0.1,0.5,0.3,0.7,0.6c0.2,0.2,0.3,0.5,0.4,0.8c0.1,0.3,0.1,0.6,0.1,1c0,0.3,0,0.6-0.1,0.9
	c-0.1,0.3-0.2,0.6-0.4,0.8c-0.2,0.2-0.4,0.4-0.7,0.6c-0.3,0.1-0.6,0.2-0.9,0.2c-0.3,0-0.6-0.1-0.8-0.2c-0.2-0.1-0.5-0.3-0.6-0.5h0
	V36H33v-6.6H34.2z"/>
<path fill="#1B822B" d="M41.1,33.3c0.1-0.1,0.3-0.2,0.3-0.3c0.1-0.1,0.2-0.3,0.2-0.5c0-0.2,0.1-0.4,0.1-0.6c0-0.2,0-0.4-0.1-0.6
	c0-0.2-0.1-0.4-0.2-0.5c-0.1-0.1-0.2-0.3-0.4-0.4c-0.1-0.1-0.3-0.1-0.5-0.1c-0.2,0-0.4,0-0.5,0.1c-0.1,0.1-0.3,0.2-0.3,0.4
	c-0.1,0.1-0.2,0.3-0.2,0.5c0,0.2-0.1,0.4-0.1,0.6c0,0.2,0,0.4,0.1,0.6c0,0.2,0.1,0.4,0.2,0.5c0.1,0.1,0.2,0.3,0.4,0.3
	c0.1,0.1,0.3,0.1,0.5,0.1C40.8,33.4,41,33.4,41.1,33.3z M39.4,29.4v0.6h0c0.2-0.3,0.4-0.5,0.6-0.6c0.2-0.1,0.5-0.2,0.8-0.2
	c0.4,0,0.7,0.1,1,0.2c0.3,0.1,0.5,0.3,0.7,0.6c0.2,0.2,0.3,0.5,0.4,0.8c0.1,0.3,0.1,0.6,0.1,1c0,0.3,0,0.6-0.1,0.9
	c-0.1,0.3-0.2,0.6-0.4,0.8c-0.2,0.2-0.4,0.4-0.7,0.6c-0.3,0.1-0.6,0.2-0.9,0.2c-0.3,0-0.6-0.1-0.8-0.2c-0.2-0.1-0.5-0.3-0.6-0.5h0
	V36h-1.3v-6.6H39.4z"/>
<path fill-rule="evenodd" clip-rule="evenodd" fill="#1B822B" d="M22.8,0c-6.3,0-11.3,5.2-11.3,11.6c0,2.2,0.6,4.2,1.6,6l-2,6.2
	l6.3-2.1c1.6,0.9,3.5,1.4,5.5,1.4c6.3,0,11.3-5.2,11.3-11.6C34.1,5.2,29,0,22.8,0z"/>
<path fill-rule="evenodd" clip-rule="evenodd" fill="#FFFFFF" d="M22.8,1.8c-5.3,0-9.5,4.4-9.5,9.8c0,2.1,0.7,4.1,1.8,5.7l-1.2,3.6
	l3.7-1.2c1.5,1,3.3,1.6,5.2,1.6c5.3,0,9.5-4.4,9.5-9.8C32.3,6.2,28,1.8,22.8,1.8z"/>
<path fill-rule="evenodd" clip-rule="evenodd" fill="#1B822B" d="M20.1,6.8c-0.2-0.5-0.3-0.5-0.6-0.5c-0.1,0-0.2,0-0.3,0
	c-0.4,0-0.7,0.1-1,0.3c-0.3,0.3-1,1-1,2.4c0,1.4,1,2.8,1.1,2.9c0.1,0.2,1.9,3.1,4.8,4.3c2.2,0.9,2.8,0.8,3.3,0.7
	c0.7-0.2,1.6-0.7,1.9-1.4c0.2-0.7,0.2-1.2,0.2-1.4c-0.1-0.1-0.3-0.2-0.5-0.3c-0.3-0.1-1.6-0.8-1.9-0.9c-0.3-0.1-0.5-0.1-0.7,0.2
	c-0.3,0.4-0.5,0.8-0.7,1c-0.2,0.2-0.4,0.2-0.7,0.1c-0.3-0.1-1.2-0.4-2.2-1.4c-0.8-0.8-1.4-1.7-1.5-2c-0.2-0.3,0-0.5,0.1-0.6
	c0.1-0.2,0.3-0.3,0.4-0.5c0.1-0.2,0.2-0.3,0.3-0.4c0.1-0.2,0-0.4,0-0.5C20.9,8.8,20.3,7.4,20.1,6.8z"/>
</svg>
