<?xml version="1.0" encoding="utf-8"?>
<!-- Generator: Adobe Illustrator 18.0.0, SVG Export Plug-In . SVG Version: 6.00 Build 0)  -->
<!DOCTYPE svg PUBLIC "-//W3C//DTD SVG 1.1//EN" "http://www.w3.org/Graphics/SVG/1.1/DTD/svg11.dtd">
<svg version="1.1" id="Camada_1" xmlns="http://www.w3.org/2000/svg" xmlns:xlink="http://www.w3.org/1999/xlink" x="0px" y="0px"
	 viewBox="0 0 50 50" enable-background="new 0 0 50 50" xml:space="preserve">
<path fill-rule="evenodd" clip-rule="evenodd" fill="#FFFFFF" d="M25,0c13.8,0,25,11.2,25,25c0,13.8-11.2,25-25,25
	C11.2,50,0,38.8,0,25C0,11.2,11.2,0,25,0L25,0z M23.2,24.7c0-1.7,3.7-2.1,3.7-6c0-2.3-0.2-3.8-2.1-4.6c0-0.6,3.3-0.2,3.3-1.3
	c-0.6,0-7.1,0-7.1,0s-7.2,0.2-7.2,6.3c0,6.1,6.3,5.4,6.3,5.4s0,0.9,0,1.6c0,0.6,0.8,0.4,1,1.7c-0.4,0-8.8-0.2-8.8,5.3
	c0,5.5,7.4,5.3,7.4,5.3s8.5,0.4,8.5-6.5C28,27.7,23.2,26.3,23.2,24.7L23.2,24.7z M41.4,17.7h-5v-5H35v5h-5v1.5h5v5h1.5v-5h5V17.7
	L41.4,17.7z M17,19.4c0.7,2.5,2.6,4.1,4.4,3.6c1.8-0.5,2.6-2.9,2-5.3c-0.7-2.5-2.6-4.1-4.4-3.6C17.2,14.6,16.3,16.9,17,19.4L17,19.4
	L17,19.4z M20.7,36.5c2.9-0.2,5.2-2.1,5.1-4.2c-0.1-2.1-2.7-3.7-5.6-3.5c-2.9,0.2-5.2,2.1-5.1,4.2C15.2,35.1,17.7,36.7,20.7,36.5
	L20.7,36.5z"/>
</svg>
