<?xml version="1.0" encoding="utf-8"?>
<!-- Generator: Adobe Illustrator 18.0.0, SVG Export Plug-In . SVG Version: 6.00 Build 0)  -->
<!DOCTYPE svg PUBLIC "-//W3C//DTD SVG 1.1//EN" "http://www.w3.org/Graphics/SVG/1.1/DTD/svg11.dtd">
<svg version="1.1" id="Camada_1" xmlns="http://www.w3.org/2000/svg" xmlns:xlink="http://www.w3.org/1999/xlink" x="0px" y="0px"
	 viewBox="0 0 88 135.8" enable-background="new 0 0 88 135.8" xml:space="preserve">
<circle fill="#F44856" cx="44" cy="44" r="44"/>
<circle fill="#FFFFFF" cx="44" cy="44" r="41"/>
<g>
	<path fill="#FFFFFF" d="M25.2,106.3c0.9,1.3,1.6,2.4,2.2,3.4h0.1c-0.1-1.6-0.1-2.8-0.1-3.5v-5.6h2.3v12.4h-2.4l-4-5.7
		c-0.7-1-1.4-2.1-2.2-3.4h-0.1c0.1,1.5,0.1,2.7,0.1,3.5v5.6h-2.3v-12.4h2.4L25.2,106.3z"/>
	<path fill="#FFFFFF" d="M39.9,108.5c0,0.7-0.1,1.3-0.3,1.9c-0.2,0.6-0.5,1.1-0.9,1.5c-0.4,0.4-0.9,0.7-1.4,1s-1.2,0.3-1.9,0.3
		c-0.7,0-1.3-0.1-1.9-0.3c-0.6-0.2-1-0.5-1.4-1c-0.4-0.4-0.7-0.9-0.9-1.5c-0.2-0.6-0.3-1.2-0.3-1.9s0.1-1.3,0.3-1.9
		c0.2-0.6,0.5-1.1,0.9-1.5c0.4-0.4,0.9-0.7,1.4-1c0.6-0.2,1.2-0.3,1.9-0.3c0.7,0,1.3,0.1,1.9,0.3c0.6,0.2,1,0.5,1.4,1
		s0.7,0.9,0.9,1.5C39.8,107.1,39.9,107.7,39.9,108.5z M37.6,108.5c0-0.5-0.1-0.9-0.2-1.3c-0.1-0.4-0.3-0.7-0.5-0.9
		c-0.2-0.2-0.4-0.4-0.7-0.6s-0.6-0.2-0.9-0.2c-0.3,0-0.6,0.1-0.9,0.2c-0.3,0.1-0.5,0.3-0.7,0.6c-0.2,0.2-0.4,0.6-0.5,0.9
		c-0.1,0.4-0.2,0.8-0.2,1.3c0,0.5,0.1,0.9,0.2,1.3c0.1,0.4,0.3,0.7,0.5,0.9c0.2,0.2,0.4,0.4,0.7,0.6c0.3,0.1,0.6,0.2,0.9,0.2
		c0.3,0,0.6-0.1,0.9-0.2c0.3-0.1,0.5-0.3,0.7-0.6c0.2-0.2,0.4-0.5,0.5-0.9C37.6,109.4,37.6,108.9,37.6,108.5z"/>
	<path fill="#FFFFFF" d="M44.9,110.3c0-0.2-0.1-0.3-0.2-0.5c-0.1-0.1-0.3-0.2-0.4-0.3c-0.2-0.1-0.4-0.2-0.6-0.2
		c-0.2-0.1-0.5-0.1-0.7-0.2c-0.3-0.1-0.6-0.2-0.9-0.3s-0.6-0.3-0.8-0.5c-0.2-0.2-0.4-0.4-0.5-0.7c-0.1-0.3-0.2-0.6-0.2-1
		c0-0.5,0.1-0.9,0.3-1.3c0.2-0.4,0.4-0.7,0.7-0.9c0.3-0.2,0.7-0.4,1.1-0.5c0.4-0.1,0.8-0.2,1.3-0.2c0.6,0,1.1,0,1.5,0.1
		c0.5,0.1,0.9,0.2,1.3,0.3v1.8c-0.2-0.1-0.4-0.1-0.6-0.2c-0.2-0.1-0.5-0.1-0.7-0.2s-0.5-0.1-0.7-0.1c-0.2,0-0.4,0-0.6,0
		c-0.3,0-0.5,0-0.7,0.1c-0.2,0-0.3,0.1-0.4,0.2c-0.1,0.1-0.2,0.2-0.2,0.3c0,0.1-0.1,0.2-0.1,0.3c0,0.2,0.1,0.4,0.2,0.5
		c0.1,0.1,0.3,0.2,0.4,0.3c0.2,0.1,0.4,0.1,0.6,0.2c0.2,0.1,0.4,0.1,0.6,0.2c0.3,0.1,0.6,0.2,0.9,0.3c0.3,0.1,0.6,0.3,0.8,0.4
		c0.2,0.2,0.4,0.4,0.6,0.7c0.2,0.3,0.2,0.7,0.2,1.1c0,0.5-0.1,0.9-0.3,1.3c-0.2,0.4-0.5,0.7-0.8,0.9c-0.3,0.3-0.8,0.4-1.2,0.6
		c-0.5,0.1-1,0.2-1.6,0.2c-0.6,0-1.1,0-1.5-0.1c-0.5-0.1-0.8-0.2-1.1-0.3v-1.8c0.5,0.2,0.9,0.3,1.3,0.4c0.4,0.1,0.8,0.1,1.1,0.1
		c0.3,0,0.5,0,0.8-0.1c0.2,0,0.4-0.1,0.6-0.2c0.2-0.1,0.3-0.2,0.4-0.3S44.9,110.5,44.9,110.3z"/>
	<path fill="#FFFFFF" d="M52,110.3c0-0.2-0.1-0.3-0.2-0.5c-0.1-0.1-0.3-0.2-0.4-0.3c-0.2-0.1-0.4-0.2-0.6-0.2
		c-0.2-0.1-0.5-0.1-0.7-0.2c-0.3-0.1-0.6-0.2-0.9-0.3s-0.6-0.3-0.8-0.5s-0.4-0.4-0.5-0.7s-0.2-0.6-0.2-1c0-0.5,0.1-0.9,0.3-1.3
		c0.2-0.4,0.4-0.7,0.7-0.9c0.3-0.2,0.7-0.4,1.1-0.5c0.4-0.1,0.8-0.2,1.3-0.2c0.6,0,1.1,0,1.5,0.1c0.5,0.1,0.9,0.2,1.3,0.3v1.8
		c-0.2-0.1-0.4-0.1-0.6-0.2c-0.2-0.1-0.5-0.1-0.7-0.2c-0.2,0-0.5-0.1-0.7-0.1c-0.2,0-0.4,0-0.7,0c-0.3,0-0.5,0-0.7,0.1
		s-0.3,0.1-0.4,0.2c-0.1,0.1-0.2,0.2-0.2,0.3c0,0.1-0.1,0.2-0.1,0.3c0,0.2,0.1,0.4,0.2,0.5c0.1,0.1,0.3,0.2,0.5,0.3
		c0.2,0.1,0.4,0.1,0.6,0.2c0.2,0.1,0.4,0.1,0.6,0.2c0.3,0.1,0.6,0.2,0.9,0.3s0.6,0.3,0.8,0.4s0.5,0.4,0.6,0.7
		c0.2,0.3,0.2,0.7,0.2,1.1c0,0.5-0.1,0.9-0.3,1.3c-0.2,0.4-0.5,0.7-0.8,0.9c-0.3,0.3-0.8,0.4-1.2,0.6c-0.5,0.1-1,0.2-1.6,0.2
		c-0.6,0-1.1,0-1.5-0.1c-0.5-0.1-0.8-0.2-1.1-0.3v-1.8c0.5,0.2,0.9,0.3,1.3,0.4c0.4,0.1,0.8,0.1,1.1,0.1c0.3,0,0.5,0,0.8-0.1
		s0.4-0.1,0.6-0.2c0.2-0.1,0.3-0.2,0.4-0.3C51.9,110.7,52,110.5,52,110.3z"/>
	<path fill="#FFFFFF" d="M63.7,108.5c0,0.7-0.1,1.3-0.3,1.9c-0.2,0.6-0.5,1.1-0.9,1.5c-0.4,0.4-0.9,0.7-1.4,1s-1.2,0.3-1.9,0.3
		c-0.7,0-1.3-0.1-1.9-0.3s-1-0.5-1.4-1s-0.7-0.9-0.9-1.5c-0.2-0.6-0.3-1.2-0.3-1.9s0.1-1.3,0.3-1.9c0.2-0.6,0.5-1.1,0.9-1.5
		s0.9-0.7,1.4-1c0.6-0.2,1.2-0.3,1.9-0.3c0.7,0,1.3,0.1,1.9,0.3c0.6,0.2,1,0.5,1.4,1s0.7,0.9,0.9,1.5
		C63.6,107.1,63.7,107.7,63.7,108.5z M61.4,108.5c0-0.5-0.1-0.9-0.2-1.3c-0.1-0.4-0.3-0.7-0.5-0.9c-0.2-0.2-0.4-0.4-0.7-0.6
		s-0.6-0.2-0.9-0.2c-0.3,0-0.6,0.1-0.9,0.2s-0.5,0.3-0.7,0.6c-0.2,0.2-0.4,0.6-0.5,0.9c-0.1,0.4-0.2,0.8-0.2,1.3
		c0,0.5,0.1,0.9,0.2,1.3c0.1,0.4,0.3,0.7,0.5,0.9s0.4,0.4,0.7,0.6c0.3,0.1,0.6,0.2,0.9,0.2s0.6-0.1,0.9-0.2c0.3-0.1,0.5-0.3,0.7-0.6
		c0.2-0.2,0.4-0.5,0.5-0.9C61.3,109.4,61.4,108.9,61.4,108.5z"/>
	<path fill="#FFFFFF" d="M68.6,110.3c0-0.2-0.1-0.3-0.2-0.5c-0.1-0.1-0.3-0.2-0.4-0.3c-0.2-0.1-0.4-0.2-0.6-0.2
		c-0.2-0.1-0.5-0.1-0.7-0.2c-0.3-0.1-0.6-0.2-0.9-0.3s-0.6-0.3-0.8-0.5s-0.4-0.4-0.5-0.7s-0.2-0.6-0.2-1c0-0.5,0.1-0.9,0.3-1.3
		c0.2-0.4,0.4-0.7,0.7-0.9c0.3-0.2,0.7-0.4,1.1-0.5c0.4-0.1,0.8-0.2,1.3-0.2c0.6,0,1.1,0,1.5,0.1c0.5,0.1,0.9,0.2,1.3,0.3v1.8
		c-0.2-0.1-0.4-0.1-0.6-0.2c-0.2-0.1-0.5-0.1-0.7-0.2c-0.2,0-0.5-0.1-0.7-0.1c-0.2,0-0.4,0-0.7,0c-0.3,0-0.5,0-0.7,0.1
		s-0.3,0.1-0.4,0.2c-0.1,0.1-0.2,0.2-0.2,0.3c0,0.1-0.1,0.2-0.1,0.3c0,0.2,0.1,0.4,0.2,0.5c0.1,0.1,0.3,0.2,0.5,0.3
		c0.2,0.1,0.4,0.1,0.6,0.2c0.2,0.1,0.4,0.1,0.6,0.2c0.3,0.1,0.6,0.2,0.9,0.3s0.6,0.3,0.8,0.4s0.5,0.4,0.6,0.7
		c0.2,0.3,0.2,0.7,0.2,1.1c0,0.5-0.1,0.9-0.3,1.3c-0.2,0.4-0.5,0.7-0.8,0.9c-0.3,0.3-0.8,0.4-1.2,0.6c-0.5,0.1-1,0.2-1.6,0.2
		c-0.6,0-1.1,0-1.5-0.1c-0.5-0.1-0.8-0.2-1.1-0.3v-1.8c0.5,0.2,0.9,0.3,1.3,0.4c0.4,0.1,0.8,0.1,1.1,0.1c0.3,0,0.5,0,0.8-0.1
		s0.4-0.1,0.6-0.2c0.2-0.1,0.3-0.2,0.4-0.3C68.6,110.7,68.6,110.5,68.6,110.3z"/>
	<path fill="#FFFFFF" d="M21.1,127.4c0-0.3-0.1-0.6-0.2-0.8c-0.2-0.2-0.4-0.4-0.6-0.5c-0.3-0.1-0.6-0.2-0.9-0.3
		c-0.3-0.1-0.7-0.2-1-0.2c-0.5-0.1-0.9-0.2-1.4-0.4c-0.4-0.1-0.8-0.3-1.2-0.6c-0.3-0.3-0.6-0.6-0.8-1c-0.2-0.4-0.3-0.9-0.3-1.5
		c0-0.7,0.1-1.2,0.3-1.7c0.2-0.5,0.5-0.9,0.9-1.2c0.4-0.3,0.9-0.6,1.4-0.7c0.5-0.2,1.1-0.2,1.8-0.2c0.7,0,1.3,0.1,2,0.2
		s1.2,0.3,1.7,0.5v1.9c-0.6-0.3-1.3-0.4-1.9-0.6c-0.6-0.1-1.1-0.2-1.7-0.2c-0.7,0-1.3,0.1-1.7,0.4c-0.4,0.3-0.6,0.7-0.6,1.2
		c0,0.3,0.1,0.6,0.2,0.8c0.1,0.2,0.3,0.4,0.5,0.5c0.2,0.1,0.5,0.2,0.8,0.3c0.3,0.1,0.6,0.2,0.9,0.2c0.5,0.1,1,0.2,1.5,0.4
		c0.5,0.1,0.9,0.3,1.3,0.6s0.7,0.6,0.9,1c0.2,0.4,0.3,1,0.3,1.6c0,0.7-0.1,1.2-0.4,1.7c-0.2,0.5-0.6,0.9-1.1,1.2
		c-0.5,0.3-1,0.6-1.7,0.7s-1.4,0.2-2.1,0.2c-0.7,0-1.3-0.1-2-0.2c-0.7-0.1-1.2-0.3-1.6-0.6v-1.9c0.6,0.3,1.2,0.5,1.8,0.6
		c0.6,0.1,1.2,0.2,1.8,0.2c0.4,0,0.7,0,1.1-0.1c0.3-0.1,0.7-0.2,0.9-0.3c0.3-0.1,0.5-0.3,0.7-0.6C21,128,21.1,127.7,21.1,127.4z"/>
	<path fill="#FFFFFF" d="M29.4,129.4c0.4,0,0.9,0,1.3-0.1s0.9-0.2,1.4-0.4v1.8c-0.3,0.1-0.7,0.2-1.3,0.4c-0.6,0.1-1.2,0.2-1.8,0.2
		c-0.6,0-1.2-0.1-1.8-0.2c-0.6-0.2-1.1-0.4-1.5-0.8c-0.4-0.4-0.8-0.8-1-1.4c-0.3-0.6-0.4-1.3-0.4-2.1c0-0.8,0.1-1.5,0.4-2.1
		c0.2-0.6,0.6-1.1,0.9-1.5c0.4-0.4,0.8-0.7,1.4-0.9c0.5-0.2,1-0.3,1.6-0.3c0.6,0,1.1,0.1,1.6,0.3c0.5,0.2,0.9,0.4,1.2,0.8
		c0.3,0.4,0.6,0.8,0.8,1.4c0.2,0.6,0.3,1.3,0.3,2.1c0,0.3,0,0.6,0,0.8h-5.9c0,0.4,0.1,0.8,0.3,1.1c0.2,0.3,0.4,0.5,0.6,0.7
		c0.3,0.2,0.5,0.3,0.9,0.4C28.6,129.4,29,129.4,29.4,129.4z M28.5,123.4c-0.3,0-0.5,0.1-0.7,0.2c-0.2,0.1-0.4,0.2-0.6,0.4
		c-0.2,0.2-0.3,0.4-0.4,0.6s-0.2,0.5-0.2,0.8h3.5c0-0.3,0-0.5-0.1-0.8c-0.1-0.2-0.2-0.4-0.3-0.6c-0.1-0.2-0.3-0.3-0.5-0.4
		C29,123.5,28.8,123.4,28.5,123.4z"/>
	<path fill="#FFFFFF" d="M38.9,123.7h-0.2c-0.7,0-1.3,0.1-1.8,0.3c-0.5,0.2-0.9,0.5-1.2,0.9v6h-2.2v-9h1.8l0.2,1.3h0
		c0.3-0.5,0.6-0.8,1.1-1.1c0.5-0.3,1-0.4,1.6-0.4c0.2,0,0.4,0,0.6,0V123.7z"/>
	<path fill="#FFFFFF" d="M47.3,122l-3.5,9h-2.2l-3.5-9h2.3l1.3,3.4c0.4,1,0.7,1.9,1,2.9h0c0.3-0.8,0.6-1.8,1-2.8l1.3-3.5H47.3z"/>
	<path fill="#FFFFFF" d="M47.6,117.5h2.3v2.4h-2.3V117.5z M47.7,122h2.2v9h-2.2V122z"/>
	<path fill="#FFFFFF" d="M54.1,131c-0.5-0.1-0.9-0.3-1.3-0.5c-0.4-0.2-0.7-0.5-1-0.9c-0.3-0.4-0.5-0.8-0.6-1.3
		c-0.2-0.5-0.2-1-0.2-1.7c0-0.9,0.1-1.6,0.4-2.2c0.3-0.6,0.6-1.1,1.1-1.5c0.4-0.4,0.9-0.7,1.5-0.8c0.5-0.2,1.1-0.3,1.6-0.3
		c0.4,0,0.8,0,1.2,0.1s0.7,0.2,1,0.3v1.8c-0.3-0.1-0.6-0.2-0.9-0.3c-0.3-0.1-0.6-0.1-1-0.1c-0.4,0-0.7,0.1-1,0.2s-0.6,0.3-0.8,0.5
		c-0.2,0.2-0.4,0.5-0.6,0.9c-0.1,0.4-0.2,0.8-0.2,1.4c0,0.4,0.1,0.8,0.2,1.1c0.1,0.3,0.3,0.6,0.5,0.9s0.5,0.5,0.8,0.6
		c0.3,0.1,0.7,0.2,1.2,0.2c0.4,0,0.8,0,1.1-0.1c0.3-0.1,0.6-0.2,0.9-0.3v1.8c-0.3,0.1-0.6,0.2-1,0.3c-0.4,0.1-0.8,0.1-1.3,0.1h-0.2
		l-0.2,0.9c0.2,0,0.5,0.1,0.7,0.2c0.2,0.1,0.4,0.2,0.5,0.3c0.2,0.1,0.3,0.3,0.4,0.5c0.1,0.2,0.1,0.4,0.1,0.6c0,0.3-0.1,0.5-0.2,0.7
		c-0.1,0.2-0.3,0.4-0.5,0.6c-0.2,0.2-0.5,0.3-0.9,0.4s-0.8,0.1-1.2,0.1c-0.2,0-0.5,0-0.7-0.1c-0.3,0-0.4-0.1-0.6-0.1V134
		c0.2,0,0.4,0.1,0.6,0.1c0.2,0,0.4,0,0.6,0c0.2,0,0.4,0,0.6-0.1c0.2,0,0.3-0.1,0.4-0.1c0.1-0.1,0.2-0.1,0.2-0.2s0.1-0.1,0.1-0.2
		c0-0.2-0.1-0.3-0.4-0.4c-0.3-0.1-0.7-0.1-1.3-0.2L54.1,131z"/>
	<path fill="#FFFFFF" d="M67.4,126.5c0,0.7-0.1,1.3-0.3,1.9s-0.5,1.1-0.9,1.5c-0.4,0.4-0.9,0.7-1.4,1s-1.2,0.3-1.9,0.3
		c-0.7,0-1.3-0.1-1.9-0.3s-1-0.5-1.4-1c-0.4-0.4-0.7-0.9-0.9-1.5s-0.3-1.2-0.3-1.9s0.1-1.3,0.3-1.9s0.5-1.1,0.9-1.5
		c0.4-0.4,0.9-0.7,1.4-1c0.6-0.2,1.2-0.3,1.9-0.3c0.7,0,1.3,0.1,1.9,0.3c0.6,0.2,1,0.5,1.4,1c0.4,0.4,0.7,0.9,0.9,1.5
		C67.3,125.1,67.4,125.7,67.4,126.5z M65.1,126.5c0-0.5-0.1-0.9-0.2-1.3s-0.3-0.7-0.5-0.9c-0.2-0.2-0.4-0.4-0.7-0.6
		c-0.3-0.1-0.6-0.2-0.9-0.2c-0.3,0-0.6,0.1-0.9,0.2c-0.3,0.1-0.5,0.3-0.7,0.6c-0.2,0.2-0.4,0.6-0.5,0.9s-0.2,0.8-0.2,1.3
		s0.1,0.9,0.2,1.3s0.3,0.7,0.5,0.9s0.4,0.4,0.7,0.6c0.3,0.1,0.6,0.2,0.9,0.2s0.6-0.1,0.9-0.2c0.3-0.1,0.5-0.3,0.7-0.6
		c0.2-0.2,0.4-0.5,0.5-0.9S65.1,126.9,65.1,126.5z"/>
	<path fill="#FFFFFF" d="M72.4,128.3c0-0.2-0.1-0.3-0.2-0.5s-0.3-0.2-0.4-0.3c-0.2-0.1-0.4-0.2-0.6-0.2c-0.2-0.1-0.5-0.1-0.7-0.2
		c-0.3-0.1-0.6-0.2-0.9-0.3s-0.6-0.3-0.8-0.5s-0.4-0.4-0.5-0.7s-0.2-0.6-0.2-1c0-0.5,0.1-0.9,0.3-1.3c0.2-0.4,0.4-0.7,0.7-0.9
		c0.3-0.2,0.7-0.4,1.1-0.5c0.4-0.1,0.8-0.2,1.3-0.2c0.6,0,1.1,0,1.5,0.1c0.5,0.1,0.9,0.2,1.3,0.3v1.8c-0.2-0.1-0.4-0.1-0.6-0.2
		c-0.2-0.1-0.5-0.1-0.7-0.2c-0.2,0-0.5-0.1-0.7-0.1c-0.2,0-0.4,0-0.7,0c-0.3,0-0.5,0-0.7,0.1c-0.2,0-0.3,0.1-0.4,0.2
		c-0.1,0.1-0.2,0.2-0.2,0.3c0,0.1-0.1,0.2-0.1,0.3c0,0.2,0.1,0.4,0.2,0.5c0.1,0.1,0.3,0.2,0.5,0.3c0.2,0.1,0.4,0.1,0.6,0.2
		c0.2,0.1,0.4,0.1,0.6,0.2c0.3,0.1,0.6,0.2,0.9,0.3c0.3,0.1,0.6,0.3,0.8,0.4s0.5,0.4,0.6,0.7c0.2,0.3,0.2,0.7,0.2,1.1
		c0,0.5-0.1,0.9-0.3,1.3s-0.5,0.7-0.8,0.9c-0.3,0.3-0.8,0.4-1.2,0.6c-0.5,0.1-1,0.2-1.6,0.2c-0.6,0-1.1,0-1.5-0.1
		c-0.5-0.1-0.8-0.2-1.1-0.3v-1.8c0.5,0.2,0.9,0.3,1.3,0.4c0.4,0.1,0.8,0.1,1.1,0.1c0.3,0,0.5,0,0.8-0.1s0.4-0.1,0.6-0.2
		s0.3-0.2,0.4-0.3C72.3,128.7,72.4,128.5,72.4,128.3z"/>
</g>
<g>
	<path fill-rule="evenodd" clip-rule="evenodd" fill="#D90000" d="M30.8,65c1.4-0.4,2,1.7,0.6,2.1c-0.7,0.2-1.2-0.2-1.4-0.7
		C29.8,65.8,30.2,65.2,30.8,65L30.8,65z M30.3,59.1c-0.2,0.2-0.2,0.2-0.6,0.4c-0.3,0.1-0.4,0.2-0.8,0.2l-0.5,0l-0.9-0.4
		c-0.5-0.4-0.9-1-0.7-1.9l-3.2,0c-0.2,0.3-0.6,1.8-0.8,2.3c-0.3,0.8-0.5,1.6-0.8,2.3c-0.5,1.7-1.6,3.8-0.7,5.5c0,0,0,0,0,0
		c0,0,0,0,0,0l0.2,0.3c1.1,1.1,2,0.8,3.8,0.8h12.2c1.6,0,3.7,0.4,4.3-1.8c0.4-1.6-0.5-3.6-0.9-5c-0.3-0.8-0.5-1.5-0.8-2.3
		c-0.2-0.7-0.6-1.6-0.7-2.3l-7.8,0l-1.1,0c0.1,0.3,0,0.1,0.1,0.3l0,0.3c-0.1,0.2-0.2,0.5-0.3,0.7C30.5,58.9,30.5,58.9,30.3,59.1
		L30.3,59.1z M34.5,61.3c1.4-0.5,2.1,1.6,0.7,2.1C33.8,63.9,33.1,61.8,34.5,61.3L34.5,61.3z"/>
	<path fill-rule="evenodd" clip-rule="evenodd" fill="#D90000" d="M25.7,44.6l-5.5,16.5c-1,3-2.3,6,0.1,8.4c1.1,1.2,2.1,1.4,4.2,1.4
		h11c1.3,0,4.4,0.1,5.4-0.2c2.9-0.8,4.1-3.9,2.9-7.2c-1-2.7-1.8-5.7-2.7-8.3c-0.3-0.9-2.6-8.1-2.8-8.3c-0.1-0.5-0.9-2.8-1.1-3.4
		c-0.4-1.1-0.7-2.3-1.1-3.4c-0.4-1.2-0.2-2.9-0.2-4.3c0-1.5,0-3,0-4.5c1.3-0.3,1.2-2-0.2-2.1c-1.4,0-2.8,0-4.1,0c-1.3,0-2.7,0-4.1,0
		c-1,0-1.4,1.1-0.8,1.7c0.2,0.3,0.4,0.2,0.7,0.4c0.1,0.9,0,6,0,7.3c0,1-0.4,2-0.7,2.9C26.4,42.5,25.9,44,25.7,44.6L25.7,44.6z
		 M28.1,41.5l0.1-0.3c0.1-0.2,0.1-0.3,0.2-0.5c0.1-0.5,0.4-0.8,0.4-1.6c0-1.1-0.1-7.2,0-7.7l5.7,0c0,2.6,0,5.2,0,7.8
		c0,0.7,0.6,2.2,0.9,3c0.1,0.2,0.8,2.7,1,2.9c0,0.4,4.9,15,5.1,15.8c0.8,2.6,2.5,5.9,0.2,7.9c-1.1,0.9-3,0.7-4.6,0.7H26.6
		c-1.5,0-3.6,0.2-4.7-0.5c-1-0.7-1.7-2-1.4-3.8c0.2-1.2,3.3-10.4,3.8-11.9c0.9-2.6,1.7-5.2,2.6-7.9L28.1,41.5L28.1,41.5z"/>
	<path fill-rule="evenodd" clip-rule="evenodd" fill="#D90000" d="M49.6,61.3c0.2,5.6,6.4,9.5,11.6,7.2c0.5-0.2,0.9-0.4,1.3-0.7
		c1.2-0.7,2.2-2,2.8-3.2c0.4-0.7,0.9-2.2,0.9-3.1L49.6,61.3L49.6,61.3z"/>
	<path fill-rule="evenodd" clip-rule="evenodd" fill="#D90000" d="M44.9,68.3c1.1,0.1,2.1,0.5,3.2-0.7c1-1,0.2-0.7-0.6-2.8
		c-0.9-2.5-1.1-4.9-0.2-7.4c0.4-1.1,0.8-1.9,1.5-2.9c0.3-0.4,0.2-0.8,0.2-1.3l-6,0c0,1.5-0.1,3,0,4.4c0,0.8,1.9,5.3,2.1,6.7
		C45.5,66.8,45.1,66.6,44.9,68.3L44.9,68.3z"/>
	<path fill-rule="evenodd" clip-rule="evenodd" fill="#D90000" d="M55.9,45.5C55.9,45.5,55.9,45.4,55.9,45.5l0.1-6.2
		c0-1,0-2.1,0-3.1c0-1,0-2.1,0.1-3.1l4.1,0L60,51.8c0,0.1,0,0.1,0.1,0.3c0.1,0.5,1,0.6,1.4,0.8c3.8,1.7,6.1,6.2,4.7,10.5
		c-0.4,1.3-0.9,2.1-1.6,3c-2.9,3.8-8.8,4.5-12.7,1.1c-0.2-0.2-0.4-0.4-0.6-0.6c-0.2-0.1-0.2-0.1-0.3-0.3c-3.9-4.9-2.2-11.2,3-13.7
		c2-1,1.6,0,1.7-2.9C55.9,49.2,56,46,55.9,45.5L55.9,45.5z M61.4,47.8l0.1-14.6c0.1-0.1,0.8-0.2,0.7-1c0-0.5-0.4-0.7-0.8-0.8
		l-6.5-0.1c-0.5,0-0.9,0.3-0.9,0.7c-0.1,0.7,0.3,0.7,0.7,1l-0.1,11.6l-0.1,6.5c-0.3,0.2-1.2,0.6-1.6,0.7c-0.5,0.2-1,0.6-1.4,0.9
		c-1.7,1.3-3,3.4-3.6,5.5c-1.6,6,3,12.5,9.7,12.6c5.2,0.1,9.3-3.7,10.1-8.2c0.9-4.4-1.2-8.6-4.9-10.7c-0.3-0.2-1.4-0.6-1.6-0.8
		L61.4,47.8L61.4,47.8z"/>
	<path fill-rule="evenodd" clip-rule="evenodd" fill="#D90000" d="M49.9,39.8c0.6-0.1,0.2-0.3,0.3-0.7c0.6-0.1,0.7,0.7-0.2,0.9
		c-0.1,0,0.1,0-0.1,0c0,0,0,0-0.1,0l0,0.5c0.3,0.1,0.8-0.1,1-0.4c0.6-0.6,0.2-2.1-0.9-1.8c-0.3,0.1-0.3,0.4-0.3,1c0,0.1,0,0.1,0,0.2
		C49.9,39.8,49.9,39.7,49.9,39.8L49.9,39.8z"/>
	<path fill-rule="evenodd" clip-rule="evenodd" fill="#D90000" d="M51.4,38.3l0-0.6c-0.7-0.3-0.6-0.4-1.6-0.4l0,0.6
		c0.4-0.1,0.5-0.1,0.9,0C51.1,38,51.1,38.2,51.4,38.3L51.4,38.3z"/>
	<path fill-rule="evenodd" clip-rule="evenodd" fill="#D90000" d="M40.6,38.5l0,11.4c0,1.3,0.5,2.4,0.9,3.6c0.1,0.4,0.4,1.4,0.6,1.7
		l0,0.2l0-32.7l7.6,0l0,13.9c0.3,0.1,0.5,0,0.8,0.1c0.4,0,0.5,0.2,0.8,0.2l0-14.2c0.4-0.2,1.2-0.4,1.1-1.4c-0.1-1.7-2.3-1.3-3.9-1.3
		l-7.8,0c-0.8,0-1.4,0.4-1.4,1.2c0,0.4,0.1,0.7,0.3,1c0.3,0.4,0.4,0.3,0.8,0.5L40.6,38.5L40.6,38.5z"/>
	<path fill-rule="evenodd" clip-rule="evenodd" fill="#D90000" d="M49.8,53c0,0,0,0.1,0,0.2l0,0.1c0,0,0,0,0,0c0,0,0,0,0,0
		c0.4-0.5,0.9-1,1.5-1.4l0-0.1c0.1-0.3,0-2.4,0-2.7c0-2.3-0.1-6.8,0-8.7c-0.4,0.1-0.4,0.3-0.8,0.5c-0.3,0.1-0.6,0.1-0.9,0.3L49.8,53
		L49.8,53z"/>
	<path fill-rule="evenodd" clip-rule="evenodd" fill="#D90000" d="M48.6,21.1c-0.2,1-1.4,0.6-1.1-0.2c0.1-0.2,0.3-0.3,0.5-0.2
		c0.2,0.7,0,0.6,0,0.6c-0.3-0.2,0-0.1-0.2-0.4c-0.1,0.2-0.1,0.5,0.3,0.5C48.3,21.4,48.2,21.2,48.6,21.1L48.6,21.1z"/>
	<path fill-rule="evenodd" clip-rule="evenodd" fill="#D90000" d="M44.4,69c-0.1,0.7-0.6,0.8-0.9,1.2c0.5,0.6,2.6,0.9,3.8,0.5
		c0.6-0.2,1.2-0.4,1.6-0.8c0.4-0.3,1-0.8,1.2-1.2c-0.1-0.2-0.4-0.4-0.5-0.6l-0.5-0.6c-0.4,0.6-1,1.2-1.8,1.5
		C46.1,69.5,45.5,69.2,44.4,69L44.4,69z"/>
	<path fill-rule="evenodd" clip-rule="evenodd" fill="#D90000" d="M49.9,39.8c-0.1-0.1-0.1,0-0.1-0.2c0-0.1,0-0.1,0-0.2
		c0-0.6,0-0.9,0.3-1c1.1-0.3,1.5,1.2,0.9,1.8c-0.3,0.3-0.7,0.4-1,0.4l0-0.5c0,0,0,0,0.1,0c0.2-0.1,0,0,0.1,0c0.9-0.3,0.8-1,0.2-0.9
		C50.1,39.5,50.5,39.7,49.9,39.8L49.9,39.8z M49.8,41.3c0.3-0.2,0.6-0.1,0.9-0.3c0.4-0.2,0.4-0.4,0.8-0.5l0-2.3
		c-0.3-0.1-0.3-0.3-0.7-0.4c-0.4-0.1-0.5-0.1-0.9,0l0-0.6c1,0,0.9,0.1,1.6,0.4l0-0.8c-0.3,0-0.4-0.2-0.8-0.2c-0.3,0-0.5,0.1-0.8-0.1
		L49.8,41.3L49.8,41.3z"/>
</g>
</svg>
