<?xml version="1.0" encoding="utf-8"?>
<!-- Generator: Adobe Illustrator 18.0.0, SVG Export Plug-In . SVG Version: 6.00 Build 0)  -->
<!DOCTYPE svg PUBLIC "-//W3C//DTD SVG 1.1//EN" "http://www.w3.org/Graphics/SVG/1.1/DTD/svg11.dtd">
<svg version="1.1" id="Camada_1" xmlns="http://www.w3.org/2000/svg" xmlns:xlink="http://www.w3.org/1999/xlink" x="0px" y="0px"
	 viewBox="0 0 168.1 28.3" enable-background="new 0 0 168.1 28.3" xml:space="preserve">
<linearGradient id="SVGID_1_" gradientUnits="userSpaceOnUse" x1="12.8939" y1="28.1971" x2="15.3561" y2="5.290223e-002">
	<stop  offset="0.5297" style="stop-color:#444445"/>
	<stop  offset="1" style="stop-color:#767576"/>
</linearGradient>
<path fill="url(#SVGID_1_)" d="M14.1,0C6.3,0,0,6.3,0,14.1s6.3,14.1,14.1,14.1s14.1-6.3,14.1-14.1S21.9,0,14.1,0z M14,26.3
	c-6.7,0-12.1-5.4-12.1-12.1C1.9,7.4,7.3,2,14,2c6.7,0,12.1,5.4,12.1,12.1C26.1,20.8,20.7,26.3,14,26.3z"/>
<circle fill="#686868" cx="5" cy="14" r="1.1"/>
<circle fill="#686868" cx="6.2" cy="9.5" r="1.1"/>
<circle fill="#686868" cx="9.4" cy="6.2" r="1.1"/>
<circle fill="#686868" cx="14" cy="4.9" r="1.1"/>
<circle fill="#686868" cx="18.6" cy="6.2" r="1.1"/>
<circle fill="#686868" cx="21.7" cy="9.7" r="1.1"/>
<circle fill="#686868" cx="23" cy="14" r="1.1"/>
<circle fill="#575757" cx="14.1" cy="15.5" r="1.8"/>
<polygon fill="#575757" points="10.4,9.4 10.5,9.3 15.2,14 12.3,15.5 "/>
<path fill="none" stroke="#444445" stroke-miterlimit="10" d="M9.6,21.1c0,2.2-1.8,4.7-3.5,3.5c-0.8-0.6-3.2-1.9-3.5-4.1
	c-0.3-2.1,1-3.3,3.1-3.3S9.6,19,9.6,21.1z"/>
<path fill="none" stroke="#444445" stroke-miterlimit="10" d="M21.7,17.5c2.2,0,4.7,1.8,3.5,3.5c-0.6,0.8-1.9,3.2-4.1,3.5
	c-2.1,0.3-3.3-1-3.3-3.1S19.5,17.5,21.7,17.5z"/>
<g>
	<g>
		<path fill="#ED171E" d="M46.3,12.3c0,0.9-0.2,1.6-0.7,2.2c-0.5,0.6-1.2,1.1-2.2,1.3v0l3.7,5.1h-2.7L41,16.1h-1.6v4.8h-2.3V8.5h3.8
			c0.6,0,1.2,0,1.7,0.1c0.5,0.1,1,0.2,1.4,0.3c0.7,0.3,1.3,0.7,1.7,1.2C46.1,10.7,46.3,11.4,46.3,12.3z M40.5,14.2
			c0.5,0,1,0,1.3-0.1c0.4,0,0.7-0.1,0.9-0.2c0.5-0.2,0.8-0.4,1-0.7c0.2-0.3,0.3-0.6,0.3-1c0-0.3-0.1-0.6-0.2-0.9
			c-0.1-0.3-0.4-0.5-0.7-0.6c-0.2-0.1-0.5-0.2-0.8-0.2c-0.3,0-0.7-0.1-1.2-0.1h-1.6v3.8H40.5z"/>
		<path fill="#ED171E" d="M52.1,19.4c0.4,0,0.9,0,1.3-0.1c0.5-0.1,0.9-0.2,1.4-0.4v1.8c-0.3,0.1-0.7,0.2-1.3,0.4s-1.2,0.2-1.8,0.2
			c-0.6,0-1.2-0.1-1.8-0.2c-0.6-0.2-1.1-0.4-1.5-0.8c-0.4-0.4-0.8-0.8-1-1.4c-0.3-0.6-0.4-1.3-0.4-2.1c0-0.8,0.1-1.5,0.4-2.1
			s0.6-1.1,0.9-1.5c0.4-0.4,0.8-0.7,1.4-0.9c0.5-0.2,1-0.3,1.6-0.3c0.6,0,1.1,0.1,1.6,0.3c0.5,0.2,0.9,0.4,1.2,0.8
			c0.3,0.4,0.6,0.8,0.8,1.4c0.2,0.6,0.3,1.3,0.3,2.1c0,0.3,0,0.6,0,0.8h-5.9c0,0.4,0.1,0.8,0.3,1.1c0.2,0.3,0.4,0.5,0.6,0.7
			c0.3,0.2,0.5,0.3,0.9,0.4C51.3,19.4,51.7,19.4,52.1,19.4z M51.2,13.4c-0.3,0-0.5,0.1-0.7,0.2c-0.2,0.1-0.4,0.2-0.6,0.4
			c-0.2,0.2-0.3,0.4-0.4,0.6c-0.1,0.2-0.2,0.5-0.2,0.8h3.5c0-0.3,0-0.5-0.1-0.8c-0.1-0.2-0.2-0.4-0.3-0.6c-0.1-0.2-0.3-0.3-0.5-0.4
			C51.7,13.5,51.5,13.4,51.2,13.4z"/>
		<path fill="#ED171E" d="M60.2,18.3c0-0.2-0.1-0.3-0.2-0.5s-0.3-0.2-0.4-0.3c-0.2-0.1-0.4-0.2-0.6-0.2c-0.2-0.1-0.5-0.1-0.7-0.2
			c-0.3-0.1-0.6-0.2-0.9-0.3c-0.3-0.1-0.6-0.3-0.8-0.5S56.2,16,56,15.7c-0.1-0.3-0.2-0.6-0.2-1c0-0.5,0.1-0.9,0.3-1.3
			c0.2-0.4,0.4-0.7,0.7-0.9c0.3-0.2,0.7-0.4,1.1-0.5c0.4-0.1,0.8-0.2,1.3-0.2c0.6,0,1.1,0,1.5,0.1c0.5,0.1,0.9,0.2,1.3,0.3V14
			c-0.2-0.1-0.4-0.1-0.6-0.2c-0.2-0.1-0.5-0.1-0.7-0.2c-0.2,0-0.5-0.1-0.7-0.1c-0.2,0-0.4,0-0.7,0c-0.3,0-0.5,0-0.7,0.1
			c-0.2,0-0.3,0.1-0.4,0.2c-0.1,0.1-0.2,0.2-0.2,0.3c0,0.1-0.1,0.2-0.1,0.3c0,0.2,0.1,0.4,0.2,0.5c0.1,0.1,0.3,0.2,0.5,0.3
			c0.2,0.1,0.4,0.1,0.6,0.2s0.4,0.1,0.6,0.2c0.3,0.1,0.6,0.2,0.9,0.3c0.3,0.1,0.6,0.3,0.8,0.4c0.2,0.2,0.5,0.4,0.6,0.7
			c0.2,0.3,0.2,0.7,0.2,1.1c0,0.5-0.1,1-0.3,1.3s-0.5,0.7-0.8,0.9c-0.3,0.3-0.8,0.4-1.2,0.6c-0.5,0.1-1,0.2-1.6,0.2
			c-0.6,0-1.1,0-1.5-0.1c-0.5-0.1-0.8-0.2-1.1-0.3v-1.8c0.5,0.2,0.9,0.3,1.3,0.4c0.4,0.1,0.8,0.1,1.1,0.1c0.3,0,0.5,0,0.8-0.1
			c0.2,0,0.4-0.1,0.6-0.2s0.3-0.2,0.4-0.3C60.2,18.7,60.2,18.5,60.2,18.3z"/>
		<path fill="#ED171E" d="M67.3,21.2c-0.9,0-1.7-0.2-2.2-0.5c-0.6-0.3-1-0.7-1.3-1.2c-0.2-0.3-0.3-0.6-0.4-0.9
			c-0.1-0.3-0.1-0.7-0.1-1.1V12h2.2v5.3c0,0.3,0,0.6,0.1,0.8c0,0.2,0.1,0.4,0.2,0.6c0.1,0.3,0.4,0.5,0.6,0.6c0.3,0.1,0.6,0.2,1,0.2
			c0.4,0,0.7-0.1,1-0.2s0.5-0.4,0.6-0.7c0.1-0.3,0.2-0.7,0.2-1.2V12h2.2v5.5c0,0.7-0.1,1.3-0.4,1.8c-0.1,0.3-0.3,0.5-0.6,0.8
			c-0.2,0.2-0.5,0.4-0.8,0.6c-0.3,0.2-0.7,0.3-1,0.4C68.2,21.1,67.8,21.2,67.3,21.2z"/>
		<path fill="#ED171E" d="M72.8,20.9V7.5H75v13.4H72.8z"/>
		<path fill="#ED171E" d="M82.1,20.9c-0.2,0.1-0.5,0.1-0.9,0.2c-0.3,0-0.7,0.1-1,0.1c-0.8,0-1.4-0.1-1.9-0.4s-0.8-0.6-1-1.1
			c-0.1-0.3-0.2-0.8-0.2-1.3v-4.7h-1.7V12h1.7V9.4h2.2V12H82v1.8h-2.6v4.4c0,0.3,0.1,0.6,0.2,0.8c0.2,0.3,0.6,0.4,1.1,0.4
			c0.3,0,0.5,0,0.8-0.1c0.3,0,0.5-0.1,0.7-0.2V20.9z"/>
		<path fill="#ED171E" d="M88.1,20L88.1,20c-0.2,0.1-0.3,0.3-0.5,0.4s-0.4,0.3-0.6,0.4c-0.2,0.1-0.5,0.2-0.7,0.3s-0.6,0.1-0.9,0.1
			c-0.4,0-0.8-0.1-1.2-0.2s-0.7-0.3-1-0.6c-0.3-0.3-0.5-0.6-0.6-0.9s-0.2-0.8-0.2-1.2c0-0.5,0.1-0.9,0.3-1.3c0.2-0.4,0.4-0.7,0.7-1
			c0.3-0.3,0.7-0.5,1.1-0.6c0.4-0.1,0.9-0.2,1.5-0.2c0.4,0,0.7,0,1.1,0.1s0.6,0.1,0.9,0.2v-0.4c0-0.2,0-0.4-0.1-0.6
			c-0.1-0.2-0.2-0.4-0.3-0.5c-0.2-0.2-0.4-0.3-0.6-0.4c-0.3-0.1-0.6-0.1-0.9-0.1c-0.4,0-0.9,0-1.3,0.1c-0.4,0.1-0.9,0.2-1.4,0.4
			v-1.7c0.5-0.2,0.9-0.3,1.4-0.5c0.5-0.1,1-0.2,1.6-0.2c0.7,0,1.2,0.1,1.7,0.2c0.5,0.2,0.9,0.4,1.2,0.7c0.3,0.3,0.6,0.6,0.7,1
			c0.2,0.4,0.2,0.8,0.2,1.3v3.4c0,0.6,0,1.1,0,1.5s0,0.8,0,1.1h-2L88.1,20z M88,17.1c-0.2,0-0.5-0.1-0.7-0.1c-0.3,0-0.5-0.1-0.8-0.1
			c-0.5,0-1,0.1-1.3,0.3c-0.3,0.2-0.5,0.5-0.5,1c0,0.2,0,0.4,0.1,0.5s0.2,0.3,0.3,0.4c0.1,0.1,0.3,0.2,0.4,0.2s0.3,0.1,0.5,0.1
			c0.2,0,0.4,0,0.6-0.1c0.2-0.1,0.4-0.1,0.5-0.2c0.2-0.1,0.3-0.2,0.5-0.3c0.1-0.1,0.2-0.2,0.3-0.3V17.1z"/>
		<path fill="#ED171E" d="M91.2,16.6c0-0.8,0.1-1.5,0.3-2.1c0.2-0.6,0.5-1.1,0.9-1.5c0.4-0.4,0.8-0.7,1.3-0.9c0.5-0.2,1-0.3,1.5-0.3
			c0.2,0,0.5,0,0.7,0.1c0.2,0,0.4,0.1,0.6,0.2c0.2,0.1,0.4,0.2,0.5,0.3c0.2,0.1,0.3,0.2,0.5,0.3h0c0-0.1,0-0.3,0-0.5
			c0-0.2,0-0.5,0-0.7V7.5h2.2v10.8c0,0.6,0,1.1,0,1.5s0,0.8,0,1.1h-2l-0.1-1h0c-0.1,0.2-0.3,0.3-0.5,0.5s-0.4,0.3-0.6,0.4
			c-0.2,0.1-0.5,0.2-0.7,0.3c-0.3,0.1-0.5,0.1-0.9,0.1c-0.5,0-1-0.1-1.4-0.3c-0.4-0.2-0.9-0.4-1.2-0.8c-0.4-0.4-0.6-0.8-0.9-1.4
			C91.3,18.1,91.2,17.4,91.2,16.6z M95.6,19.4c0.2,0,0.4,0,0.6-0.1c0.2-0.1,0.4-0.1,0.6-0.2c0.2-0.1,0.3-0.2,0.5-0.3
			c0.1-0.1,0.2-0.2,0.3-0.3v-4.3c-0.3-0.2-0.5-0.4-0.9-0.5c-0.3-0.1-0.7-0.2-1-0.2c-0.2,0-0.5,0-0.7,0.1c-0.3,0.1-0.5,0.3-0.7,0.5
			s-0.4,0.5-0.5,0.9c-0.1,0.4-0.2,0.9-0.2,1.5c0,0.9,0.2,1.6,0.5,2.1C94.4,19.2,94.9,19.4,95.6,19.4z"/>
		<path fill="#ED171E" d="M109.9,16.5c0,0.7-0.1,1.3-0.3,1.9s-0.5,1.1-0.9,1.5c-0.4,0.4-0.9,0.7-1.4,1c-0.6,0.2-1.2,0.3-1.9,0.3
			c-0.7,0-1.3-0.1-1.9-0.3c-0.6-0.2-1-0.5-1.4-1c-0.4-0.4-0.7-0.9-0.9-1.5s-0.3-1.2-0.3-1.9s0.1-1.3,0.3-1.9
			c0.2-0.6,0.5-1.1,0.9-1.5c0.4-0.4,0.9-0.7,1.4-1c0.6-0.2,1.2-0.3,1.9-0.3c0.7,0,1.3,0.1,1.9,0.3c0.6,0.2,1,0.5,1.4,1
			c0.4,0.4,0.7,0.9,0.9,1.5C109.8,15.1,109.9,15.8,109.9,16.5z M107.6,16.5c0-0.5-0.1-0.9-0.2-1.3s-0.3-0.7-0.5-0.9
			c-0.2-0.2-0.4-0.4-0.7-0.6c-0.3-0.1-0.6-0.2-0.9-0.2c-0.3,0-0.6,0.1-0.9,0.2c-0.3,0.1-0.5,0.3-0.7,0.6c-0.2,0.2-0.4,0.6-0.5,0.9
			s-0.2,0.8-0.2,1.3s0.1,0.9,0.2,1.3s0.3,0.7,0.5,0.9c0.2,0.2,0.4,0.4,0.7,0.6c0.3,0.1,0.6,0.2,0.9,0.2s0.6-0.1,0.9-0.2
			c0.3-0.1,0.5-0.3,0.7-0.6c0.2-0.2,0.4-0.5,0.5-0.9S107.6,16.9,107.6,16.5z"/>
		<path fill="#ED171E" d="M114.9,18.3c0-0.2-0.1-0.3-0.2-0.5s-0.3-0.2-0.4-0.3c-0.2-0.1-0.4-0.2-0.6-0.2c-0.2-0.1-0.5-0.1-0.7-0.2
			c-0.3-0.1-0.6-0.2-0.9-0.3c-0.3-0.1-0.6-0.3-0.8-0.5s-0.4-0.4-0.5-0.7c-0.1-0.3-0.2-0.6-0.2-1c0-0.5,0.1-0.9,0.3-1.3
			c0.2-0.4,0.4-0.7,0.7-0.9c0.3-0.2,0.7-0.4,1.1-0.5c0.4-0.1,0.8-0.2,1.3-0.2c0.6,0,1.1,0,1.5,0.1c0.5,0.1,0.9,0.2,1.3,0.3V14
			c-0.2-0.1-0.4-0.1-0.6-0.2c-0.2-0.1-0.5-0.1-0.7-0.2c-0.2,0-0.5-0.1-0.7-0.1c-0.2,0-0.4,0-0.7,0c-0.3,0-0.5,0-0.7,0.1
			c-0.2,0-0.3,0.1-0.4,0.2c-0.1,0.1-0.2,0.2-0.2,0.3c0,0.1-0.1,0.2-0.1,0.3c0,0.2,0.1,0.4,0.2,0.5c0.1,0.1,0.3,0.2,0.5,0.3
			c0.2,0.1,0.4,0.1,0.6,0.2s0.4,0.1,0.6,0.2c0.3,0.1,0.6,0.2,0.9,0.3c0.3,0.1,0.6,0.3,0.8,0.4c0.2,0.2,0.5,0.4,0.6,0.7
			c0.2,0.3,0.2,0.7,0.2,1.1c0,0.5-0.1,1-0.3,1.3s-0.5,0.7-0.8,0.9c-0.3,0.3-0.8,0.4-1.2,0.6c-0.5,0.1-1,0.2-1.6,0.2
			c-0.6,0-1.1,0-1.5-0.1c-0.5-0.1-0.8-0.2-1.1-0.3v-1.8c0.5,0.2,0.9,0.3,1.3,0.4c0.4,0.1,0.8,0.1,1.1,0.1c0.3,0,0.5,0,0.8-0.1
			c0.2,0,0.4-0.1,0.6-0.2s0.3-0.2,0.4-0.3C114.8,18.7,114.9,18.5,114.9,18.3z"/>
		<path fill="#ED171E" d="M132,14.7c0,0.9-0.1,1.8-0.4,2.6c-0.3,0.8-0.7,1.5-1.2,2c-0.5,0.6-1.2,1-1.9,1.3c-0.8,0.3-1.6,0.5-2.6,0.5
			s-1.8-0.2-2.6-0.5c-0.8-0.3-1.4-0.8-1.9-1.3c-0.5-0.6-0.9-1.2-1.2-2c-0.3-0.8-0.4-1.7-0.4-2.6s0.1-1.8,0.4-2.6
			c0.3-0.8,0.7-1.5,1.2-2c0.5-0.6,1.2-1,1.9-1.3c0.8-0.3,1.6-0.5,2.6-0.5s1.8,0.2,2.6,0.5c0.8,0.3,1.4,0.8,1.9,1.3
			c0.5,0.6,0.9,1.2,1.2,2C131.9,12.9,132,13.8,132,14.7z M129.7,14.7c0-0.8-0.1-1.4-0.3-2c-0.2-0.6-0.4-1-0.8-1.4
			c-0.3-0.4-0.7-0.7-1.2-0.8s-0.9-0.3-1.5-0.3s-1,0.1-1.5,0.3s-0.8,0.5-1.2,0.8c-0.3,0.4-0.6,0.8-0.8,1.4c-0.2,0.6-0.3,1.2-0.3,2
			c0,0.8,0.1,1.4,0.3,2c0.2,0.6,0.4,1,0.8,1.4c0.3,0.4,0.7,0.7,1.2,0.8s0.9,0.3,1.5,0.3s1-0.1,1.5-0.3s0.8-0.5,1.2-0.8
			c0.3-0.4,0.6-0.8,0.8-1.4C129.6,16.2,129.7,15.5,129.7,14.7z"/>
		<path fill="#ED171E" d="M135.3,13.2L135.3,13.2c0.2-0.2,0.3-0.4,0.5-0.5c0.2-0.2,0.4-0.3,0.7-0.5c0.3-0.1,0.5-0.2,0.8-0.3
			c0.3-0.1,0.6-0.1,1-0.1c0.3,0,0.6,0,1,0.1c0.3,0.1,0.6,0.2,0.8,0.3c0.3,0.2,0.5,0.4,0.7,0.6c0.2,0.3,0.3,0.5,0.5,0.9
			c0.1,0.2,0.1,0.4,0.1,0.6c0,0.2,0,0.5,0,0.8v5.8h-2.2v-5.5c0-0.2,0-0.4,0-0.6c0-0.2-0.1-0.3-0.1-0.5c-0.1-0.3-0.3-0.5-0.5-0.6
			c-0.2-0.1-0.5-0.2-0.8-0.2c-0.4,0-0.8,0.1-1.2,0.3c-0.4,0.2-0.7,0.5-1,0.9v6.2h-2.2v-9h1.8L135.3,13.2z"/>
		<path fill="#ED171E" d="M142.9,20.9V7.5h2.2v13.4H142.9z"/>
		<path fill="#ED171E" d="M146.7,7.5h2.3v2.4h-2.3V7.5z M146.7,12h2.2v9h-2.2V12z"/>
		<path fill="#ED171E" d="M152.5,13.2L152.5,13.2c0.2-0.2,0.3-0.4,0.5-0.5c0.2-0.2,0.4-0.3,0.7-0.5c0.3-0.1,0.5-0.2,0.8-0.3
			c0.3-0.1,0.6-0.1,1-0.1c0.3,0,0.6,0,1,0.1c0.3,0.1,0.6,0.2,0.8,0.3c0.3,0.2,0.5,0.4,0.7,0.6c0.2,0.3,0.3,0.5,0.5,0.9
			c0.1,0.2,0.1,0.4,0.1,0.6c0,0.2,0,0.5,0,0.8v5.8h-2.2v-5.5c0-0.2,0-0.4,0-0.6c0-0.2-0.1-0.3-0.1-0.5c-0.1-0.3-0.3-0.5-0.5-0.6
			c-0.2-0.1-0.5-0.2-0.8-0.2c-0.4,0-0.8,0.1-1.2,0.3c-0.4,0.2-0.7,0.5-1,0.9v6.2h-2.2v-9h1.8L152.5,13.2z"/>
		<path fill="#ED171E" d="M164.7,19.4c0.4,0,0.9,0,1.3-0.1c0.5-0.1,0.9-0.2,1.4-0.4v1.8c-0.3,0.1-0.7,0.2-1.3,0.4s-1.2,0.2-1.8,0.2
			c-0.6,0-1.2-0.1-1.8-0.2c-0.6-0.2-1.1-0.4-1.5-0.8c-0.4-0.4-0.8-0.8-1-1.4c-0.3-0.6-0.4-1.3-0.4-2.1c0-0.8,0.1-1.5,0.4-2.1
			s0.6-1.1,0.9-1.5c0.4-0.4,0.8-0.7,1.4-0.9c0.5-0.2,1-0.3,1.6-0.3c0.6,0,1.1,0.1,1.6,0.3c0.5,0.2,0.9,0.4,1.2,0.8
			c0.3,0.4,0.6,0.8,0.8,1.4c0.2,0.6,0.3,1.3,0.3,2.1c0,0.3,0,0.6,0,0.8h-5.9c0,0.4,0.1,0.8,0.3,1.1c0.2,0.3,0.4,0.5,0.6,0.7
			c0.3,0.2,0.5,0.3,0.9,0.4C163.9,19.4,164.3,19.4,164.7,19.4z M163.8,13.4c-0.3,0-0.5,0.1-0.7,0.2c-0.2,0.1-0.4,0.2-0.6,0.4
			c-0.2,0.2-0.3,0.4-0.4,0.6c-0.1,0.2-0.2,0.5-0.2,0.8h3.5c0-0.3,0-0.5-0.1-0.8c-0.1-0.2-0.2-0.4-0.3-0.6c-0.1-0.2-0.3-0.3-0.5-0.4
			C164.3,13.5,164.1,13.4,163.8,13.4z"/>
	</g>
</g>
</svg>
