<?xml version="1.0" encoding="utf-8"?>
<!-- Generator: Adobe Illustrator 18.0.0, SVG Export Plug-In . SVG Version: 6.00 Build 0)  -->
<!DOCTYPE svg PUBLIC "-//W3C//DTD SVG 1.1//EN" "http://www.w3.org/Graphics/SVG/1.1/DTD/svg11.dtd">
<svg version="1.1" id="Camada_1" xmlns="http://www.w3.org/2000/svg" xmlns:xlink="http://www.w3.org/1999/xlink" x="0px" y="0px"
	 viewBox="0 0 166.5 150.5" enable-background="new 0 0 166.5 150.5" xml:space="preserve">
<path fill-rule="evenodd" clip-rule="evenodd" fill="#F24957" d="M84.6,1c29.8,0,53.9,24.6,53.9,54.9s-24.1,54.9-53.9,54.9
	c-29.8,0-53.9-24.6-53.9-54.9S54.8,1,84.6,1z"/>
<linearGradient id="SVGID_1_" gradientUnits="userSpaceOnUse" x1="93.4427" y1="106.109" x2="75.7461" y2="5.7466">
	<stop  offset="0" style="stop-color:#E9E9E9"/>
	<stop  offset="1" style="stop-color:#FFFFFF"/>
</linearGradient>
<path fill-rule="evenodd" clip-rule="evenodd" fill="url(#SVGID_1_)" d="M84.6,5c27.6,0,50,22.8,50,51s-22.4,51-50,51
	c-27.6,0-50-22.8-50-51S57,5,84.6,5z"/>
<g>
	<g>
		<path fill="#D01A23" d="M40.3,145.1h-2.8v-12.8h-4.9V130h12.5v2.3h-4.9V145.1z"/>
		<path fill="#D01A23" d="M50,143.3c0.5,0,1.1-0.1,1.6-0.2s1.1-0.3,1.7-0.5v2.1c-0.3,0.2-0.9,0.3-1.6,0.4c-0.7,0.1-1.5,0.2-2.2,0.2
			c-0.8,0-1.5-0.1-2.2-0.3c-0.7-0.2-1.3-0.5-1.8-1c-0.5-0.4-0.9-1-1.2-1.7c-0.3-0.7-0.5-1.6-0.5-2.6c0-1,0.1-1.9,0.4-2.6
			c0.3-0.7,0.7-1.4,1.2-1.9c0.5-0.5,1-0.9,1.7-1.1s1.3-0.4,1.9-0.4c0.7,0,1.3,0.1,1.9,0.3c0.6,0.2,1.1,0.5,1.5,1
			c0.4,0.5,0.8,1,1,1.7c0.2,0.7,0.4,1.6,0.4,2.5c0,0.4,0,0.7,0,1h-7.2c0,0.5,0.2,0.9,0.3,1.3s0.4,0.6,0.7,0.9
			c0.3,0.2,0.7,0.4,1.1,0.5C49.1,143.2,49.5,143.3,50,143.3z M48.9,136c-0.3,0-0.6,0.1-0.9,0.2c-0.3,0.1-0.5,0.3-0.7,0.5
			s-0.3,0.5-0.5,0.8c-0.1,0.3-0.2,0.6-0.2,0.9H51c0-0.3,0-0.6-0.1-0.9c-0.1-0.3-0.2-0.5-0.4-0.8s-0.4-0.4-0.6-0.5
			C49.6,136.1,49.3,136,48.9,136z"/>
		<path fill="#D01A23" d="M63,144.9c-0.3,0.1-0.8,0.3-1.2,0.4s-1,0.2-1.5,0.2c-0.8,0-1.5-0.1-2.2-0.3c-0.7-0.2-1.3-0.6-1.8-1
			c-0.5-0.5-0.9-1-1.2-1.7c-0.3-0.7-0.4-1.5-0.4-2.5c0-1.1,0.2-2,0.5-2.7c0.3-0.8,0.8-1.4,1.3-1.8c0.5-0.5,1.1-0.8,1.8-1
			s1.3-0.3,2-0.3c0.5,0,1,0,1.4,0.1c0.5,0.1,0.9,0.2,1.2,0.4v2.2c-0.3-0.1-0.7-0.3-1.1-0.3s-0.8-0.1-1.2-0.1s-0.8,0.1-1.2,0.2
			c-0.4,0.1-0.7,0.3-1,0.6c-0.3,0.3-0.5,0.7-0.7,1.1c-0.2,0.5-0.3,1-0.3,1.7c0,0.5,0.1,0.9,0.2,1.4s0.3,0.8,0.6,1.1
			c0.3,0.3,0.6,0.5,1,0.7c0.4,0.2,0.9,0.3,1.4,0.3c0.5,0,0.9,0,1.3-0.1c0.4-0.1,0.8-0.2,1.1-0.4V144.9z"/>
		<path fill="#D01A23" d="M66.6,135.7L66.6,135.7c0.2-0.2,0.4-0.4,0.6-0.7s0.5-0.4,0.8-0.6c0.3-0.2,0.7-0.3,1-0.4
			c0.4-0.1,0.8-0.2,1.2-0.2c0.4,0,0.8,0,1.2,0.1c0.4,0.1,0.7,0.2,1,0.4c0.3,0.2,0.6,0.4,0.8,0.7c0.2,0.3,0.4,0.7,0.6,1.1
			c0.1,0.2,0.1,0.5,0.2,0.8s0,0.6,0,1v7.1h-2.7v-6.7c0-0.3,0-0.5,0-0.8s-0.1-0.4-0.1-0.6c-0.1-0.3-0.3-0.6-0.6-0.7
			c-0.3-0.2-0.6-0.2-1-0.2c-0.5,0-1,0.1-1.5,0.4c-0.5,0.2-0.9,0.6-1.3,1.1v7.5h-2.7v-11h2.2L66.6,135.7z"/>
		<path fill="#D01A23" d="M86.3,139.7c0,0.9-0.1,1.6-0.4,2.4c-0.3,0.7-0.6,1.3-1.1,1.8c-0.5,0.5-1.1,0.9-1.7,1.2s-1.4,0.4-2.3,0.4
			c-0.9,0-1.6-0.1-2.3-0.4s-1.3-0.7-1.7-1.2c-0.5-0.5-0.8-1.1-1.1-1.8c-0.3-0.7-0.4-1.5-0.4-2.4s0.1-1.6,0.4-2.4s0.6-1.3,1.1-1.8
			c0.5-0.5,1.1-0.9,1.7-1.2c0.7-0.3,1.4-0.4,2.3-0.4c0.9,0,1.6,0.1,2.3,0.4s1.3,0.7,1.7,1.2c0.5,0.5,0.8,1.1,1.1,1.8
			S86.3,138.8,86.3,139.7z M83.5,139.7c0-0.6-0.1-1.1-0.2-1.5c-0.1-0.4-0.3-0.8-0.6-1.1c-0.2-0.3-0.5-0.5-0.9-0.7
			c-0.3-0.2-0.7-0.2-1.1-0.2c-0.4,0-0.8,0.1-1.1,0.2c-0.3,0.2-0.6,0.4-0.9,0.7s-0.4,0.7-0.6,1.1c-0.1,0.4-0.2,1-0.2,1.5
			c0,0.6,0.1,1.1,0.2,1.5c0.1,0.4,0.3,0.8,0.6,1.1c0.2,0.3,0.5,0.5,0.9,0.7c0.3,0.2,0.7,0.2,1.1,0.2s0.8-0.1,1.1-0.2
			c0.3-0.2,0.6-0.4,0.9-0.7c0.2-0.3,0.4-0.7,0.6-1.1C83.4,140.8,83.5,140.2,83.5,139.7z"/>
		<path fill="#D01A23" d="M87.6,145.1v-16.4h2.7v16.4H87.6z"/>
		<path fill="#D01A23" d="M102.6,139.7c0,0.9-0.1,1.6-0.4,2.4c-0.3,0.7-0.6,1.3-1.1,1.8c-0.5,0.5-1.1,0.9-1.7,1.2s-1.4,0.4-2.3,0.4
			c-0.9,0-1.6-0.1-2.3-0.4s-1.3-0.7-1.7-1.2c-0.5-0.5-0.8-1.1-1.1-1.8c-0.3-0.7-0.4-1.5-0.4-2.4s0.1-1.6,0.4-2.4s0.6-1.3,1.1-1.8
			c0.5-0.5,1.1-0.9,1.7-1.2c0.7-0.3,1.4-0.4,2.3-0.4c0.9,0,1.6,0.1,2.3,0.4s1.3,0.7,1.7,1.2c0.5,0.5,0.8,1.1,1.1,1.8
			S102.6,138.8,102.6,139.7z M99.9,139.7c0-0.6-0.1-1.1-0.2-1.5c-0.1-0.4-0.3-0.8-0.6-1.1c-0.2-0.3-0.5-0.5-0.9-0.7
			c-0.3-0.2-0.7-0.2-1.1-0.2c-0.4,0-0.8,0.1-1.1,0.2c-0.3,0.2-0.6,0.4-0.9,0.7s-0.4,0.7-0.6,1.1c-0.1,0.4-0.2,1-0.2,1.5
			c0,0.6,0.1,1.1,0.2,1.5c0.1,0.4,0.3,0.8,0.6,1.1c0.2,0.3,0.5,0.5,0.9,0.7c0.3,0.2,0.7,0.2,1.1,0.2s0.8-0.1,1.1-0.2
			c0.3-0.2,0.6-0.4,0.9-0.7c0.2-0.3,0.4-0.7,0.6-1.1C99.8,140.8,99.9,140.2,99.9,139.7z"/>
		<path fill="#D01A23" d="M111,145.4c0-0.2,0-0.3,0-0.6c0-0.2,0-0.4,0-0.6h0c-0.2,0.1-0.4,0.3-0.6,0.4s-0.5,0.3-0.7,0.4
			s-0.5,0.2-0.8,0.3c-0.3,0.1-0.6,0.1-1,0.1c-0.6,0-1.1-0.1-1.7-0.3c-0.6-0.2-1-0.5-1.5-1c-0.4-0.4-0.8-1-1-1.7
			c-0.3-0.7-0.4-1.5-0.4-2.5s0.1-1.9,0.4-2.6c0.3-0.7,0.6-1.4,1.1-1.9c0.4-0.5,1-0.9,1.5-1.1c0.6-0.3,1.2-0.4,1.8-0.4
			c0.7,0,1.3,0.1,1.8,0.4c0.5,0.3,0.9,0.6,1.3,1.1h0l0.1-1.2h2.4v11.2c0,0.6-0.1,1.2-0.2,1.7s-0.3,0.9-0.5,1.2
			c-0.2,0.4-0.5,0.8-0.9,1.1c-0.4,0.3-0.8,0.6-1.3,0.8c-0.5,0.2-1,0.4-1.6,0.5s-1.2,0.2-1.8,0.2c-0.4,0-0.7,0-1.1,0
			c-0.3,0-0.7-0.1-1-0.1c-0.3,0-0.6-0.1-0.8-0.2c-0.3-0.1-0.5-0.1-0.6-0.2V148c0.5,0.2,1,0.3,1.6,0.4c0.5,0.1,1.1,0.1,1.7,0.1
			c1.2,0,2.1-0.2,2.8-0.7c0.7-0.5,1-1.2,1-2.1V145.4z M108.6,143.3c0.3,0,0.5,0,0.8-0.1c0.2-0.1,0.5-0.2,0.7-0.3
			c0.2-0.1,0.4-0.2,0.5-0.4c0.2-0.1,0.3-0.3,0.4-0.4v-4.9c-0.3-0.3-0.6-0.6-1.1-0.8c-0.4-0.2-0.9-0.3-1.3-0.4c-0.2,0-0.3,0-0.5,0.1
			s-0.4,0.1-0.6,0.2s-0.4,0.2-0.5,0.4s-0.3,0.4-0.4,0.7c-0.1,0.3-0.2,0.6-0.3,1s-0.1,0.8-0.1,1.3c0,0.6,0.1,1,0.2,1.5
			c0.1,0.4,0.3,0.8,0.5,1.1s0.5,0.5,0.8,0.7C107.8,143.2,108.1,143.3,108.6,143.3z"/>
		<path fill="#D01A23" d="M115.4,128.8h2.8v2.9h-2.8V128.8z M115.5,134.2h2.7v11h-2.7V134.2z"/>
		<path fill="#D01A23" d="M126.5,144L126.5,144c-0.2,0.2-0.4,0.3-0.6,0.5c-0.2,0.2-0.5,0.3-0.7,0.5c-0.3,0.1-0.6,0.3-0.9,0.4
			c-0.3,0.1-0.7,0.1-1.1,0.1c-0.5,0-1-0.1-1.5-0.2c-0.5-0.2-0.8-0.4-1.2-0.7c-0.3-0.3-0.6-0.7-0.8-1.1s-0.3-0.9-0.3-1.5
			c0-0.6,0.1-1.1,0.3-1.6c0.2-0.5,0.5-0.9,0.9-1.2s0.8-0.6,1.4-0.7c0.5-0.2,1.1-0.3,1.8-0.3c0.5,0,0.9,0,1.3,0.1
			c0.4,0.1,0.8,0.1,1.1,0.2V138c0-0.3,0-0.5-0.1-0.7c-0.1-0.2-0.2-0.4-0.4-0.6s-0.4-0.3-0.8-0.4c-0.3-0.1-0.7-0.2-1.1-0.2
			c-0.5,0-1.1,0.1-1.6,0.2c-0.5,0.1-1.1,0.3-1.8,0.5v-2.1c0.6-0.2,1.1-0.4,1.8-0.6s1.3-0.2,1.9-0.2c0.8,0,1.5,0.1,2.1,0.3
			c0.6,0.2,1.1,0.5,1.5,0.8c0.4,0.3,0.7,0.7,0.9,1.2c0.2,0.5,0.3,1,0.3,1.5v4.1c0,0.7,0,1.3,0,1.9c0,0.5,0,1,0,1.4h-2.4L126.5,144z
			 M126.2,140.5c-0.3-0.1-0.6-0.1-0.9-0.2c-0.3,0-0.7-0.1-1-0.1c-0.7,0-1.2,0.1-1.6,0.4s-0.6,0.7-0.6,1.2c0,0.2,0,0.5,0.1,0.6
			c0.1,0.2,0.2,0.3,0.4,0.5c0.1,0.1,0.3,0.2,0.5,0.3c0.2,0.1,0.4,0.1,0.6,0.1c0.3,0,0.5,0,0.8-0.1s0.5-0.2,0.7-0.3
			c0.2-0.1,0.4-0.2,0.5-0.4s0.3-0.3,0.4-0.4V140.5z"/>
	</g>
</g>
<path fill-rule="evenodd" clip-rule="evenodd" fill="#CE1823" d="M86.3,55.2l-4.9-5c0,0,2.2-3.2,3.2-3c0.9,0.2,3.4,2.7,4.8,5.2
	C90.2,53.8,86.3,55.2,86.3,55.2z"/>
<path fill-rule="evenodd" clip-rule="evenodd" fill="#CE1823" d="M82.8,73.2l24.3-24.3c0,0,17.4,16.1,3.9,27.8S87.1,77.4,82.8,73.2z
	"/>
<path fill-rule="evenodd" clip-rule="evenodd" fill="#CE1823" d="M80.3,69.9l11-10.3l-2.8-2.3c0,0-7.8-1.6-9.6-9.6
	c-1.8-8.1-6.2,3.7-6,4.8c0.2,0.9-1.3,4,1.6,10.6S80.3,69.9,80.3,69.9z"/>
<path fill-rule="evenodd" clip-rule="evenodd" fill="#CE1823" d="M103.9,46.9L93.8,57.2l-2.1-2.8c0,0-1.3-7.6-8.9-9.7
	c-7.7-2.1,3.7-5.9,4.7-5.6c0.9,0.2,3.9-1.1,10.1,1.9S103.9,46.9,103.9,46.9z"/>
<path fill-rule="evenodd" clip-rule="evenodd" fill="none" stroke="#CE1822" stroke-width="3" stroke-miterlimit="10" d="M76.4,41.8
	l-7.2-6c-1.4-1.1-3.2-1.7-5-1.7l-0.5,0c-3.7,0.1-7,2.2-8.7,5.4l-0.6,1.1c-0.1,0.2-0.2,0.5-0.2,0.7v0c0,1.2,0.3,2.4,0.8,3.5
	c0.3,0.7,0.7,1.4,1.2,2l8.3,10c1.1,1.4,1.8,3.1,2.1,4.9l0.1,0.9c0,0.3-0.1,0.7-0.1,1v0c-0.6,2.3-2.5,4.1-4.9,4.5h0
	c-0.2,0-0.5,0-0.7-0.1l-6.5-3.8c-0.7-0.4-1.3-0.9-1.8-1.5L52,62"/>
</svg>
