<?xml version="1.0" encoding="utf-8"?>
<!-- Generator: Adobe Illustrator 18.0.0, SVG Export Plug-In . SVG Version: 6.00 Build 0)  -->
<!DOCTYPE svg PUBLIC "-//W3C//DTD SVG 1.1//EN" "http://www.w3.org/Graphics/SVG/1.1/DTD/svg11.dtd">
<svg version="1.1" id="Camada_1" xmlns="http://www.w3.org/2000/svg" xmlns:xlink="http://www.w3.org/1999/xlink" x="0px" y="0px"
	 viewBox="0 0 88 135.8" enable-background="new 0 0 88 135.8" xml:space="preserve">
<circle fill="#F44856" cx="44" cy="44" r="44"/>
<circle fill="#FFFFFF" cx="44" cy="44" r="41"/>
<g>
	<path fill="#FFFFFF" d="M14.1,109.3c-0.2,0-0.3,0-0.5,0s-0.3,0-0.5,0v4.2h-2v-10.7h3.1c0.5,0,1,0,1.4,0.1c0.4,0,0.7,0.1,1,0.2
		c0.7,0.2,1.3,0.6,1.7,1.1c0.4,0.5,0.6,1.1,0.6,1.9c0,0.5-0.1,1-0.3,1.4c-0.2,0.4-0.5,0.8-0.9,1c-0.4,0.3-0.9,0.5-1.5,0.7
		S14.9,109.3,14.1,109.3z M13.1,107.6c0.1,0,0.3,0,0.4,0s0.4,0,0.5,0c0.5,0,1,0,1.3-0.1c0.4-0.1,0.6-0.2,0.9-0.4
		c0.2-0.2,0.4-0.3,0.5-0.6c0.1-0.2,0.1-0.5,0.1-0.7c0-0.3-0.1-0.6-0.2-0.8c-0.1-0.2-0.4-0.4-0.8-0.5c-0.2-0.1-0.4-0.1-0.7-0.1
		c-0.3,0-0.6,0-1,0h-1.1V107.6z"/>
	<path fill="#FFFFFF" d="M24.5,107.2h-0.2c-0.6,0-1.1,0.1-1.5,0.3c-0.4,0.2-0.8,0.4-1,0.8v5.2h-1.9v-7.7h1.6l0.2,1.1h0
		c0.2-0.4,0.5-0.7,0.9-0.9c0.4-0.2,0.9-0.3,1.4-0.3c0.2,0,0.4,0,0.5,0V107.2z"/>
	<path fill="#FFFFFF" d="M28.8,112.1c0.4,0,0.8,0,1.1-0.1c0.4-0.1,0.8-0.2,1.2-0.3v1.5c-0.2,0.1-0.6,0.2-1.1,0.3s-1,0.1-1.6,0.1
		c-0.5,0-1.1-0.1-1.6-0.2c-0.5-0.1-0.9-0.4-1.3-0.7c-0.4-0.3-0.7-0.7-0.9-1.2c-0.2-0.5-0.3-1.1-0.3-1.8c0-0.7,0.1-1.3,0.3-1.8
		c0.2-0.5,0.5-1,0.8-1.3c0.3-0.3,0.7-0.6,1.2-0.8c0.4-0.2,0.9-0.3,1.4-0.3c0.5,0,0.9,0.1,1.4,0.2c0.4,0.1,0.8,0.4,1.1,0.7
		s0.5,0.7,0.7,1.2c0.2,0.5,0.3,1.1,0.3,1.8c0,0.3,0,0.5,0,0.7h-5.1c0,0.4,0.1,0.7,0.2,0.9c0.1,0.3,0.3,0.5,0.5,0.6
		c0.2,0.2,0.5,0.3,0.8,0.3C28.2,112.1,28.5,112.1,28.8,112.1z M28.1,107c-0.2,0-0.5,0-0.6,0.1c-0.2,0.1-0.3,0.2-0.5,0.4
		s-0.2,0.3-0.3,0.5c-0.1,0.2-0.1,0.4-0.2,0.6h3c0-0.2,0-0.4-0.1-0.6c-0.1-0.2-0.2-0.4-0.3-0.5c-0.1-0.2-0.3-0.3-0.4-0.4
		S28.3,107,28.1,107z"/>
	<path fill="#FFFFFF" d="M36.3,113.6c-0.4,0-0.8-0.1-1.1-0.2c-0.3-0.2-0.6-0.3-0.8-0.6h0c0,0.1,0,0.3,0,0.5s0,0.4,0,0.6v3.2h-1.9
		v-11.4h1.7l0.1,0.9h0c0.2-0.3,0.5-0.6,0.9-0.8c0.4-0.2,0.8-0.3,1.3-0.3c0.4,0,0.8,0.1,1.2,0.2s0.8,0.4,1.1,0.7
		c0.3,0.3,0.6,0.7,0.8,1.2c0.2,0.5,0.3,1.1,0.3,1.8c0,0.7-0.1,1.3-0.3,1.9c-0.2,0.5-0.5,1-0.8,1.3c-0.3,0.3-0.7,0.6-1.1,0.8
		S36.7,113.6,36.3,113.6z M36,107c-0.3,0-0.6,0.1-0.9,0.2c-0.3,0.2-0.6,0.4-0.8,0.6v3.4c0.1,0.1,0.2,0.2,0.3,0.3
		c0.1,0.1,0.2,0.2,0.4,0.2c0.1,0.1,0.3,0.1,0.5,0.2s0.3,0.1,0.5,0.1c0.3,0,0.6-0.1,0.8-0.2c0.2-0.1,0.4-0.3,0.6-0.5
		c0.2-0.2,0.3-0.5,0.3-0.8c0.1-0.3,0.1-0.7,0.1-1.1c0-0.4,0-0.8-0.1-1.1c-0.1-0.3-0.2-0.6-0.4-0.8c-0.2-0.2-0.3-0.4-0.5-0.5
		S36.3,107,36,107z"/>
	<path fill="#FFFFFF" d="M45.1,112.6L45.1,112.6c-0.1,0.1-0.3,0.2-0.4,0.3c-0.1,0.1-0.3,0.2-0.5,0.3c-0.2,0.1-0.4,0.2-0.6,0.3
		c-0.2,0.1-0.5,0.1-0.8,0.1c-0.4,0-0.7-0.1-1-0.2c-0.3-0.1-0.6-0.3-0.8-0.5c-0.2-0.2-0.4-0.5-0.5-0.8c-0.1-0.3-0.2-0.6-0.2-1
		c0-0.4,0.1-0.8,0.2-1.1c0.2-0.3,0.4-0.6,0.6-0.8s0.6-0.4,1-0.5c0.4-0.1,0.8-0.2,1.3-0.2c0.3,0,0.6,0,0.9,0.1s0.5,0.1,0.7,0.2v-0.3
		c0-0.2,0-0.4-0.1-0.5c-0.1-0.2-0.2-0.3-0.3-0.4c-0.1-0.1-0.3-0.2-0.5-0.3c-0.2-0.1-0.5-0.1-0.8-0.1c-0.4,0-0.8,0-1.1,0.1
		c-0.4,0.1-0.8,0.2-1.2,0.4V106c0.4-0.2,0.8-0.3,1.2-0.4c0.4-0.1,0.9-0.1,1.4-0.1c0.6,0,1.1,0.1,1.5,0.2c0.4,0.1,0.8,0.3,1.1,0.6
		c0.3,0.2,0.5,0.5,0.6,0.9c0.1,0.3,0.2,0.7,0.2,1.1v2.9c0,0.5,0,1,0,1.3s0,0.7,0,1h-1.7L45.1,112.6z M45,110.1
		c-0.2,0-0.4-0.1-0.6-0.1c-0.2,0-0.5-0.1-0.7-0.1c-0.5,0-0.8,0.1-1.1,0.3s-0.4,0.5-0.4,0.8c0,0.2,0,0.3,0.1,0.5
		c0.1,0.1,0.1,0.2,0.2,0.3c0.1,0.1,0.2,0.1,0.4,0.2c0.1,0,0.3,0.1,0.4,0.1c0.2,0,0.4,0,0.5-0.1c0.2-0.1,0.3-0.1,0.5-0.2
		c0.1-0.1,0.3-0.2,0.4-0.3s0.2-0.2,0.3-0.3V110.1z"/>
	<path fill="#FFFFFF" d="M52.8,107.2h-0.2c-0.6,0-1.1,0.1-1.5,0.3c-0.4,0.2-0.8,0.4-1,0.8v5.2h-1.9v-7.7h1.6l0.2,1.1h0
		c0.2-0.4,0.5-0.7,0.9-0.9c0.4-0.2,0.9-0.3,1.4-0.3c0.2,0,0.4,0,0.5,0V107.2z"/>
	<path fill="#FFFFFF" d="M57.1,112.1c0.4,0,0.8,0,1.2-0.1c0.4-0.1,0.8-0.2,1.2-0.3v1.5c-0.2,0.1-0.6,0.2-1.1,0.3
		c-0.5,0.1-1,0.1-1.6,0.1c-0.5,0-1.1-0.1-1.6-0.2c-0.5-0.1-0.9-0.4-1.3-0.7c-0.4-0.3-0.7-0.7-0.9-1.2s-0.3-1.1-0.3-1.8
		c0-0.7,0.1-1.3,0.3-1.8c0.2-0.5,0.5-1,0.8-1.3c0.3-0.3,0.7-0.6,1.2-0.8c0.4-0.2,0.9-0.3,1.4-0.3c0.5,0,0.9,0.1,1.4,0.2
		c0.4,0.1,0.8,0.4,1.1,0.7s0.5,0.7,0.7,1.2s0.3,1.1,0.3,1.8c0,0.3,0,0.5,0,0.7h-5.1c0,0.4,0.1,0.7,0.2,0.9c0.1,0.3,0.3,0.5,0.5,0.6
		c0.2,0.2,0.5,0.3,0.8,0.3C56.4,112.1,56.7,112.1,57.1,112.1z M56.3,107c-0.2,0-0.5,0-0.6,0.1c-0.2,0.1-0.3,0.2-0.5,0.4
		s-0.2,0.3-0.3,0.5s-0.1,0.4-0.2,0.6h3c0-0.2,0-0.4-0.1-0.6c-0.1-0.2-0.2-0.4-0.3-0.5c-0.1-0.2-0.3-0.3-0.4-0.4
		C56.8,107,56.5,107,56.3,107z"/>
	<path fill="#FFFFFF" d="M60.6,108.6h3.5v1.7h-3.5V108.6z"/>
	<path fill="#FFFFFF" d="M68.7,111.2c0-0.2,0-0.3-0.1-0.4s-0.2-0.2-0.4-0.3c-0.2-0.1-0.3-0.1-0.5-0.2c-0.2-0.1-0.4-0.1-0.6-0.2
		c-0.3-0.1-0.5-0.2-0.8-0.3c-0.3-0.1-0.5-0.2-0.7-0.4c-0.2-0.2-0.3-0.4-0.5-0.6s-0.2-0.5-0.2-0.9c0-0.4,0.1-0.8,0.2-1.1
		c0.2-0.3,0.4-0.6,0.6-0.8c0.3-0.2,0.6-0.4,0.9-0.5c0.3-0.1,0.7-0.2,1.1-0.2c0.5,0,0.9,0,1.3,0.1s0.8,0.2,1.1,0.3v1.5
		c-0.2-0.1-0.4-0.1-0.6-0.2s-0.4-0.1-0.6-0.1c-0.2,0-0.4-0.1-0.6-0.1c-0.2,0-0.4,0-0.6,0c-0.2,0-0.4,0-0.6,0.1s-0.3,0.1-0.4,0.2
		c-0.1,0.1-0.2,0.2-0.2,0.2c0,0.1-0.1,0.2-0.1,0.3c0,0.2,0,0.3,0.1,0.4c0.1,0.1,0.2,0.2,0.4,0.3s0.3,0.1,0.5,0.2
		c0.2,0,0.4,0.1,0.5,0.1c0.3,0.1,0.5,0.1,0.8,0.2c0.3,0.1,0.5,0.2,0.7,0.4s0.4,0.4,0.5,0.6s0.2,0.6,0.2,1c0,0.4-0.1,0.8-0.2,1.1
		c-0.2,0.3-0.4,0.6-0.7,0.8c-0.3,0.2-0.7,0.4-1.1,0.5s-0.9,0.2-1.4,0.2c-0.5,0-0.9,0-1.3-0.1c-0.4-0.1-0.7-0.2-1-0.3v-1.5
		c0.4,0.2,0.8,0.3,1.1,0.3s0.7,0.1,1,0.1c0.2,0,0.5,0,0.7-0.1c0.2,0,0.4-0.1,0.5-0.2c0.1-0.1,0.3-0.2,0.3-0.3S68.7,111.3,68.7,111.2
		z"/>
	<path fill="#FFFFFF" d="M75.4,112.1c0.4,0,0.8,0,1.2-0.1c0.4-0.1,0.8-0.2,1.2-0.3v1.5c-0.2,0.1-0.6,0.2-1.1,0.3
		c-0.5,0.1-1,0.1-1.6,0.1c-0.5,0-1.1-0.1-1.6-0.2c-0.5-0.1-0.9-0.4-1.3-0.7c-0.4-0.3-0.7-0.7-0.9-1.2s-0.3-1.1-0.3-1.8
		c0-0.7,0.1-1.3,0.3-1.8c0.2-0.5,0.5-1,0.8-1.3c0.3-0.3,0.7-0.6,1.2-0.8c0.4-0.2,0.9-0.3,1.4-0.3c0.5,0,0.9,0.1,1.4,0.2
		c0.4,0.1,0.8,0.4,1.1,0.7s0.5,0.7,0.7,1.2s0.3,1.1,0.3,1.8c0,0.3,0,0.5,0,0.7h-5.1c0,0.4,0.1,0.7,0.2,0.9c0.1,0.3,0.3,0.5,0.5,0.6
		c0.2,0.2,0.5,0.3,0.8,0.3C74.7,112.1,75,112.1,75.4,112.1z M74.6,107c-0.2,0-0.5,0-0.6,0.1c-0.2,0.1-0.3,0.2-0.5,0.4
		s-0.2,0.3-0.3,0.5s-0.1,0.4-0.2,0.6h3c0-0.2,0-0.4-0.1-0.6c-0.1-0.2-0.2-0.4-0.3-0.5c-0.1-0.2-0.3-0.3-0.4-0.4
		C75,107,74.8,107,74.6,107z"/>
	<path fill="#FFFFFF" d="M6.2,129.1c-0.4,0-0.8-0.1-1.1-0.2c-0.3-0.2-0.6-0.3-0.8-0.6h0c0,0.1,0,0.3,0,0.5s0,0.4,0,0.6v3.2H2.4
		v-11.4H4l0.1,0.9h0c0.2-0.3,0.5-0.6,0.9-0.8c0.4-0.2,0.8-0.3,1.3-0.3c0.4,0,0.8,0.1,1.2,0.2s0.8,0.4,1.1,0.7
		c0.3,0.3,0.6,0.7,0.8,1.2c0.2,0.5,0.3,1.1,0.3,1.8c0,0.7-0.1,1.3-0.3,1.9c-0.2,0.5-0.5,1-0.8,1.3c-0.3,0.3-0.7,0.6-1.1,0.8
		S6.7,129.1,6.2,129.1z M6,122.5c-0.3,0-0.6,0.1-0.9,0.2c-0.3,0.2-0.6,0.4-0.8,0.6v3.4c0.1,0.1,0.2,0.2,0.3,0.3
		c0.1,0.1,0.2,0.2,0.4,0.2c0.1,0.1,0.3,0.1,0.5,0.2s0.3,0.1,0.5,0.1c0.3,0,0.6-0.1,0.8-0.2c0.2-0.1,0.4-0.3,0.6-0.5
		c0.2-0.2,0.3-0.5,0.3-0.8c0.1-0.3,0.1-0.7,0.1-1.1c0-0.4,0-0.8-0.1-1.1c-0.1-0.3-0.2-0.6-0.4-0.8c-0.2-0.2-0.3-0.4-0.5-0.5
		S6.2,122.5,6,122.5z"/>
	<path fill="#FFFFFF" d="M15.1,128.1L15.1,128.1c-0.1,0.1-0.3,0.2-0.4,0.3c-0.1,0.1-0.3,0.2-0.5,0.3c-0.2,0.1-0.4,0.2-0.6,0.3
		c-0.2,0.1-0.5,0.1-0.8,0.1c-0.4,0-0.7-0.1-1-0.2c-0.3-0.1-0.6-0.3-0.8-0.5c-0.2-0.2-0.4-0.5-0.5-0.8c-0.1-0.3-0.2-0.6-0.2-1
		c0-0.4,0.1-0.8,0.2-1.1c0.2-0.3,0.4-0.6,0.6-0.8s0.6-0.4,1-0.5c0.4-0.1,0.8-0.2,1.3-0.2c0.3,0,0.6,0,0.9,0.1s0.5,0.1,0.7,0.2v-0.3
		c0-0.2,0-0.4-0.1-0.5c-0.1-0.2-0.2-0.3-0.3-0.4c-0.1-0.1-0.3-0.2-0.5-0.3c-0.2-0.1-0.5-0.1-0.8-0.1c-0.4,0-0.8,0-1.1,0.1
		c-0.4,0.1-0.8,0.2-1.2,0.4v-1.5c0.4-0.2,0.8-0.3,1.2-0.4c0.4-0.1,0.9-0.1,1.4-0.1c0.6,0,1.1,0.1,1.5,0.2c0.4,0.1,0.8,0.3,1.1,0.6
		c0.3,0.2,0.5,0.5,0.6,0.9s0.2,0.7,0.2,1.1v2.9c0,0.5,0,1,0,1.3s0,0.7,0,1h-1.7L15.1,128.1z M14.9,125.6c-0.2,0-0.4-0.1-0.6-0.1
		c-0.2,0-0.5-0.1-0.7-0.1c-0.5,0-0.8,0.1-1.1,0.3s-0.4,0.5-0.4,0.8c0,0.2,0,0.3,0.1,0.5c0.1,0.1,0.1,0.2,0.2,0.3
		c0.1,0.1,0.2,0.1,0.4,0.2c0.1,0,0.3,0.1,0.4,0.1c0.2,0,0.4,0,0.5-0.1c0.2-0.1,0.3-0.1,0.5-0.2s0.3-0.2,0.4-0.3s0.2-0.2,0.3-0.3
		V125.6z"/>
	<path fill="#FFFFFF" d="M22.7,122.7h-0.2c-0.6,0-1.1,0.1-1.5,0.3c-0.4,0.2-0.8,0.4-1,0.8v5.2h-1.9v-7.7h1.6l0.2,1.1h0
		c0.2-0.4,0.5-0.7,0.9-0.9c0.4-0.2,0.9-0.3,1.4-0.3c0.2,0,0.4,0,0.5,0V122.7z"/>
	<path fill="#FFFFFF" d="M27.6,128.1L27.6,128.1c-0.1,0.1-0.3,0.2-0.4,0.3c-0.1,0.1-0.3,0.2-0.5,0.3c-0.2,0.1-0.4,0.2-0.6,0.3
		c-0.2,0.1-0.5,0.1-0.8,0.1c-0.4,0-0.7-0.1-1-0.2c-0.3-0.1-0.6-0.3-0.8-0.5c-0.2-0.2-0.4-0.5-0.5-0.8c-0.1-0.3-0.2-0.6-0.2-1
		c0-0.4,0.1-0.8,0.2-1.1c0.2-0.3,0.4-0.6,0.6-0.8s0.6-0.4,1-0.5c0.4-0.1,0.8-0.2,1.3-0.2c0.3,0,0.6,0,0.9,0.1s0.5,0.1,0.7,0.2v-0.3
		c0-0.2,0-0.4-0.1-0.5c-0.1-0.2-0.2-0.3-0.3-0.4c-0.1-0.1-0.3-0.2-0.5-0.3c-0.2-0.1-0.5-0.1-0.8-0.1c-0.4,0-0.8,0-1.1,0.1
		c-0.4,0.1-0.8,0.2-1.2,0.4v-1.5c0.4-0.2,0.8-0.3,1.2-0.4c0.4-0.1,0.9-0.1,1.4-0.1c0.6,0,1.1,0.1,1.5,0.2c0.4,0.1,0.8,0.3,1.1,0.6
		c0.3,0.2,0.5,0.5,0.6,0.9s0.2,0.7,0.2,1.1v2.9c0,0.5,0,1,0,1.3s0,0.7,0,1h-1.7L27.6,128.1z M27.4,125.6c-0.2,0-0.4-0.1-0.6-0.1
		c-0.2,0-0.5-0.1-0.7-0.1c-0.5,0-0.8,0.1-1.1,0.3s-0.4,0.5-0.4,0.8c0,0.2,0,0.3,0.1,0.5c0.1,0.1,0.1,0.2,0.2,0.3
		c0.1,0.1,0.2,0.1,0.4,0.2c0.1,0,0.3,0.1,0.4,0.1c0.2,0,0.4,0,0.5-0.1c0.2-0.1,0.3-0.1,0.5-0.2s0.3-0.2,0.4-0.3s0.2-0.2,0.3-0.3
		V125.6z"/>
	<path fill="#FFFFFF" d="M40.6,125c0,0.6-0.1,1.2-0.3,1.7c-0.2,0.5-0.4,0.9-0.8,1.3c-0.3,0.4-0.7,0.6-1.2,0.8s-1,0.3-1.6,0.3
		c-0.6,0-1.2-0.1-1.6-0.3c-0.5-0.2-0.9-0.5-1.2-0.8c-0.3-0.4-0.6-0.8-0.8-1.3c-0.2-0.5-0.3-1.1-0.3-1.7s0.1-1.2,0.3-1.7
		c0.2-0.5,0.4-0.9,0.8-1.3c0.3-0.4,0.7-0.6,1.2-0.8s1-0.3,1.6-0.3c0.6,0,1.2,0.1,1.6,0.3c0.5,0.2,0.9,0.5,1.2,0.8
		c0.3,0.4,0.6,0.8,0.8,1.3C40.5,123.9,40.6,124.4,40.6,125z M38.6,125c0-0.4,0-0.8-0.1-1.1c-0.1-0.3-0.2-0.6-0.4-0.8
		s-0.4-0.4-0.6-0.5s-0.5-0.2-0.8-0.2c-0.3,0-0.5,0.1-0.8,0.2s-0.4,0.3-0.6,0.5s-0.3,0.5-0.4,0.8c-0.1,0.3-0.1,0.7-0.1,1.1
		s0,0.8,0.1,1.1c0.1,0.3,0.2,0.6,0.4,0.8c0.2,0.2,0.4,0.4,0.6,0.5s0.5,0.2,0.8,0.2s0.5-0.1,0.8-0.2c0.2-0.1,0.4-0.3,0.6-0.5
		c0.2-0.2,0.3-0.5,0.4-0.8C38.6,125.8,38.6,125.5,38.6,125z"/>
	<path fill="#FFFFFF" d="M48,127.6c0.4,0,0.8,0,1.2-0.1c0.4-0.1,0.8-0.2,1.2-0.3v1.5c-0.2,0.1-0.6,0.2-1.1,0.3
		c-0.5,0.1-1,0.1-1.6,0.1c-0.5,0-1.1-0.1-1.6-0.2c-0.5-0.1-0.9-0.4-1.3-0.7c-0.4-0.3-0.7-0.7-0.9-1.2c-0.2-0.5-0.3-1.1-0.3-1.8
		c0-0.7,0.1-1.3,0.3-1.8c0.2-0.5,0.5-1,0.8-1.3c0.3-0.3,0.7-0.6,1.2-0.8c0.4-0.2,0.9-0.3,1.4-0.3c0.5,0,0.9,0.1,1.4,0.2
		c0.4,0.1,0.8,0.4,1.1,0.7s0.5,0.7,0.7,1.2s0.3,1.1,0.3,1.8c0,0.3,0,0.5,0,0.7h-5.1c0,0.4,0.1,0.7,0.2,0.9c0.1,0.3,0.3,0.5,0.5,0.6
		c0.2,0.2,0.5,0.3,0.8,0.3C47.3,127.6,47.6,127.6,48,127.6z M47.2,122.5c-0.2,0-0.5,0-0.6,0.1c-0.2,0.1-0.3,0.2-0.5,0.4
		s-0.2,0.3-0.3,0.5s-0.1,0.4-0.2,0.6h3c0-0.2,0-0.4-0.1-0.6c-0.1-0.2-0.2-0.4-0.3-0.5c-0.1-0.2-0.3-0.3-0.4-0.4
		C47.6,122.5,47.4,122.5,47.2,122.5z"/>
	<path fill="#FFFFFF" d="M54.7,126.2l-2,2.7h-2.2l3.1-3.9l-2.9-3.8H53l1.8,2.6l1.8-2.6h2.2l-3,3.8l3,4h-2.2L54.7,126.2z"/>
	<path fill="#FFFFFF" d="M63.8,128.1L63.8,128.1c-0.1,0.1-0.3,0.2-0.4,0.3c-0.1,0.1-0.3,0.2-0.5,0.3c-0.2,0.1-0.4,0.2-0.6,0.3
		c-0.2,0.1-0.5,0.1-0.8,0.1c-0.4,0-0.7-0.1-1-0.2c-0.3-0.1-0.6-0.3-0.8-0.5c-0.2-0.2-0.4-0.5-0.5-0.8c-0.1-0.3-0.2-0.6-0.2-1
		c0-0.4,0.1-0.8,0.2-1.1c0.2-0.3,0.4-0.6,0.6-0.8s0.6-0.4,1-0.5c0.4-0.1,0.8-0.2,1.3-0.2c0.3,0,0.6,0,0.9,0.1s0.5,0.1,0.7,0.2v-0.3
		c0-0.2,0-0.4-0.1-0.5c-0.1-0.2-0.2-0.3-0.3-0.4c-0.1-0.1-0.3-0.2-0.5-0.3c-0.2-0.1-0.5-0.1-0.8-0.1c-0.4,0-0.8,0-1.2,0.1
		c-0.4,0.1-0.8,0.2-1.2,0.4v-1.5c0.4-0.2,0.8-0.3,1.2-0.4s0.9-0.1,1.4-0.1c0.6,0,1.1,0.1,1.5,0.2c0.4,0.1,0.8,0.3,1.1,0.6
		c0.3,0.2,0.5,0.5,0.6,0.9c0.1,0.3,0.2,0.7,0.2,1.1v2.9c0,0.5,0,1,0,1.3s0,0.7,0,1h-1.7L63.8,128.1z M63.6,125.6
		c-0.2,0-0.4-0.1-0.6-0.1c-0.2,0-0.5-0.1-0.7-0.1c-0.5,0-0.8,0.1-1.1,0.3s-0.4,0.5-0.4,0.8c0,0.2,0,0.3,0.1,0.5
		c0.1,0.1,0.1,0.2,0.2,0.3c0.1,0.1,0.2,0.1,0.4,0.2c0.1,0,0.3,0.1,0.4,0.1c0.2,0,0.4,0,0.5-0.1c0.2-0.1,0.3-0.1,0.5-0.2
		c0.1-0.1,0.3-0.2,0.4-0.3s0.2-0.2,0.3-0.3V125.6z"/>
	<path fill="#FFFFFF" d="M76.8,124.2c0-0.2,0-0.3,0-0.5s0-0.3-0.1-0.4c-0.1-0.2-0.2-0.4-0.3-0.6c-0.2-0.1-0.4-0.2-0.7-0.2
		c-0.2,0-0.3,0-0.5,0.1c-0.2,0-0.4,0.1-0.5,0.2s-0.3,0.2-0.5,0.3s-0.3,0.3-0.4,0.4v5.3h-1.9v-4.7c0-0.2,0-0.3,0-0.5s0-0.3-0.1-0.4
		c-0.1-0.2-0.2-0.4-0.3-0.6c-0.2-0.1-0.4-0.2-0.7-0.2c-0.2,0-0.3,0-0.5,0.1s-0.3,0.1-0.5,0.2c-0.2,0.1-0.3,0.2-0.5,0.3
		c-0.2,0.1-0.3,0.3-0.4,0.4v5.3h-1.9v-7.7h1.6l0.2,1.1h0c0.1-0.2,0.3-0.3,0.4-0.5s0.4-0.3,0.6-0.4c0.2-0.1,0.5-0.2,0.7-0.3
		c0.3-0.1,0.5-0.1,0.8-0.1c0.5,0,1,0.1,1.4,0.3c0.4,0.2,0.7,0.6,0.9,1.1h0c0.1-0.2,0.3-0.4,0.5-0.6c0.2-0.2,0.4-0.3,0.6-0.4
		c0.2-0.1,0.5-0.2,0.7-0.3s0.5-0.1,0.8-0.1c0.6,0,1,0.1,1.4,0.3c0.4,0.2,0.7,0.5,0.9,0.9c0.1,0.1,0.1,0.2,0.1,0.3s0.1,0.3,0.1,0.4
		c0,0.1,0,0.3,0.1,0.5s0,0.4,0,0.6v4.8h-1.9V124.2z"/>
	<path fill="#FFFFFF" d="M83.9,127.6c0.4,0,0.8,0,1.2-0.1c0.4-0.1,0.8-0.2,1.2-0.3v1.5c-0.2,0.1-0.6,0.2-1.1,0.3
		c-0.5,0.1-1,0.1-1.6,0.1c-0.5,0-1.1-0.1-1.6-0.2c-0.5-0.1-0.9-0.4-1.3-0.7c-0.4-0.3-0.7-0.7-0.9-1.2s-0.3-1.1-0.3-1.8
		c0-0.7,0.1-1.3,0.3-1.8c0.2-0.5,0.5-1,0.8-1.3c0.3-0.3,0.7-0.6,1.2-0.8c0.4-0.2,0.9-0.3,1.4-0.3c0.5,0,0.9,0.1,1.4,0.2
		c0.4,0.1,0.8,0.4,1.1,0.7s0.5,0.7,0.7,1.2s0.3,1.1,0.3,1.8c0,0.3,0,0.5,0,0.7h-5.1c0,0.4,0.1,0.7,0.2,0.9c0.1,0.3,0.3,0.5,0.5,0.6
		c0.2,0.2,0.5,0.3,0.8,0.3C83.3,127.6,83.6,127.6,83.9,127.6z M83.2,122.5c-0.2,0-0.5,0-0.6,0.1c-0.2,0.1-0.3,0.2-0.5,0.4
		s-0.2,0.3-0.3,0.5s-0.1,0.4-0.2,0.6h3c0-0.2,0-0.4-0.1-0.6c-0.1-0.2-0.2-0.4-0.3-0.5c-0.1-0.2-0.3-0.3-0.4-0.4
		C83.6,122.5,83.4,122.5,83.2,122.5z"/>
</g>
<g>
	<path fill-rule="evenodd" clip-rule="evenodd" fill="#D90000" d="M52.5,47.4c0.3-2.3,0.4-4.7,0.6-7.1c0.1-1.3,0.1-4.5,0.8-4.9
		c1.8-0.8,1.5,4.4,1.8,7.5c0.2,1.4,0.4,5.9,0.8,6.7c0.1-1.1-0.1-4,0.7-4.4c1-0.5,1.9,1.8,2.1,2.5l1.5-5.6c0.2-0.8,0.3-1.1,1.3-1
		c0.9,1.2,1.6,5.5,2.2,7c0.3,0.7-0.3-0.7,0.1,0.2l0.1,0.2c0.7-1.6,1.7-1.1,5.3-1.1c2,0,1.9,0.2,2.8-0.4c0.8-0.6,1.7-0.4,2.1,0.2
		c0.6,0.7,0.3,1.8-0.2,2.2c-1.1,1-1.8-0.1-2.3-0.3c-0.5-0.2-5.5-0.2-6.2,0c-0.8,0.9-0.9,2.3-2.3,2.1c-1-1.2-1-4.5-1.9-6
		c-0.5,1-1.1,4.5-1.4,5.1c-0.3,0.5,0,0.3-0.5,0.5c-1,0.4-1.3-1.1-1.7-1.8c-0.3,1.7-0.4,4.6-0.5,6.4c-0.2,3.5,0.1,5.3-1.7,4.6
		c-0.4-1.2-0.8-6.1-0.9-7.7c-0.2-2.6-0.6-5.1-0.8-7.7c-0.6,1.6,0,5.1-1,5.6c-0.8,0.4-1.9-1.5-2.2-2.1l-0.6,0.6
		c-0.3,0.3-0.2,0.2-0.6,0.3l-8.2,0c-1.4,0.1-0.7,0.9-2.1,0.8c-1.8-0.1-1.8-2.7-0.2-3.1c1.5-0.4,0.7,0.7,2.8,0.7c2.4,0,4.9,0,7.3,0
		C51.1,44.5,52,46.8,52.5,47.4L52.5,47.4z M51.2,65.1c0.6,0.5,5.2,3.8,5.6,3.8c0.5,0,5.6-3.8,6.3-4.3c4.1-3.4,7.5-6.1,10.6-10.8
		c9.9-14.8,1.1-25.8-10.6-22.8c-2.1,0.5-3.6,1.5-5.1,2.9c-0.9,0.9-0.8,1-1.4,1.5c-0.8-1.4-2.1-2.5-3.7-3.3c-1.2-0.6-2.6-1.1-4-1.3
		c-5-0.6-9.1,1.1-11.5,4.4C34.2,39.9,36,47,38.7,51.9C42.6,57.8,45.4,60.6,51.2,65.1L51.2,65.1z"/>
	<path fill="#D90000" d="M41.5,64.7c-0.8-1-5.3,0-6.8-0.4l-0.6-2.5c0-0.2-0.1-0.6-0.1-0.8c-0.2-0.6-0.1-0.3-0.3-0.5l-0.1-1
		c0.9,0,2.6,0.2,3.3-0.2c0.7-0.4,0.9-1.7,0.2-2.3c-0.7-0.6-5-0.3-6.4-0.4c-1.4,0-5.6-0.4-6.3,0.4c-0.6,0.7-0.5,1.9,0.4,2.3
		c0.7,0.4,2.3,0.1,3.2,0.2c0,0.6-0.3,1.9-0.6,2.3c-12.1-4.2-15.5-19.5-5.2-24.1c1.2,0.8,1.7,1.4,3.7,1.4l0.5,10.5l1.1,0l0.1,1.1
		l1.7,0.1c0.1,1.3,0,2.9,1.4,2.8c1.7-0.1,1.2-1.6,1.3-3l1.5-0.1l0-1.1l0.7-0.3c0-6.7-0.9-15.2-1-22.1l-1,0c0-0.2,0-0.3,0-0.5
		C32,26,32.1,26.2,32,26l-5.2,0.2c-0.8,0.1-0.6,0.1-0.6,1l-0.8,0.2l0.1,2.2c-3.2,0.2-3.6,2.6-4.4,3c-2.2,1.1-2.9,1.2-4.6,2.7
		c-8,6.8-6.5,18.3,0.5,25.6c1,1,2.6,2.5,4,3.3c-0.9,0.6-1,0.5-1,1.9c0,3.4-0.6,2.9,5.4,2.9l11.2,0c1,0,1.9,0,2.9,0
		c1.2,0,1.3,0.2,2.2-0.4C41.8,67.8,41.9,65.3,41.5,64.7z M26.2,31.9c1.2,0.3,2.2,1.3,1.8,2.9c-0.2,1.1-1.4,2.2-2.9,1.9
		C22,36,23.2,31.1,26.2,31.9z"/>
</g>
</svg>
