<?xml version="1.0" encoding="utf-8"?>
<!-- Generator: Adobe Illustrator 18.0.0, SVG Export Plug-In . SVG Version: 6.00 Build 0)  -->
<!DOCTYPE svg PUBLIC "-//W3C//DTD SVG 1.1//EN" "http://www.w3.org/Graphics/SVG/1.1/DTD/svg11.dtd">
<svg version="1.1" id="Camada_1" xmlns="http://www.w3.org/2000/svg" xmlns:xlink="http://www.w3.org/1999/xlink" x="0px" y="0px"
	 viewBox="0 0 88 135.8" enable-background="new 0 0 88 135.8" xml:space="preserve">
<circle fill="#F44856" cx="44" cy="44" r="44"/>
<circle fill="#FFFFFF" cx="44" cy="44" r="41"/>
<g>
	<path fill-rule="evenodd" clip-rule="evenodd" fill="#A60806" d="M29.1,71.5c-3.3-2-6.2-4.6-8.6-7.6l5.2-3.7c0,0,0.4-0.9,1-1.8
		c0.6-1,1.3-1.6,1.3-1.6l8.9-5.3l9.6-7.2c0,0,0.3-0.3,1.5,1.8c1.2,2.1-0.2,3.8-0.2,3.8l-6.7,6.3l1.3,4.5l5.2-0.5l3.2-3.1l0.1-1.2
		l5,0.1c0,0,0.2,0.8,0.4,1.8c0.2,1-0.8,1.9-0.8,1.9s-5.8,6.6-8,9.3c-2.3,2.7-3.4,1.9-3.4,1.9l-10.5-2.8L29.6,71L29.1,71.5L29.1,71.5
		z"/>
	<path fill-rule="evenodd" clip-rule="evenodd" fill="#D90000" d="M59.8,18.5v36.7h-3.2l0,0l-6.4-0.1l0,0.2h-6.8l5-4.7l0,0
		c1.1-1.3,1.2-3.3,0.3-4.7c-0.3-0.6-0.9-1.5-1.4-1.9c-0.4-0.3-0.9-0.5-1.3-0.1l-9.5,7.1l-6.4,3.8V18.4l12.4,6.2
		c0.7,0.4,1.6,0.5,2.5,0.5c0.9,0,1.8-0.2,2.5-0.5L59.8,18.5L59.8,18.5z M58,18.3H32.1L43,23.8c0.6,0.3,1.3,0.4,2.1,0.4
		c0.8,0,1.5-0.1,2.1-0.4L58,18.3L58,18.3z"/>
	<path fill-rule="evenodd" clip-rule="evenodd" fill="#FFFFFF" d="M43.6,39c-1.9-0.6-3.3-2.3-3.3-4.4c0-2.1,1.5-3.9,3.4-4.5
		c1.4-0.4,0.9-3-1.4-2.1c-2.6,1-4.4,3.6-4.4,6.5c0,2.9,1.8,5.4,4.3,6.5c1,0.4,1.6,0.1,1.9-0.4C44.4,40,44.2,39.2,43.6,39L43.6,39z
		 M44.7,34.8c0.4,0,0.7,0.3,0.7,0.7c0,0.4-0.3,0.7-0.7,0.7c-0.4,0-0.7-0.3-0.7-0.7C43.9,35.1,44.3,34.8,44.7,34.8L44.7,34.8z
		 M47.5,34.1c0.5,0.1,0.8,0.5,0.8,1c0,0.5-0.4,1-1,1c-0.5,0-1-0.4-1-1c0-0.2,0.1-0.4,0.2-0.5c-0.1,0-0.1,0-0.2,0
		c-0.9,0-1.7-0.8-1.7-1.7c0-0.9,0.8-1.7,1.7-1.7c0.9,0,1.7,0.8,1.7,1.7C48,33.4,47.8,33.8,47.5,34.1L47.5,34.1z M46.3,30.1
		c1.9,0.6,3.3,2.3,3.3,4.4c0,2-1.3,3.8-3.1,4.4c-0.6,0.2-0.7,1-0.5,1.6c0.2,0.5,0.9,0.8,1.8,0.4c2.5-1.1,4.2-3.6,4.2-6.4
		c0-3-1.9-5.6-4.6-6.6C45.3,27.5,45.3,29.9,46.3,30.1L46.3,30.1z"/>
	<path fill-rule="evenodd" clip-rule="evenodd" fill="#A60806" d="M47.4,70.3c-0.5-0.5,2.2,1.6,3.3-1.2c1.1-2.8,2.4-5,2.4-5
		L47.4,70.3L47.4,70.3z"/>
</g>
<g>
	<path fill="#FFFFFF" d="M13.3,104.3c0,0.9-0.2,1.6-0.7,2.2c-0.5,0.6-1.2,1.1-2.2,1.3v0l3.7,5.1h-2.7L8,108.1H6.4v4.8H4.1v-12.4h3.8
		c0.6,0,1.2,0,1.7,0.1c0.5,0.1,1,0.2,1.4,0.3c0.7,0.3,1.3,0.7,1.7,1.2C13.1,102.7,13.3,103.4,13.3,104.3z M7.5,106.2
		c0.5,0,1,0,1.3-0.1c0.4,0,0.7-0.1,0.9-0.2c0.5-0.2,0.8-0.4,1-0.7s0.3-0.6,0.3-1c0-0.3-0.1-0.6-0.2-0.9c-0.1-0.3-0.4-0.5-0.7-0.6
		c-0.2-0.1-0.5-0.2-0.8-0.2c-0.3,0-0.7-0.1-1.2-0.1H6.4v3.8H7.5z"/>
	<path fill="#FFFFFF" d="M19.1,111.4c0.4,0,0.9,0,1.3-0.1c0.5-0.1,0.9-0.2,1.4-0.4v1.8c-0.3,0.1-0.7,0.2-1.3,0.4s-1.2,0.2-1.8,0.2
		c-0.6,0-1.2-0.1-1.8-0.2s-1.1-0.4-1.5-0.8s-0.8-0.8-1-1.4c-0.3-0.6-0.4-1.3-0.4-2.1c0-0.8,0.1-1.5,0.4-2.1s0.6-1.1,0.9-1.5
		s0.8-0.7,1.4-0.9c0.5-0.2,1-0.3,1.6-0.3c0.6,0,1.1,0.1,1.6,0.3c0.5,0.2,0.9,0.4,1.2,0.8c0.3,0.4,0.6,0.8,0.8,1.4
		c0.2,0.6,0.3,1.3,0.3,2.1c0,0.3,0,0.6,0,0.8h-5.9c0,0.4,0.1,0.8,0.3,1.1s0.4,0.5,0.6,0.7c0.3,0.2,0.5,0.3,0.9,0.4
		C18.3,111.4,18.7,111.4,19.1,111.4z M18.2,105.4c-0.3,0-0.5,0.1-0.7,0.2c-0.2,0.1-0.4,0.2-0.6,0.4c-0.2,0.2-0.3,0.4-0.4,0.6
		c-0.1,0.2-0.2,0.5-0.2,0.8h3.5c0-0.3,0-0.5-0.1-0.8c-0.1-0.2-0.2-0.4-0.3-0.6c-0.1-0.2-0.3-0.3-0.5-0.4
		C18.7,105.5,18.5,105.4,18.2,105.4z"/>
	<path fill="#FFFFFF" d="M27.2,110.3c0-0.2-0.1-0.3-0.2-0.5c-0.1-0.1-0.3-0.2-0.4-0.3c-0.2-0.1-0.4-0.2-0.6-0.2
		c-0.2-0.1-0.5-0.1-0.7-0.2c-0.3-0.1-0.6-0.2-0.9-0.3s-0.6-0.3-0.8-0.5s-0.4-0.4-0.5-0.7s-0.2-0.6-0.2-1c0-0.5,0.1-0.9,0.3-1.3
		c0.2-0.4,0.4-0.7,0.7-0.9c0.3-0.2,0.7-0.4,1.1-0.5c0.4-0.1,0.8-0.2,1.3-0.2c0.6,0,1.1,0,1.5,0.1c0.5,0.1,0.9,0.2,1.3,0.3v1.8
		c-0.2-0.1-0.4-0.1-0.6-0.2c-0.2-0.1-0.5-0.1-0.7-0.2c-0.2,0-0.5-0.1-0.7-0.1c-0.2,0-0.4,0-0.7,0c-0.3,0-0.5,0-0.7,0.1
		s-0.3,0.1-0.4,0.2c-0.1,0.1-0.2,0.2-0.2,0.3c0,0.1-0.1,0.2-0.1,0.3c0,0.2,0.1,0.4,0.2,0.5c0.1,0.1,0.3,0.2,0.5,0.3
		c0.2,0.1,0.4,0.1,0.6,0.2c0.2,0.1,0.4,0.1,0.6,0.2c0.3,0.1,0.6,0.2,0.9,0.3s0.6,0.3,0.8,0.4s0.5,0.4,0.6,0.7
		c0.2,0.3,0.2,0.7,0.2,1.1c0,0.5-0.1,0.9-0.3,1.3c-0.2,0.4-0.5,0.7-0.8,0.9c-0.3,0.3-0.8,0.4-1.2,0.6c-0.5,0.1-1,0.2-1.6,0.2
		c-0.6,0-1.1,0-1.5-0.1c-0.5-0.1-0.8-0.2-1.1-0.3v-1.8c0.5,0.2,0.9,0.3,1.3,0.4c0.4,0.1,0.8,0.1,1.1,0.1c0.3,0,0.5,0,0.8-0.1
		s0.4-0.1,0.6-0.2c0.2-0.1,0.3-0.2,0.4-0.3C27.2,110.7,27.2,110.5,27.2,110.3z"/>
	<path fill="#FFFFFF" d="M34.3,113.2c-0.9,0-1.7-0.2-2.2-0.5c-0.6-0.3-1-0.7-1.3-1.2c-0.2-0.3-0.3-0.6-0.4-0.9
		c-0.1-0.3-0.1-0.7-0.1-1.1V104h2.2v5.3c0,0.3,0,0.6,0.1,0.8s0.1,0.4,0.2,0.6c0.1,0.3,0.4,0.5,0.6,0.6c0.3,0.1,0.6,0.2,1,0.2
		c0.4,0,0.7-0.1,1-0.2s0.5-0.4,0.6-0.7c0.1-0.3,0.2-0.7,0.2-1.2V104h2.2v5.5c0,0.7-0.1,1.3-0.4,1.8c-0.1,0.3-0.3,0.5-0.6,0.8
		c-0.2,0.2-0.5,0.4-0.8,0.6c-0.3,0.2-0.7,0.3-1,0.4S34.8,113.2,34.3,113.2z"/>
	<path fill="#FFFFFF" d="M39.8,112.9V99.5H42v13.4H39.8z"/>
	<path fill="#FFFFFF" d="M49.1,112.9c-0.2,0.1-0.5,0.1-0.9,0.2c-0.3,0-0.7,0.1-1,0.1c-0.8,0-1.4-0.1-1.9-0.4c-0.5-0.2-0.8-0.6-1-1.1
		c-0.1-0.3-0.2-0.8-0.2-1.3v-4.7h-1.7V104h1.7v-2.5h2.2v2.5H49v1.8h-2.6v4.4c0,0.3,0.1,0.6,0.2,0.8c0.2,0.3,0.6,0.4,1.1,0.4
		c0.3,0,0.5,0,0.8-0.1c0.3,0,0.5-0.1,0.7-0.2V112.9z"/>
	<path fill="#FFFFFF" d="M55.1,112L55.1,112c-0.2,0.1-0.3,0.3-0.5,0.4c-0.2,0.1-0.4,0.3-0.6,0.4c-0.2,0.1-0.5,0.2-0.7,0.3
		s-0.6,0.1-0.9,0.1c-0.4,0-0.8-0.1-1.2-0.2c-0.4-0.1-0.7-0.3-1-0.6c-0.3-0.3-0.5-0.6-0.6-0.9c-0.2-0.4-0.2-0.8-0.2-1.2
		c0-0.5,0.1-0.9,0.3-1.3c0.2-0.4,0.4-0.7,0.7-1c0.3-0.3,0.7-0.5,1.1-0.6c0.4-0.1,0.9-0.2,1.5-0.2c0.4,0,0.7,0,1.1,0.1
		c0.3,0,0.6,0.1,0.9,0.2v-0.4c0-0.2,0-0.4-0.1-0.6c-0.1-0.2-0.2-0.4-0.3-0.5c-0.2-0.2-0.4-0.3-0.6-0.4c-0.3-0.1-0.6-0.1-0.9-0.1
		c-0.4,0-0.9,0-1.3,0.1s-0.9,0.2-1.4,0.4v-1.7c0.5-0.2,0.9-0.3,1.4-0.5c0.5-0.1,1-0.2,1.6-0.2c0.7,0,1.2,0.1,1.7,0.2
		c0.5,0.2,0.9,0.4,1.2,0.7s0.6,0.6,0.7,1c0.2,0.4,0.2,0.8,0.2,1.3v3.4c0,0.6,0,1.1,0,1.5s0,0.8,0,1.1h-2L55.1,112z M55,109.1
		c-0.2,0-0.5-0.1-0.7-0.1c-0.3,0-0.5-0.1-0.8-0.1c-0.5,0-1,0.1-1.3,0.3c-0.3,0.2-0.5,0.5-0.5,1c0,0.2,0,0.4,0.1,0.5
		c0.1,0.2,0.2,0.3,0.3,0.4c0.1,0.1,0.3,0.2,0.4,0.2c0.2,0,0.3,0.1,0.5,0.1c0.2,0,0.4,0,0.6-0.1c0.2-0.1,0.4-0.1,0.5-0.2
		s0.3-0.2,0.5-0.3c0.1-0.1,0.2-0.2,0.3-0.3V109.1z"/>
	<path fill="#FFFFFF" d="M58.2,108.6c0-0.8,0.1-1.5,0.3-2.1c0.2-0.6,0.5-1.1,0.9-1.5c0.4-0.4,0.8-0.7,1.3-0.9s1-0.3,1.5-0.3
		c0.2,0,0.5,0,0.7,0.1c0.2,0,0.4,0.1,0.6,0.2c0.2,0.1,0.4,0.2,0.5,0.3c0.2,0.1,0.3,0.2,0.5,0.3h0c0-0.1,0-0.3,0-0.5s0-0.5,0-0.7
		v-3.7h2.2v10.8c0,0.6,0,1.1,0,1.5s0,0.8,0,1.1h-2l-0.1-1h0c-0.1,0.2-0.3,0.3-0.5,0.5s-0.4,0.3-0.6,0.4c-0.2,0.1-0.5,0.2-0.7,0.3
		c-0.3,0.1-0.5,0.1-0.9,0.1c-0.5,0-1-0.1-1.4-0.3c-0.4-0.2-0.9-0.4-1.2-0.8c-0.4-0.4-0.6-0.8-0.9-1.4
		C58.3,110.1,58.2,109.4,58.2,108.6z M62.6,111.4c0.2,0,0.4,0,0.6-0.1c0.2-0.1,0.4-0.1,0.6-0.2c0.2-0.1,0.3-0.2,0.5-0.3
		c0.1-0.1,0.2-0.2,0.3-0.3v-4.3c-0.3-0.2-0.5-0.4-0.9-0.5c-0.3-0.1-0.7-0.2-1-0.2c-0.2,0-0.5,0-0.7,0.1c-0.3,0.1-0.5,0.3-0.7,0.5
		s-0.4,0.5-0.5,0.9c-0.1,0.4-0.2,0.9-0.2,1.5c0,0.9,0.2,1.6,0.5,2.1S61.9,111.4,62.6,111.4z"/>
	<path fill="#FFFFFF" d="M76.9,108.5c0,0.7-0.1,1.3-0.3,1.9c-0.2,0.6-0.5,1.1-0.9,1.5c-0.4,0.4-0.9,0.7-1.4,1s-1.2,0.3-1.9,0.3
		c-0.7,0-1.3-0.1-1.9-0.3s-1-0.5-1.4-1s-0.7-0.9-0.9-1.5c-0.2-0.6-0.3-1.2-0.3-1.9s0.1-1.3,0.3-1.9c0.2-0.6,0.5-1.1,0.9-1.5
		s0.9-0.7,1.4-1c0.6-0.2,1.2-0.3,1.9-0.3c0.7,0,1.3,0.1,1.9,0.3c0.6,0.2,1,0.5,1.4,1s0.7,0.9,0.9,1.5
		C76.8,107.1,76.9,107.7,76.9,108.5z M74.6,108.5c0-0.5-0.1-0.9-0.2-1.3c-0.1-0.4-0.3-0.7-0.5-0.9c-0.2-0.2-0.4-0.4-0.7-0.6
		s-0.6-0.2-0.9-0.2c-0.3,0-0.6,0.1-0.9,0.2s-0.5,0.3-0.7,0.6c-0.2,0.2-0.4,0.6-0.5,0.9c-0.1,0.4-0.2,0.8-0.2,1.3
		c0,0.5,0.1,0.9,0.2,1.3c0.1,0.4,0.3,0.7,0.5,0.9s0.4,0.4,0.7,0.6c0.3,0.1,0.6,0.2,0.9,0.2s0.6-0.1,0.9-0.2c0.3-0.1,0.5-0.3,0.7-0.6
		c0.2-0.2,0.4-0.5,0.5-0.9C74.6,109.4,74.6,108.9,74.6,108.5z"/>
	<path fill="#FFFFFF" d="M81.9,110.3c0-0.2-0.1-0.3-0.2-0.5c-0.1-0.1-0.3-0.2-0.4-0.3c-0.2-0.1-0.4-0.2-0.6-0.2
		c-0.2-0.1-0.5-0.1-0.7-0.2c-0.3-0.1-0.6-0.2-0.9-0.3s-0.6-0.3-0.8-0.5s-0.4-0.4-0.5-0.7s-0.2-0.6-0.2-1c0-0.5,0.1-0.9,0.3-1.3
		c0.2-0.4,0.4-0.7,0.7-0.9c0.3-0.2,0.7-0.4,1.1-0.5c0.4-0.1,0.8-0.2,1.3-0.2c0.6,0,1.1,0,1.5,0.1c0.5,0.1,0.9,0.2,1.3,0.3v1.8
		c-0.2-0.1-0.4-0.1-0.6-0.2c-0.2-0.1-0.5-0.1-0.7-0.2c-0.2,0-0.5-0.1-0.7-0.1c-0.2,0-0.4,0-0.7,0c-0.3,0-0.5,0-0.7,0.1
		s-0.3,0.1-0.4,0.2c-0.1,0.1-0.2,0.2-0.2,0.3c0,0.1-0.1,0.2-0.1,0.3c0,0.2,0.1,0.4,0.2,0.5c0.1,0.1,0.3,0.2,0.5,0.3
		c0.2,0.1,0.4,0.1,0.6,0.2c0.2,0.1,0.4,0.1,0.6,0.2c0.3,0.1,0.6,0.2,0.9,0.3s0.6,0.3,0.8,0.4s0.5,0.4,0.6,0.7
		c0.2,0.3,0.2,0.7,0.2,1.1c0,0.5-0.1,0.9-0.3,1.3c-0.2,0.4-0.5,0.7-0.8,0.9c-0.3,0.3-0.8,0.4-1.2,0.6c-0.5,0.1-1,0.2-1.6,0.2
		c-0.6,0-1.1,0-1.5-0.1c-0.5-0.1-0.8-0.2-1.1-0.3v-1.8c0.5,0.2,0.9,0.3,1.3,0.4c0.4,0.1,0.8,0.1,1.1,0.1c0.3,0,0.5,0,0.8-0.1
		s0.4-0.1,0.6-0.2c0.2-0.1,0.3-0.2,0.4-0.3C81.8,110.7,81.9,110.5,81.9,110.3z"/>
</g>
</svg>
