<?xml version="1.0" encoding="utf-8"?>
<!-- Generator: Adobe Illustrator 18.0.0, SVG Export Plug-In . SVG Version: 6.00 Build 0)  -->
<!DOCTYPE svg PUBLIC "-//W3C//DTD SVG 1.1//EN" "http://www.w3.org/Graphics/SVG/1.1/DTD/svg11.dtd">
<svg version="1.1" id="Camada_1" xmlns="http://www.w3.org/2000/svg" xmlns:xlink="http://www.w3.org/1999/xlink" x="0px" y="0px"
	 viewBox="0 0 46 34" enable-background="new 0 0 46 34" xml:space="preserve">
<path fill-rule="evenodd" clip-rule="evenodd" fill="#FFFFFF" d="M46,1.9C46,0.9,45.1,0,44.1,0H1.9C0.9,0,0,0.9,0,1.9v22.9v4.4
	c0,1.1,0.9,1.9,1.9,1.9H18v0.5c0,1.3-1.2,0.4-1.6,0.6h-0.3c-0.7,0-1.1,0.4-1.1,0.8v0.1c0,0.4,0.3,0.8,1.1,0.8h13.7
	c0.7,0,1.1-0.4,1.1-0.8v-0.1c0-0.4-0.3-0.8-1.1-0.8h-0.3c-0.4-0.2-1.6,0.7-1.6-0.6v-0.5h16.1c1.1,0,1.9-0.9,1.9-1.9l0-4.4L46,1.9z
	 M42.7,24.4H3.3V2.8h39.4V24.4z"/>
<g>
	<g>
		<path fill="#D11A26" d="M16.6,20.8h-2.7V8.4H9.2V6.2h12.1v2.2h-4.7V20.8z"/>
		<path fill="#D11A26" d="M27.6,17.2c0.3-0.8,0.5-1.4,0.6-1.7c0.1-0.3,0.4-1,0.8-2.1l2.7-7.2h2.8l-5.7,14.6h-2.4L20.7,6.2h2.8
			l2.7,7.2c0.4,1,0.6,1.7,0.8,2.1C27.1,15.9,27.3,16.4,27.6,17.2L27.6,17.2z"/>
	</g>
</g>
</svg>
