<?xml version="1.0" encoding="utf-8"?>
<!-- Generator: Adobe Illustrator 18.0.0, SVG Export Plug-In . SVG Version: 6.00 Build 0)  -->
<!DOCTYPE svg PUBLIC "-//W3C//DTD SVG 1.1//EN" "http://www.w3.org/Graphics/SVG/1.1/DTD/svg11.dtd">
<svg version="1.1" id="Camada_1" xmlns="http://www.w3.org/2000/svg" xmlns:xlink="http://www.w3.org/1999/xlink" x="0px" y="0px"
	 viewBox="0 0 88 135.8" enable-background="new 0 0 88 135.8" xml:space="preserve">
<circle fill="#F44856" cx="44" cy="44" r="44"/>
<circle fill="#FFFFFF" cx="44" cy="44" r="41"/>
<g>
	<path fill="#FFFFFF" d="M13.2,102.2c-0.6,0-1.2,0.1-1.7,0.3c-0.5,0.2-1,0.5-1.3,0.9c-0.4,0.4-0.7,0.9-0.9,1.4
		c-0.2,0.6-0.3,1.2-0.3,2c0,0.7,0.1,1.4,0.3,1.9c0.2,0.6,0.5,1,0.8,1.4c0.4,0.4,0.8,0.7,1.3,0.8c0.5,0.2,1.1,0.3,1.8,0.3
		c0.5,0,0.9,0,1.4-0.1c0.5-0.1,0.9-0.2,1.4-0.3v2c-0.4,0.1-0.9,0.2-1.4,0.3c-0.5,0.1-1,0.1-1.6,0.1c-1.1,0-2-0.2-2.8-0.5
		s-1.5-0.7-2-1.3c-0.5-0.5-0.9-1.2-1.2-2c-0.3-0.8-0.4-1.6-0.4-2.5c0-0.9,0.1-1.8,0.4-2.6c0.3-0.8,0.7-1.5,1.2-2.1
		c0.5-0.6,1.2-1.1,2-1.4c0.8-0.3,1.7-0.5,2.8-0.5c0.5,0,1,0,1.5,0.1c0.5,0.1,0.9,0.2,1.3,0.3v1.9c-0.5-0.2-1-0.3-1.4-0.3
		C14,102.3,13.6,102.2,13.2,102.2z"/>
	<path fill="#FFFFFF" d="M25.6,108.5c0,0.7-0.1,1.3-0.3,1.9c-0.2,0.6-0.5,1.1-0.9,1.5c-0.4,0.4-0.9,0.7-1.4,1s-1.2,0.3-1.9,0.3
		c-0.7,0-1.3-0.1-1.9-0.3c-0.6-0.2-1-0.5-1.4-1s-0.7-0.9-0.9-1.5c-0.2-0.6-0.3-1.2-0.3-1.9s0.1-1.3,0.3-1.9c0.2-0.6,0.5-1.1,0.9-1.5
		c0.4-0.4,0.9-0.7,1.4-1c0.6-0.2,1.2-0.3,1.9-0.3c0.7,0,1.3,0.1,1.9,0.3c0.6,0.2,1,0.5,1.4,1s0.7,0.9,0.9,1.5
		C25.5,107.1,25.6,107.7,25.6,108.5z M23.3,108.5c0-0.5-0.1-0.9-0.2-1.3c-0.1-0.4-0.3-0.7-0.5-0.9c-0.2-0.2-0.4-0.4-0.7-0.6
		s-0.6-0.2-0.9-0.2c-0.3,0-0.6,0.1-0.9,0.2c-0.3,0.1-0.5,0.3-0.7,0.6c-0.2,0.2-0.4,0.6-0.5,0.9c-0.1,0.4-0.2,0.8-0.2,1.3
		c0,0.5,0.1,0.9,0.2,1.3c0.1,0.4,0.3,0.7,0.5,0.9c0.2,0.2,0.4,0.4,0.7,0.6c0.3,0.1,0.6,0.2,0.9,0.2c0.3,0,0.6-0.1,0.9-0.2
		c0.3-0.1,0.5-0.3,0.7-0.6c0.2-0.2,0.4-0.5,0.5-0.9C23.2,109.4,23.3,108.9,23.3,108.5z"/>
	<path fill="#FFFFFF" d="M28.6,105.2L28.6,105.2c0.2-0.2,0.3-0.4,0.5-0.5c0.2-0.2,0.4-0.3,0.7-0.5c0.3-0.1,0.5-0.2,0.8-0.3
		c0.3-0.1,0.6-0.1,1-0.1c0.3,0,0.6,0,1,0.1c0.3,0.1,0.6,0.2,0.8,0.3c0.3,0.2,0.5,0.4,0.7,0.6c0.2,0.3,0.3,0.5,0.5,0.9
		c0.1,0.2,0.1,0.4,0.1,0.6c0,0.2,0,0.5,0,0.8v5.8h-2.2v-5.5c0-0.2,0-0.4,0-0.6s-0.1-0.3-0.1-0.5c-0.1-0.3-0.3-0.5-0.5-0.6
		c-0.2-0.1-0.5-0.2-0.8-0.2c-0.4,0-0.8,0.1-1.2,0.3c-0.4,0.2-0.7,0.5-1,0.9v6.2h-2.2v-9h1.8L28.6,105.2z"/>
	<path fill="#FFFFFF" d="M44.2,104l-3.5,9h-2.2l-3.5-9h2.3l1.3,3.4c0.4,1,0.7,1.9,1,2.9h0c0.3-0.8,0.6-1.8,1-2.8l1.3-3.5H44.2z"/>
	<path fill="#FFFFFF" d="M49.2,111.4c0.4,0,0.9,0,1.3-0.1c0.5-0.1,0.9-0.2,1.4-0.4v1.8c-0.3,0.1-0.7,0.2-1.3,0.4s-1.2,0.2-1.8,0.2
		c-0.6,0-1.2-0.1-1.8-0.2s-1.1-0.4-1.5-0.8s-0.8-0.8-1-1.4c-0.3-0.6-0.4-1.3-0.4-2.1c0-0.8,0.1-1.5,0.4-2.1s0.6-1.1,0.9-1.5
		s0.8-0.7,1.4-0.9c0.5-0.2,1-0.3,1.6-0.3c0.6,0,1.1,0.1,1.6,0.3c0.5,0.2,0.9,0.4,1.2,0.8c0.3,0.4,0.6,0.8,0.8,1.4
		c0.2,0.6,0.3,1.3,0.3,2.1c0,0.3,0,0.6,0,0.8h-5.9c0,0.4,0.1,0.8,0.3,1.1s0.4,0.5,0.6,0.7c0.3,0.2,0.5,0.3,0.9,0.4
		C48.4,111.4,48.8,111.4,49.2,111.4z M47.3,99.3h1.9l1.9,3.2h-1.7l-1.2-2h0l-1.2,2h-1.7L47.3,99.3z M48.3,105.4
		c-0.3,0-0.5,0.1-0.7,0.2c-0.2,0.1-0.4,0.2-0.6,0.4c-0.2,0.2-0.3,0.4-0.4,0.6c-0.1,0.2-0.2,0.5-0.2,0.8H50c0-0.3,0-0.5-0.1-0.8
		c-0.1-0.2-0.2-0.4-0.3-0.6c-0.1-0.2-0.3-0.3-0.5-0.4C48.8,105.5,48.6,105.4,48.3,105.4z"/>
	<path fill="#FFFFFF" d="M55.3,105.2L55.3,105.2c0.2-0.2,0.3-0.4,0.5-0.5c0.2-0.2,0.4-0.3,0.7-0.5c0.3-0.1,0.5-0.2,0.8-0.3
		c0.3-0.1,0.6-0.1,1-0.1c0.3,0,0.6,0,1,0.1c0.3,0.1,0.6,0.2,0.8,0.3c0.3,0.2,0.5,0.4,0.7,0.6c0.2,0.3,0.3,0.5,0.5,0.9
		c0.1,0.2,0.1,0.4,0.1,0.6c0,0.2,0,0.5,0,0.8v5.8h-2.2v-5.5c0-0.2,0-0.4,0-0.6s-0.1-0.3-0.1-0.5c-0.1-0.3-0.3-0.5-0.5-0.6
		c-0.2-0.1-0.5-0.2-0.8-0.2c-0.4,0-0.8,0.1-1.2,0.3s-0.7,0.5-1,0.9v6.2h-2.2v-9h1.8L55.3,105.2z"/>
	<path fill="#FFFFFF" d="M62.9,99.5h2.3v2.4h-2.3V99.5z M63,104h2.2v9H63V104z"/>
	<path fill="#FFFFFF" d="M75.3,108.5c0,0.7-0.1,1.3-0.3,1.9c-0.2,0.6-0.5,1.1-0.9,1.5c-0.4,0.4-0.9,0.7-1.4,1s-1.2,0.3-1.9,0.3
		c-0.7,0-1.3-0.1-1.9-0.3s-1-0.5-1.4-1s-0.7-0.9-0.9-1.5c-0.2-0.6-0.3-1.2-0.3-1.9s0.1-1.3,0.3-1.9c0.2-0.6,0.5-1.1,0.9-1.5
		s0.9-0.7,1.4-1c0.6-0.2,1.2-0.3,1.9-0.3c0.7,0,1.3,0.1,1.9,0.3c0.6,0.2,1,0.5,1.4,1s0.7,0.9,0.9,1.5
		C75.2,107.1,75.3,107.7,75.3,108.5z M73,108.5c0-0.5-0.1-0.9-0.2-1.3c-0.1-0.4-0.3-0.7-0.5-0.9c-0.2-0.2-0.4-0.4-0.7-0.6
		s-0.6-0.2-0.9-0.2c-0.3,0-0.6,0.1-0.9,0.2s-0.5,0.3-0.7,0.6c-0.2,0.2-0.4,0.6-0.5,0.9c-0.1,0.4-0.2,0.8-0.2,1.3
		c0,0.5,0.1,0.9,0.2,1.3c0.1,0.4,0.3,0.7,0.5,0.9s0.4,0.4,0.7,0.6c0.3,0.1,0.6,0.2,0.9,0.2s0.6-0.1,0.9-0.2c0.3-0.1,0.5-0.3,0.7-0.6
		c0.2-0.2,0.4-0.5,0.5-0.9C72.9,109.4,73,108.9,73,108.5z"/>
	<path fill="#FFFFFF" d="M80.2,110.3c0-0.2-0.1-0.3-0.2-0.5c-0.1-0.1-0.3-0.2-0.4-0.3c-0.2-0.1-0.4-0.2-0.6-0.2
		c-0.2-0.1-0.5-0.1-0.7-0.2c-0.3-0.1-0.6-0.2-0.9-0.3s-0.6-0.3-0.8-0.5s-0.4-0.4-0.5-0.7s-0.2-0.6-0.2-1c0-0.5,0.1-0.9,0.3-1.3
		c0.2-0.4,0.4-0.7,0.7-0.9c0.3-0.2,0.7-0.4,1.1-0.5c0.4-0.1,0.8-0.2,1.3-0.2c0.6,0,1.1,0,1.5,0.1c0.5,0.1,0.9,0.2,1.3,0.3v1.8
		c-0.2-0.1-0.4-0.1-0.6-0.2c-0.2-0.1-0.5-0.1-0.7-0.2c-0.2,0-0.5-0.1-0.7-0.1c-0.2,0-0.4,0-0.7,0c-0.3,0-0.5,0-0.7,0.1
		s-0.3,0.1-0.4,0.2c-0.1,0.1-0.2,0.2-0.2,0.3c0,0.1-0.1,0.2-0.1,0.3c0,0.2,0.1,0.4,0.2,0.5c0.1,0.1,0.3,0.2,0.5,0.3
		c0.2,0.1,0.4,0.1,0.6,0.2c0.2,0.1,0.4,0.1,0.6,0.2c0.3,0.1,0.6,0.2,0.9,0.3s0.6,0.3,0.8,0.4s0.5,0.4,0.6,0.7
		c0.2,0.3,0.2,0.7,0.2,1.1c0,0.5-0.1,0.9-0.3,1.3c-0.2,0.4-0.5,0.7-0.8,0.9c-0.3,0.3-0.8,0.4-1.2,0.6c-0.5,0.1-1,0.2-1.6,0.2
		c-0.6,0-1.1,0-1.5-0.1c-0.5-0.1-0.8-0.2-1.1-0.3v-1.8c0.5,0.2,0.9,0.3,1.3,0.4c0.4,0.1,0.8,0.1,1.1,0.1c0.3,0,0.5,0,0.8-0.1
		s0.4-0.1,0.6-0.2c0.2-0.1,0.3-0.2,0.4-0.3C80.2,110.7,80.2,110.5,80.2,110.3z"/>
</g>
<g>
	<path fill-rule="evenodd" clip-rule="evenodd" fill="#D90000" d="M51.7,67.6c-1.2,1-1.7,1.9-3.8,1.3c-1.1-0.3-2.3-1.3-1.7-3
		C47.3,62.7,51.1,64.8,51.7,67.6L51.7,67.6z M51.6,63.9c-2.2-2.4,0.5-5.8,4.4-1.9c1.3,1.3,2.9,1.8,2.5,4.3
		C55.5,68,53.5,65.9,51.6,63.9L51.6,63.9z M57.8,57.8c2.8-1.7,8.5,3.9,4.8,5.4c-2.1,0.8-3.3-0.9-4.2-1.7
		C57.6,60.8,55.6,59.1,57.8,57.8L57.8,57.8z M62.4,56.1c3.1-4.8,9.2,1.6,3.1,3C64.4,58.5,62.9,57.2,62.4,56.1L62.4,56.1z M16.8,52.8
		c0.7-1.3,1.6-2.6,2.3-4c2.2-4.4,4.1-9.4,5.7-12.6c0.7-1.5,2.6-1.5,4.3-1.9c6.8-1.7,8.6-2.5,14.7-1c3,0.7,7.3,1.7,8.8,3.6
		c1.3,1.6,3.1,6.1,3.8,8.3c1.6,5.2-3.8,4.9-5.9,2.7c-2.6-2.7-2.6-4.8-3-7.6l-0.1-0.7c0-0.1-0.1-0.1-0.1-0.3c0-0.2,0-0.2-0.1-0.5
		l-1.8,0l-0.2,2.6c-6.3-0.2-5.8,1.2-12.7,6.7L22,56.5L16.8,52.8L16.8,52.8z M71.7,52c-3.2-5.4-6.5-10.9-8.4-17.7
		c-2.9-0.6-5.6-1-8.7-0.8c-9,0.4-8.8-5.3-23.8-1.6c-8.4,2-6.7,0.2-10.2,8.8c-1.4,3.3-6.3,11.8-6,12.9c0.6,0.9,4.5,3.8,5.7,4.3
		c-1,2.9-1.3,5.3,2,6.2c3,0.8,4.5-1.4,6.2-2.7l8-6.3c0.9-0.7,1.6-1.6,2.9-1.1c-0.7,1.9-12,9.2-13.9,11.8c2.9,5.4,8,0.5,10.6-1.6
		c1.5-1.3,3-2.4,4.7-3.7c1.5-1.2,3.5-3.2,4.9-2.8C45,59,40.6,62,39.1,63.2c-1.7,1.4-5.5,3.9-6.5,5.4c3.7,4.5,9-2.3,11.4-3.5
		c-0.5,2.1,0,1.6-1.4,2.7l-2.2,1.9c1.4,0.6,1.8,0.4,3.2-0.2c1.6-0.6,0.7-0.5,2.3,0.5c4.4,2.8,7.2-1.5,8.2-1.6c0.6,0,1.8,0.4,2.9,0.4
		c2.4-0.1,3.7-1.5,3.9-3.7c4.6-0.1,4.4-1.8,5-3.4c0.6-1.6-0.4-0.5,1.3-1.3c3.8-1.9,3.5-3.1,2-6.8L71.7,52L71.7,52z"/>
	<path fill-rule="evenodd" clip-rule="evenodd" fill="#D90000" d="M7.3,54C7.1,52.4,7,50.7,7,49c0-7.8,2.4-15,6.4-20.9
		c2.5,0.8,5.6,1.4,7.4,2.5c0.9,5.2-7.8,20.2-10.3,23.7C9.8,54.4,8.6,54.3,7.3,54L7.3,54z"/>
	<path fill-rule="evenodd" clip-rule="evenodd" fill="#D90000" d="M72.5,28c4.1,5.9,6.5,13.2,6.5,21c0,1.7-0.1,3.4-0.3,5
		c-1.3,0.2-2.5,0.3-3.2,0.3c-2.5-3.7-10.9-19.5-10.3-23.7C66.8,29.5,69.9,28.7,72.5,28L72.5,28z"/>
</g>
<g>
	<g>
		<path fill-rule="evenodd" clip-rule="evenodd" fill="#F44856" d="M16.4,52.9l5.2,3.8l10.7-8.5c7-5.5,6.4-6.9,12.9-6.7l0.2-2.6
			l1.8,0c0,0.3,0.1,0.3,0.1,0.5c0,0.2,0.1,0.2,0.1,0.3l0.1,0.7c0.4,2.8,0.4,4.9,3,7.6c2.1,2.2,7.7,2.6,6-2.7
			c-0.7-2.2-2.5-6.7-3.8-8.4c-1.6-1.9-5.9-2.9-8.9-3.6c-6.2-1.5-8-0.7-14.9,1c-1.7,0.4-3.6,0.5-4.3,1.9c-1.7,3.2-3.5,8.3-5.8,12.7
			C18,50.2,17.1,51.6,16.4,52.9L16.4,52.9z"/>
		<path fill-rule="evenodd" clip-rule="evenodd" fill="#F44856" d="M58.4,66.3c0.4-2.5-1.1-3-2.5-4.3c-4-3.9-6.7-0.6-4.4,1.9
			C53.4,65.9,55.5,68,58.4,66.3L58.4,66.3z"/>
		<path fill-rule="evenodd" clip-rule="evenodd" fill="#F44856" d="M57.7,57.8c-2.2,1.4-0.2,3,0.6,3.7c0.9,0.8,2.2,2.6,4.3,1.7
			C66.3,61.7,60.5,56,57.7,57.8L57.7,57.8z"/>
		<path fill-rule="evenodd" clip-rule="evenodd" fill="#F44856" d="M51.7,67.6c-0.6-2.8-4.4-4.9-5.6-1.7c-0.6,1.6,0.6,2.7,1.7,3
			C49.9,69.5,50.5,68.6,51.7,67.6L51.7,67.6z"/>
		<path fill-rule="evenodd" clip-rule="evenodd" fill="#F44856" d="M62.3,56.1c0.5,1.1,2,2.4,3.1,3C71.7,57.7,65.5,51.2,62.3,56.1
			L62.3,56.1z"/>
	</g>
</g>
</svg>
