<?xml version="1.0" encoding="utf-8"?>
<!-- Generator: Adobe Illustrator 18.0.0, SVG Export Plug-In . SVG Version: 6.00 Build 0)  -->
<!DOCTYPE svg PUBLIC "-//W3C//DTD SVG 1.1//EN" "http://www.w3.org/Graphics/SVG/1.1/DTD/svg11.dtd">
<svg version="1.1" id="Camada_1" xmlns="http://www.w3.org/2000/svg" xmlns:xlink="http://www.w3.org/1999/xlink" x="0px" y="0px"
	 viewBox="0 0 50 50" enable-background="new 0 0 50 50" xml:space="preserve">
<g>
	<path fill-rule="evenodd" clip-rule="evenodd" fill="#FFFFFF" d="M25,0C11.2,0,0,11.2,0,25c0,13.8,11.2,25,25,25
		c13.8,0,25-11.2,25-25C50,11.2,38.8,0,25,0z M38,35c0,1.7-1.3,3-3,3H15c-1.7,0-3-1.3-3-3V15c0-1.7,1.3-3,3-3h20c1.7,0,3,1.3,3,3V35
		z"/>
	<path fill-rule="evenodd" clip-rule="evenodd" fill="#FFFFFF" d="M32.7,23c0.2,0.6,0.3,1.3,0.3,2c0,4.4-3.6,8-8,8s-8-3.6-8-8
		c0-0.7,0.1-1.4,0.3-2H15v3v7c0,1.1,0.9,2,2,2h16c1.1,0,2-0.9,2-2v-7v-3H32.7z"/>
	<path fill-rule="evenodd" clip-rule="evenodd" fill="#FFFFFF" d="M25,20c2.8,0,5,2.2,5,5c0,2.8-2.2,5-5,5c-2.8,0-5-2.2-5-5
		C20,22.2,22.2,20,25,20z"/>
	<path fill-rule="evenodd" clip-rule="evenodd" fill="#FFFFFF" d="M32,15h1c1.1,0,2,0.9,2,2v1c0,1.1-0.9,2-2,2h-1c-1.1,0-2-0.9-2-2
		v-1C30,15.9,30.9,15,32,15z"/>
</g>
</svg>
