<?xml version="1.0" encoding="utf-8"?>
<!-- Generator: Adobe Illustrator 18.0.0, SVG Export Plug-In . SVG Version: 6.00 Build 0)  -->
<!DOCTYPE svg PUBLIC "-//W3C//DTD SVG 1.1//EN" "http://www.w3.org/Graphics/SVG/1.1/DTD/svg11.dtd">
<svg version="1.1" id="Camada_1" xmlns="http://www.w3.org/2000/svg" xmlns:xlink="http://www.w3.org/1999/xlink" x="0px" y="0px"
	 viewBox="0 0 52 53" enable-background="new 0 0 52 53" xml:space="preserve">
<path fill-rule="evenodd" clip-rule="evenodd" fill="#F24957" d="M26,0c14.4,0,26,11.9,26,26.5S40.4,53,26,53C11.6,53,0,41.1,0,26.5
	S11.6,0,26,0z"/>
<linearGradient id="SVGID_1_" gradientUnits="userSpaceOnUse" x1="30.2673" y1="50.7016" x2="21.7326" y2="2.2985">
	<stop  offset="0" style="stop-color:#E9E9E9"/>
	<stop  offset="1" style="stop-color:#FFFFFF"/>
</linearGradient>
<path fill-rule="evenodd" clip-rule="evenodd" fill="url(#SVGID_1_)" d="M26,1.9c13.3,0,24.1,11,24.1,24.6S39.3,51.1,26,51.1
	c-13.3,0-24.1-11-24.1-24.6S12.7,1.9,26,1.9z"/>
<path fill-rule="evenodd" clip-rule="evenodd" fill="#E42333" d="M25.5,16L37,27.4l-1.4,1.4L24.1,17.4L25.5,16z"/>
<path fill-rule="evenodd" clip-rule="evenodd" fill="#E42333" d="M24.1,17.4l1.4,1.4l-10.1,10L14,27.4L24.1,17.4z"/>
<path fill-rule="evenodd" clip-rule="evenodd" fill="#E42333" d="M26.5,19.8V38h-2V19.8H26.5z"/>
</svg>
