<?xml version="1.0" encoding="utf-8"?>
<!-- Generator: Adobe Illustrator 18.0.0, SVG Export Plug-In . SVG Version: 6.00 Build 0)  -->
<!DOCTYPE svg PUBLIC "-//W3C//DTD SVG 1.1//EN" "http://www.w3.org/Graphics/SVG/1.1/DTD/svg11.dtd">
<svg version="1.1" id="Camada_1" xmlns="http://www.w3.org/2000/svg" xmlns:xlink="http://www.w3.org/1999/xlink" x="0px" y="0px"
	 viewBox="0 0 207.9 51.6" enable-background="new 0 0 207.9 51.6" xml:space="preserve">
<g>
	<path fill-rule="evenodd" clip-rule="evenodd" fill="#D90000" d="M18.5,36.6C12.3,34.6,7.8,28.9,7.8,22c0-7,4.8-12.8,11.2-14.6
		c4.6-1.3,2.9-9.7-4.5-6.8C6,4,0,12.3,0,22c0,9.6,5.8,17.7,14.1,21.2c3.4,1.4,5.4,0.3,6.2-1.3C21.2,40,20.5,37.2,18.5,36.6
		L18.5,36.6z M21.9,22.8c1.3,0,2.4,1.1,2.4,2.4c0,1.3-1.1,2.4-2.4,2.4c-1.3,0-2.4-1.1-2.4-2.4C19.6,23.9,20.6,22.8,21.9,22.8
		L21.9,22.8z M31,20.6c1.5,0.2,2.7,1.5,2.7,3.1c0,1.7-1.4,3.2-3.1,3.2c-1.7,0-3.1-1.4-3.1-3.2c0-0.6,0.2-1.3,0.5-1.8
		c-0.2,0-0.4,0-0.7,0c-3.1,0-5.6-2.5-5.6-5.6c0-3.1,2.5-5.6,5.6-5.6c3.1,0,5.6,2.5,5.6,5.6C32.9,18.1,32.2,19.6,31,20.6L31,20.6z
		 M27.4,7.5c6.2,1.9,10.7,7.7,10.7,14.5c0,6.7-4.3,12.4-10.3,14.4c-1.9,0.7-2.4,3.3-1.6,5.3c0.7,1.8,3.1,2.7,5.9,1.4
		c8.1-3.5,13.8-11.7,13.8-21.1c0-9.9-6.3-18.4-15-21.6C23.9-1.2,24,6.7,27.4,7.5L27.4,7.5z"/>
	<path fill="#666666" d="M72.7,20.9v5.3c-0.7-0.7-1.3-1.3-2-1.6c-0.7-0.3-1.4-0.5-2.1-0.5c-1.4,0-2.5,0.5-3.3,1.4
		c-0.9,0.9-1.3,2.2-1.3,3.7c0,1.4,0.4,2.6,1.3,3.5c0.9,0.9,2,1.4,3.3,1.4c0.7,0,1.4-0.2,2.1-0.5c0.7-0.3,1.3-0.9,2-1.6v5.3
		c-0.8,0.4-1.5,0.6-2.3,0.8c-0.7,0.2-1.5,0.3-2.3,0.3c-1,0-1.8-0.1-2.7-0.3c-0.8-0.2-1.6-0.6-2.2-1c-1.3-0.9-2.3-2-3-3.3
		c-0.7-1.3-1-2.9-1-4.5c0-1.3,0.2-2.6,0.7-3.7c0.4-1.1,1.1-2.1,2-3c0.8-0.9,1.8-1.5,2.8-1.9c1-0.4,2.2-0.6,3.5-0.6
		c0.8,0,1.5,0.1,2.3,0.3C71.2,20.3,71.9,20.6,72.7,20.9L72.7,20.9z M75.5,37.9V20.3h4.8v17.6H75.5L75.5,37.9z M86.8,37.9V24.4h-3.9
		v-4.2h12.7v4.2h-3.9v13.5H86.8L86.8,37.9z M115.4,29.1c0,1.3-0.2,2.5-0.7,3.6c-0.5,1.1-1.1,2.1-2,3c-0.9,0.9-1.9,1.5-3.1,2
		c-1.2,0.5-2.3,0.7-3.6,0.7c-1.3,0-2.5-0.2-3.6-0.7c-1.2-0.5-2.2-1.1-3-2c-0.9-0.9-1.6-1.9-2.1-3c-0.5-1.1-0.7-2.3-0.7-3.5
		c0-1.3,0.2-2.4,0.7-3.6c0.5-1.1,1.2-2.1,2.1-3c0.9-0.9,1.9-1.5,3-2c1.1-0.5,2.3-0.7,3.6-0.7c1.2,0,2.4,0.2,3.6,0.7
		c1.2,0.5,2.2,1.1,3.1,2c0.9,0.9,1.6,1.9,2,3C115.2,26.7,115.4,27.8,115.4,29.1L115.4,29.1z M106,34.3c1.3,0,2.4-0.5,3.3-1.5
		c0.9-1,1.3-2.2,1.3-3.7c0-1.5-0.4-2.7-1.3-3.7c-0.9-1-2-1.5-3.3-1.5c-1.3,0-2.4,0.5-3.3,1.5c-0.9,1-1.3,2.2-1.3,3.7
		c0,1.5,0.4,2.7,1.3,3.7C103.6,33.8,104.7,34.3,106,34.3L106,34.3z M132.6,24.5c-0.8-0.7-1.7-1.2-2.6-1.6c-0.9-0.3-1.8-0.5-2.8-0.5
		c-1.9,0-3.5,0.6-4.7,1.9c-1.2,1.2-1.8,2.8-1.8,4.8c0,1.9,0.6,3.5,1.8,4.7c1.2,1.2,2.6,1.9,4.4,1.9c1,0,2-0.2,3-0.6
		c0.9-0.4,1.8-0.9,2.7-1.7v3.2c-0.8,0.6-1.6,1-2.5,1.2c-0.9,0.3-1.9,0.4-2.9,0.4c-1.3,0-2.6-0.2-3.7-0.7c-1.1-0.4-2.1-1.1-3-2
		c-0.9-0.8-1.5-1.8-2-3c-0.5-1.1-0.7-2.4-0.7-3.7c0-1.3,0.2-2.5,0.7-3.6c0.5-1.1,1.1-2.1,2-3c0.9-0.9,1.9-1.5,3-2
		c1.1-0.4,2.3-0.7,3.7-0.7c1,0,2,0.2,3,0.5c0.9,0.3,1.8,0.8,2.7,1.4L132.6,24.5L132.6,24.5z M136.2,37.9V20.3h9.8v2.4H139v4.4h6.9
		v2.5H139v5.7h6.9v2.6H136.2L136.2,37.9z M149.2,37.9V19.6l11.2,10.8c0.3,0.3,0.6,0.6,0.9,1c0.3,0.3,0.6,0.7,1,1.2V20.3h2.6v18.3
		l-11.4-11c-0.3-0.3-0.6-0.6-0.9-0.9c-0.3-0.3-0.6-0.7-0.8-1v12.3H149.2L149.2,37.9z M174.6,22.7v15.2h-2.9V22.7h-4.7v-2.4h12.2v2.4
		H174.6L174.6,22.7z M181.5,37.9V20.3h9.8v2.4h-6.9v4.4h6.9v2.5h-6.9v5.7h6.9v2.6H181.5L181.5,37.9z M197.4,27.8h0.5
		c1.5,0,2.5-0.2,3-0.5c0.5-0.4,0.7-1,0.7-1.9c0-1-0.3-1.7-0.8-2.1c-0.5-0.4-1.5-0.6-3-0.6h-0.5V27.8L197.4,27.8z M197.2,30v7.9h-2.7
		V20.3h4c1.2,0,2.1,0.1,2.7,0.2c0.6,0.2,1.2,0.4,1.6,0.8c0.5,0.4,1,1,1.3,1.7c0.3,0.7,0.4,1.4,0.4,2.2c0,1.4-0.3,2.5-1,3.3
		c-0.7,0.8-1.7,1.3-3,1.4l6,8h-3.2l-5.8-7.9H197.2L197.2,30z M60.8,15.9V7.7h1.3v7h3v1.2H60.8L60.8,15.9z M68.8,12.7h2.3l-0.8-1.9
		c0-0.1-0.1-0.3-0.2-0.4C70,10.2,70,10,69.9,9.9c0,0.2-0.1,0.3-0.1,0.5c0,0.2-0.1,0.3-0.2,0.4L68.8,12.7L68.8,12.7z M72.5,15.9
		l-0.9-2.1h-3.2l-1,2.1H66l4-8.5l4,8.5H72.5L72.5,15.9z M76.8,11.1h0.5c0.6,0,1.1-0.1,1.3-0.3c0.3-0.2,0.4-0.5,0.4-0.9
		c0-0.4-0.1-0.8-0.4-0.9c-0.2-0.2-0.7-0.3-1.4-0.3h-0.5V11.1L76.8,11.1z M76.8,14.8h0.5c0.5,0,0.8,0,1-0.1c0.2,0,0.4-0.1,0.5-0.2
		c0.2-0.1,0.3-0.3,0.4-0.4c0.1-0.2,0.1-0.4,0.1-0.6c0-0.3-0.1-0.5-0.2-0.7c-0.1-0.2-0.3-0.3-0.5-0.5c-0.1-0.1-0.3-0.1-0.4-0.1
		c-0.2,0-0.4,0-0.6,0h-0.4h-0.5V14.8L76.8,14.8z M75.5,15.9V7.7h2.1c0.6,0,1,0,1.3,0.1c0.3,0.1,0.5,0.2,0.7,0.3
		c0.3,0.2,0.5,0.4,0.6,0.7c0.1,0.3,0.2,0.6,0.2,1c0,0.4-0.1,0.8-0.3,1.1c-0.2,0.3-0.5,0.5-0.9,0.6c0.5,0.1,0.9,0.3,1.1,0.7
		c0.3,0.4,0.4,0.8,0.4,1.4c0,0.3-0.1,0.6-0.2,0.9c-0.1,0.3-0.3,0.6-0.5,0.8c-0.2,0.2-0.5,0.4-0.8,0.5c-0.3,0.1-0.9,0.1-1.7,0.1H75.5
		L75.5,15.9z M90,11.8c0-0.4-0.1-0.8-0.2-1.2c-0.2-0.4-0.4-0.7-0.7-1c-0.3-0.3-0.6-0.5-1-0.7c-0.4-0.2-0.7-0.2-1.1-0.2
		c-0.4,0-0.8,0.1-1.1,0.2c-0.4,0.2-0.7,0.4-1,0.7c-0.3,0.3-0.5,0.6-0.6,1C84.1,11,84,11.4,84,11.8c0,0.4,0.1,0.8,0.2,1.2
		c0.1,0.4,0.4,0.7,0.6,1c0.3,0.3,0.6,0.5,1,0.7c0.4,0.2,0.7,0.2,1.2,0.2c0.4,0,0.8-0.1,1.1-0.2c0.4-0.2,0.7-0.4,1-0.7
		c0.3-0.3,0.5-0.6,0.7-1C89.9,12.6,90,12.2,90,11.8L90,11.8z M91.3,11.8c0,0.6-0.1,1.1-0.3,1.7c-0.2,0.5-0.5,1-1,1.4
		c-0.4,0.4-0.9,0.7-1.4,0.9c-0.5,0.2-1.1,0.3-1.7,0.3c-0.6,0-1.2-0.1-1.7-0.3c-0.5-0.2-1-0.5-1.4-0.9c-0.4-0.4-0.7-0.9-1-1.4
		c-0.2-0.5-0.3-1.1-0.3-1.7c0-0.6,0.1-1.1,0.3-1.7c0.2-0.5,0.5-1,1-1.4c0.4-0.4,0.9-0.7,1.4-0.9c0.5-0.2,1.1-0.3,1.7-0.3
		c0.6,0,1.1,0.1,1.7,0.3c0.5,0.2,1,0.5,1.4,0.9c0.4,0.4,0.7,0.9,1,1.4C91.2,10.7,91.3,11.2,91.3,11.8L91.3,11.8z M95,11.2h0.2
		c0.7,0,1.2-0.1,1.4-0.2c0.2-0.2,0.3-0.5,0.3-0.9c0-0.5-0.1-0.8-0.4-1c-0.2-0.2-0.7-0.3-1.4-0.3H95V11.2L95,11.2z M95,12.2v3.7h-1.2
		V7.7h1.9c0.5,0,1,0,1.3,0.1c0.3,0.1,0.6,0.2,0.8,0.4c0.3,0.2,0.4,0.5,0.6,0.8c0.1,0.3,0.2,0.7,0.2,1c0,0.7-0.2,1.2-0.5,1.5
		c-0.3,0.4-0.8,0.6-1.4,0.7l2.8,3.7h-1.5l-2.7-3.7H95L95,12.2z M102.7,12.7h2.3l-0.8-1.9c0-0.1-0.1-0.3-0.2-0.4
		c-0.1-0.2-0.1-0.3-0.2-0.5c0,0.2-0.1,0.3-0.1,0.5c0,0.2-0.1,0.3-0.2,0.4L102.7,12.7L102.7,12.7z M106.4,15.9l-0.9-2.1h-3.2l-1,2.1
		h-1.4l4-8.5l4,8.5H106.4L106.4,15.9z M111.4,8.8v7.1h-1.3V8.8h-2.2V7.7h5.7v1.1H111.4L111.4,8.8z M122.5,11.8
		c0-0.4-0.1-0.8-0.2-1.2c-0.2-0.4-0.4-0.7-0.7-1c-0.3-0.3-0.6-0.5-1-0.7c-0.4-0.2-0.7-0.2-1.1-0.2c-0.4,0-0.8,0.1-1.1,0.2
		c-0.4,0.2-0.7,0.4-1,0.7c-0.3,0.3-0.5,0.6-0.6,1c-0.1,0.4-0.2,0.8-0.2,1.2c0,0.4,0.1,0.8,0.2,1.2c0.1,0.4,0.4,0.7,0.6,1
		c0.3,0.3,0.6,0.5,1,0.7c0.4,0.2,0.7,0.2,1.2,0.2c0.4,0,0.8-0.1,1.1-0.2c0.4-0.2,0.7-0.4,1-0.7c0.3-0.3,0.5-0.6,0.7-1
		C122.4,12.6,122.5,12.2,122.5,11.8L122.5,11.8z M123.9,11.8c0,0.6-0.1,1.1-0.3,1.7c-0.2,0.5-0.5,1-1,1.4c-0.4,0.4-0.9,0.7-1.4,0.9
		c-0.5,0.2-1.1,0.3-1.7,0.3c-0.6,0-1.2-0.1-1.7-0.3c-0.5-0.2-1-0.5-1.4-0.9c-0.4-0.4-0.7-0.9-1-1.4c-0.2-0.5-0.3-1.1-0.3-1.7
		c0-0.6,0.1-1.1,0.3-1.7c0.2-0.5,0.5-1,1-1.4c0.4-0.4,0.9-0.7,1.4-0.9c0.5-0.2,1.1-0.3,1.7-0.3c0.6,0,1.1,0.1,1.7,0.3
		c0.5,0.2,1,0.5,1.4,0.9c0.4,0.4,0.7,0.9,1,1.4C123.8,10.7,123.9,11.2,123.9,11.8L123.9,11.8z M118.7,6.9l1.1-1.5h1.3l-1.6,1.5
		H118.7L118.7,6.9z M127.6,11.2h0.2c0.7,0,1.2-0.1,1.4-0.2c0.2-0.2,0.3-0.5,0.3-0.9c0-0.5-0.1-0.8-0.4-1c-0.2-0.2-0.7-0.3-1.4-0.3
		h-0.2V11.2L127.6,11.2z M127.5,12.2v3.7h-1.2V7.7h1.9c0.5,0,1,0,1.3,0.1c0.3,0.1,0.6,0.2,0.8,0.4c0.3,0.2,0.4,0.5,0.6,0.8
		c0.1,0.3,0.2,0.7,0.2,1c0,0.7-0.2,1.2-0.5,1.5c-0.3,0.4-0.8,0.6-1.4,0.7l2.8,3.7h-1.5l-2.7-3.7H127.5L127.5,12.2z M133.5,15.9V7.7
		h1.3v8.2H133.5L133.5,15.9z M144.6,11.8c0-0.4-0.1-0.8-0.2-1.2c-0.2-0.4-0.4-0.7-0.7-1c-0.3-0.3-0.6-0.5-1-0.7
		c-0.4-0.2-0.7-0.2-1.1-0.2c-0.4,0-0.8,0.1-1.1,0.2c-0.4,0.2-0.7,0.4-1,0.7c-0.3,0.3-0.5,0.6-0.6,1c-0.1,0.4-0.2,0.8-0.2,1.2
		c0,0.4,0.1,0.8,0.2,1.2c0.1,0.4,0.4,0.7,0.6,1c0.3,0.3,0.6,0.5,1,0.7c0.4,0.2,0.7,0.2,1.2,0.2c0.4,0,0.8-0.1,1.1-0.2
		c0.4-0.2,0.7-0.4,1-0.7c0.3-0.3,0.5-0.6,0.7-1C144.6,12.6,144.6,12.2,144.6,11.8L144.6,11.8z M146,11.8c0,0.6-0.1,1.1-0.3,1.7
		c-0.2,0.5-0.5,1-1,1.4c-0.4,0.4-0.9,0.7-1.4,0.9c-0.5,0.2-1.1,0.3-1.7,0.3c-0.6,0-1.2-0.1-1.7-0.3c-0.5-0.2-1-0.5-1.4-0.9
		c-0.4-0.4-0.7-0.9-1-1.4c-0.2-0.5-0.3-1.1-0.3-1.7c0-0.6,0.1-1.1,0.3-1.7c0.2-0.5,0.5-1,1-1.4c0.4-0.4,0.9-0.7,1.4-0.9
		c0.5-0.2,1.1-0.3,1.7-0.3c0.6,0,1.1,0.1,1.7,0.3c0.5,0.2,1,0.5,1.4,0.9c0.4,0.4,0.7,0.9,1,1.4C145.9,10.7,146,11.2,146,11.8
		L146,11.8z"/>
	<path d="M119,48.9l0.5-0.3c0.3,0.6,0.7,0.9,1.2,0.9c0.2,0,0.4,0,0.5-0.1c0.2-0.1,0.3-0.2,0.4-0.4c0.1-0.1,0.1-0.3,0.1-0.5
		c0-0.2-0.1-0.4-0.2-0.5c-0.2-0.2-0.5-0.5-1-0.9c-0.5-0.4-0.8-0.6-0.9-0.8c-0.2-0.3-0.3-0.5-0.3-0.9c0-0.2,0.1-0.5,0.2-0.7
		c0.1-0.2,0.3-0.4,0.5-0.5c0.2-0.1,0.4-0.2,0.7-0.2c0.3,0,0.5,0.1,0.7,0.2c0.2,0.1,0.5,0.4,0.7,0.7l-0.5,0.3
		c-0.2-0.3-0.4-0.5-0.5-0.6c-0.1-0.1-0.3-0.1-0.5-0.1c-0.2,0-0.4,0.1-0.6,0.2c-0.1,0.1-0.2,0.3-0.2,0.5c0,0.1,0,0.2,0.1,0.4
		c0.1,0.1,0.1,0.2,0.3,0.4c0.1,0.1,0.3,0.3,0.7,0.6c0.5,0.4,0.8,0.7,1,1c0.2,0.3,0.3,0.6,0.3,0.8c0,0.4-0.2,0.8-0.5,1.1
		c-0.3,0.3-0.7,0.4-1.1,0.4c-0.3,0-0.6-0.1-0.9-0.3C119.5,49.7,119.3,49.4,119,48.9L119,48.9z"/>
	<path d="M126.9,48.6l0.4,0.2c-0.1,0.3-0.3,0.5-0.5,0.7c-0.2,0.2-0.4,0.3-0.7,0.4c-0.2,0.1-0.5,0.1-0.8,0.1c-0.7,0-1.2-0.2-1.6-0.7
		c-0.4-0.4-0.6-0.9-0.6-1.5c0-0.5,0.2-1,0.5-1.4c0.4-0.5,1-0.8,1.6-0.8c0.7,0,1.3,0.3,1.7,0.8c0.3,0.4,0.5,0.8,0.5,1.4h-3.7
		c0,0.5,0.2,0.9,0.5,1.2c0.3,0.3,0.7,0.5,1.1,0.5c0.2,0,0.4,0,0.6-0.1c0.2-0.1,0.4-0.2,0.5-0.3C126.6,49.1,126.7,48.9,126.9,48.6
		L126.9,48.6z M126.9,47.5c-0.1-0.3-0.2-0.5-0.3-0.7c-0.1-0.2-0.3-0.3-0.5-0.4c-0.2-0.1-0.5-0.2-0.7-0.2c-0.4,0-0.8,0.1-1.1,0.4
		c-0.2,0.2-0.4,0.5-0.5,0.9H126.9L126.9,47.5z"/>
	<path d="M128.4,45.9h0.5v1.9c0,0.5,0,0.8,0.1,1c0.1,0.3,0.2,0.5,0.4,0.6c0.2,0.1,0.5,0.2,0.8,0.2c0.3,0,0.5-0.1,0.8-0.2
		c0.2-0.1,0.4-0.3,0.4-0.6c0.1-0.2,0.1-0.5,0.1-1v-1.9h0.5v2c0,0.6-0.1,1-0.2,1.3c-0.1,0.3-0.3,0.5-0.6,0.7c-0.3,0.2-0.6,0.2-1,0.2
		c-0.4,0-0.7-0.1-1-0.2c-0.3-0.2-0.5-0.4-0.6-0.7c-0.1-0.3-0.2-0.7-0.2-1.3V45.9L128.4,45.9z"/>
	<path d="M135.4,50v-5.6h1.2c0.8,0,1.4,0.1,1.8,0.2c0.5,0.2,1,0.5,1.3,1c0.3,0.5,0.5,1,0.5,1.7c0,0.6-0.1,1.1-0.4,1.5
		c-0.2,0.4-0.6,0.7-0.9,0.9c-0.4,0.2-0.9,0.3-1.6,0.3H135.4L135.4,50z M136,49.5h0.6c0.8,0,1.3,0,1.6-0.1c0.4-0.1,0.7-0.4,1-0.7
		c0.2-0.4,0.4-0.8,0.4-1.3c0-0.5-0.1-1-0.4-1.4c-0.3-0.4-0.6-0.6-1.1-0.8c-0.3-0.1-0.9-0.2-1.7-0.2H136V49.5L136,49.5z"/>
	<path d="M141.3,44.2c0.1,0,0.2,0,0.3,0.1c0.1,0.1,0.1,0.2,0.1,0.3c0,0.1,0,0.2-0.1,0.3c-0.1,0.1-0.2,0.1-0.3,0.1
		c-0.1,0-0.2,0-0.3-0.1c-0.1-0.1-0.1-0.2-0.1-0.3c0-0.1,0-0.2,0.1-0.3C141.1,44.2,141.2,44.2,141.3,44.2L141.3,44.2z M141.1,45.9
		h0.5V50h-0.5V45.9L141.1,45.9z"/>
	<path d="M146.8,45.9V50h-0.5v-0.7c-0.2,0.3-0.5,0.5-0.7,0.6c-0.3,0.1-0.6,0.2-0.9,0.2c-0.6,0-1.1-0.2-1.5-0.6
		c-0.4-0.4-0.6-0.9-0.6-1.5c0-0.6,0.2-1.1,0.6-1.5c0.4-0.4,0.9-0.6,1.5-0.6c0.3,0,0.6,0.1,0.9,0.2c0.3,0.1,0.5,0.4,0.7,0.6v-0.8
		H146.8L146.8,45.9z M144.7,46.3c-0.3,0-0.6,0.1-0.8,0.2c-0.3,0.1-0.4,0.3-0.6,0.6c-0.1,0.3-0.2,0.5-0.2,0.8c0,0.3,0.1,0.6,0.2,0.8
		c0.1,0.3,0.3,0.5,0.6,0.6c0.3,0.1,0.5,0.2,0.8,0.2c0.3,0,0.6-0.1,0.8-0.2c0.3-0.1,0.5-0.3,0.6-0.6c0.1-0.2,0.2-0.5,0.2-0.8
		c0-0.5-0.2-0.9-0.5-1.2C145.5,46.4,145.1,46.3,144.7,46.3L144.7,46.3z"/>
	<path d="M151.6,45.9h0.5v3.3c0,0.6-0.1,1-0.2,1.3c-0.1,0.4-0.4,0.7-0.7,0.9c-0.3,0.2-0.8,0.3-1.2,0.3c-0.4,0-0.7-0.1-1-0.2
		c-0.3-0.1-0.5-0.2-0.7-0.4c-0.2-0.2-0.3-0.4-0.5-0.7h0.6c0.2,0.3,0.4,0.5,0.6,0.6c0.2,0.1,0.6,0.2,0.9,0.2c0.4,0,0.7-0.1,0.9-0.2
		c0.3-0.1,0.4-0.3,0.5-0.5c0.1-0.2,0.2-0.5,0.2-1v-0.2c-0.2,0.3-0.4,0.4-0.7,0.6c-0.3,0.1-0.6,0.2-0.9,0.2c-0.4,0-0.7-0.1-1.1-0.3
		c-0.3-0.2-0.6-0.4-0.8-0.8c-0.2-0.3-0.3-0.7-0.3-1.1c0-0.4,0.1-0.7,0.3-1.1c0.2-0.3,0.5-0.6,0.8-0.8c0.3-0.2,0.7-0.3,1.1-0.3
		c0.3,0,0.6,0.1,0.9,0.2c0.3,0.1,0.5,0.3,0.8,0.6V45.9L151.6,45.9z M150,46.3c-0.3,0-0.6,0.1-0.8,0.2c-0.3,0.1-0.5,0.3-0.6,0.6
		c-0.1,0.3-0.2,0.5-0.2,0.8c0,0.5,0.2,0.8,0.5,1.1c0.3,0.3,0.7,0.4,1.2,0.4c0.5,0,0.9-0.1,1.2-0.4c0.3-0.3,0.4-0.7,0.4-1.2
		c0-0.3-0.1-0.6-0.2-0.8c-0.1-0.2-0.3-0.4-0.6-0.6C150.6,46.3,150.3,46.3,150,46.3L150,46.3z"/>
	<path d="M153.2,45.9h0.5v0.7c0.2-0.3,0.5-0.5,0.7-0.6c0.3-0.1,0.5-0.2,0.8-0.2c0.3,0,0.6,0.1,0.8,0.2c0.2,0.2,0.4,0.4,0.5,0.6
		c0.1,0.3,0.2,0.7,0.2,1.2V50h-0.5v-2c0-0.5,0-0.8-0.1-1c-0.1-0.3-0.2-0.5-0.4-0.6c-0.2-0.1-0.4-0.2-0.7-0.2c-0.3,0-0.6,0.1-0.9,0.3
		c-0.3,0.2-0.4,0.5-0.5,0.8c-0.1,0.2-0.1,0.6-0.1,1.1V50h-0.5V45.9L153.2,45.9z"/>
	<path d="M159.9,45.8c0.6,0,1.2,0.2,1.6,0.7c0.4,0.4,0.6,0.9,0.6,1.5c0,0.6-0.2,1.1-0.6,1.5c-0.4,0.4-0.9,0.6-1.6,0.6
		c-0.6,0-1.2-0.2-1.6-0.6c-0.4-0.4-0.6-0.9-0.6-1.5c0-0.6,0.2-1.1,0.6-1.5C158.8,46,159.3,45.8,159.9,45.8L159.9,45.8z M159.9,46.3
		c-0.4,0-0.8,0.2-1.1,0.5c-0.3,0.3-0.5,0.7-0.5,1.2c0,0.3,0.1,0.6,0.2,0.8c0.1,0.3,0.3,0.5,0.6,0.6c0.2,0.1,0.5,0.2,0.8,0.2
		c0.3,0,0.6-0.1,0.8-0.2c0.2-0.1,0.4-0.3,0.6-0.6c0.1-0.3,0.2-0.5,0.2-0.8c0-0.5-0.2-0.9-0.5-1.2C160.8,46.4,160.4,46.3,159.9,46.3
		L159.9,46.3z M160.2,43.9h0.8l-1.1,1.2h-0.5L160.2,43.9L160.2,43.9z"/>
	<path d="M165.2,46.3l-0.3,0.4c-0.3-0.3-0.6-0.4-0.8-0.4c-0.2,0-0.3,0.1-0.4,0.2c-0.1,0.1-0.2,0.2-0.2,0.4c0,0.1,0.1,0.3,0.2,0.4
		c0.1,0.1,0.3,0.3,0.6,0.4c0.4,0.2,0.7,0.4,0.8,0.6c0.1,0.2,0.2,0.4,0.2,0.6c0,0.3-0.1,0.6-0.4,0.9c-0.2,0.2-0.5,0.4-0.9,0.4
		c-0.2,0-0.5-0.1-0.7-0.2c-0.2-0.1-0.4-0.2-0.5-0.4l0.3-0.4c0.3,0.3,0.6,0.5,0.9,0.5c0.2,0,0.4-0.1,0.5-0.2c0.1-0.1,0.2-0.3,0.2-0.5
		c0-0.2,0-0.3-0.1-0.4c-0.1-0.1-0.3-0.3-0.7-0.4c-0.4-0.2-0.6-0.4-0.8-0.6c-0.1-0.2-0.2-0.4-0.2-0.6c0-0.3,0.1-0.6,0.3-0.8
		c0.2-0.2,0.5-0.3,0.8-0.3C164.4,45.8,164.8,45.9,165.2,46.3L165.2,46.3z"/>
	<polygon points="166.6,44.3 167.1,44.3 167.1,45.9 167.9,45.9 167.9,46.3 167.1,46.3 167.1,50 166.6,50 166.6,46.3 165.8,46.3 
		165.8,45.9 166.6,45.9 166.6,44.3 	"/>
	<path d="M168.9,44.2c0.1,0,0.2,0,0.3,0.1c0.1,0.1,0.1,0.2,0.1,0.3c0,0.1,0,0.2-0.1,0.3c-0.1,0.1-0.2,0.1-0.3,0.1
		c-0.1,0-0.2,0-0.3-0.1c-0.1-0.1-0.1-0.2-0.1-0.3c0-0.1,0-0.2,0.1-0.3C168.7,44.2,168.8,44.2,168.9,44.2L168.9,44.2z M168.7,45.9
		h0.5V50h-0.5V45.9L168.7,45.9z"/>
	<path d="M174.3,46.7l-0.4,0.3c-0.4-0.5-0.9-0.7-1.5-0.7c-0.5,0-0.9,0.2-1.3,0.5c-0.3,0.3-0.5,0.7-0.5,1.2c0,0.3,0.1,0.6,0.2,0.8
		c0.2,0.3,0.4,0.5,0.6,0.6c0.3,0.1,0.6,0.2,0.9,0.2c0.6,0,1.1-0.2,1.5-0.7l0.4,0.3c-0.2,0.3-0.5,0.5-0.8,0.7
		c-0.3,0.2-0.7,0.2-1.1,0.2c-0.7,0-1.2-0.2-1.6-0.6c-0.4-0.4-0.6-0.9-0.6-1.5c0-0.4,0.1-0.8,0.3-1.1c0.2-0.3,0.5-0.6,0.8-0.8
		c0.4-0.2,0.7-0.3,1.2-0.3c0.3,0,0.5,0,0.8,0.1c0.3,0.1,0.5,0.2,0.6,0.3C174,46.3,174.2,46.5,174.3,46.7L174.3,46.7z"/>
	<path d="M177.3,45.8c0.6,0,1.2,0.2,1.6,0.7c0.4,0.4,0.6,0.9,0.6,1.5c0,0.6-0.2,1.1-0.6,1.5c-0.4,0.4-0.9,0.6-1.6,0.6
		c-0.6,0-1.2-0.2-1.6-0.6c-0.4-0.4-0.6-0.9-0.6-1.5c0-0.6,0.2-1.1,0.6-1.5C176.1,46,176.7,45.8,177.3,45.8L177.3,45.8z M177.3,46.3
		c-0.4,0-0.8,0.2-1.1,0.5c-0.3,0.3-0.5,0.7-0.5,1.2c0,0.3,0.1,0.6,0.2,0.8c0.1,0.3,0.3,0.5,0.6,0.6c0.2,0.1,0.5,0.2,0.8,0.2
		c0.3,0,0.6-0.1,0.8-0.2c0.2-0.1,0.4-0.3,0.6-0.6c0.1-0.3,0.2-0.5,0.2-0.8c0-0.5-0.2-0.9-0.5-1.2C178.1,46.4,177.7,46.3,177.3,46.3
		L177.3,46.3z"/>
	<path d="M182.1,48.9l0.5-0.3c0.3,0.6,0.7,0.9,1.2,0.9c0.2,0,0.4,0,0.5-0.1c0.2-0.1,0.3-0.2,0.4-0.4c0.1-0.1,0.1-0.3,0.1-0.5
		c0-0.2-0.1-0.4-0.2-0.5c-0.2-0.2-0.5-0.5-1-0.9c-0.5-0.4-0.8-0.6-0.9-0.8c-0.2-0.3-0.3-0.5-0.3-0.9c0-0.2,0.1-0.5,0.2-0.7
		c0.1-0.2,0.3-0.4,0.5-0.5c0.2-0.1,0.4-0.2,0.7-0.2c0.3,0,0.5,0.1,0.7,0.2c0.2,0.1,0.5,0.4,0.7,0.7l-0.5,0.3
		c-0.2-0.3-0.4-0.5-0.5-0.6c-0.1-0.1-0.3-0.1-0.5-0.1c-0.2,0-0.4,0.1-0.6,0.2c-0.1,0.1-0.2,0.3-0.2,0.5c0,0.1,0,0.2,0.1,0.4
		c0.1,0.1,0.1,0.2,0.3,0.4c0.1,0.1,0.3,0.3,0.7,0.6c0.5,0.4,0.8,0.7,1,1c0.2,0.3,0.3,0.6,0.3,0.8c0,0.4-0.2,0.8-0.5,1.1
		c-0.3,0.3-0.7,0.4-1.1,0.4c-0.3,0-0.6-0.1-0.9-0.3C182.6,49.7,182.3,49.4,182.1,48.9L182.1,48.9z"/>
	<path d="M189.9,48.6l0.4,0.2c-0.1,0.3-0.3,0.5-0.5,0.7c-0.2,0.2-0.4,0.3-0.7,0.4c-0.2,0.1-0.5,0.1-0.8,0.1c-0.7,0-1.2-0.2-1.6-0.7
		c-0.4-0.4-0.6-0.9-0.6-1.5c0-0.5,0.2-1,0.5-1.4c0.4-0.5,1-0.8,1.6-0.8c0.7,0,1.3,0.3,1.7,0.8c0.3,0.4,0.5,0.8,0.5,1.4h-3.7
		c0,0.5,0.2,0.9,0.5,1.2c0.3,0.3,0.7,0.5,1.1,0.5c0.2,0,0.4,0,0.6-0.1c0.2-0.1,0.4-0.2,0.5-0.3C189.6,49.1,189.8,48.9,189.9,48.6
		L189.9,48.6z M190,47.5c-0.1-0.3-0.2-0.5-0.3-0.7c-0.1-0.2-0.3-0.3-0.5-0.4c-0.2-0.1-0.5-0.2-0.7-0.2c-0.4,0-0.8,0.1-1.1,0.4
		c-0.2,0.2-0.4,0.5-0.5,0.9H190L190,47.5z"/>
	<path d="M195.1,45.9h0.5v3.3c0,0.6-0.1,1-0.2,1.3c-0.1,0.4-0.4,0.7-0.7,0.9c-0.3,0.2-0.8,0.3-1.2,0.3c-0.4,0-0.7-0.1-1-0.2
		c-0.3-0.1-0.5-0.2-0.7-0.4c-0.2-0.2-0.3-0.4-0.5-0.7h0.6c0.2,0.3,0.4,0.5,0.6,0.6c0.2,0.1,0.6,0.2,0.9,0.2c0.4,0,0.7-0.1,0.9-0.2
		c0.3-0.1,0.4-0.3,0.5-0.5c0.1-0.2,0.2-0.5,0.2-1v-0.2c-0.2,0.3-0.4,0.4-0.7,0.6c-0.3,0.1-0.6,0.2-0.9,0.2c-0.4,0-0.7-0.1-1.1-0.3
		c-0.3-0.2-0.6-0.4-0.8-0.8c-0.2-0.3-0.3-0.7-0.3-1.1c0-0.4,0.1-0.7,0.3-1.1c0.2-0.3,0.5-0.6,0.8-0.8s0.7-0.3,1.1-0.3
		c0.3,0,0.6,0.1,0.9,0.2c0.3,0.1,0.5,0.3,0.8,0.6V45.9L195.1,45.9z M193.5,46.3c-0.3,0-0.6,0.1-0.8,0.2c-0.3,0.1-0.5,0.3-0.6,0.6
		c-0.1,0.3-0.2,0.5-0.2,0.8c0,0.5,0.2,0.8,0.5,1.1c0.3,0.3,0.7,0.4,1.2,0.4c0.5,0,0.9-0.1,1.2-0.4c0.3-0.3,0.4-0.7,0.4-1.2
		c0-0.3-0.1-0.6-0.2-0.8c-0.1-0.2-0.3-0.4-0.6-0.6C194.1,46.3,193.8,46.3,193.5,46.3L193.5,46.3z"/>
	<path d="M196.7,45.9h0.5v1.9c0,0.5,0,0.8,0.1,1c0.1,0.3,0.2,0.5,0.4,0.6c0.2,0.1,0.5,0.2,0.8,0.2s0.5-0.1,0.8-0.2
		c0.2-0.1,0.4-0.3,0.4-0.6c0.1-0.2,0.1-0.5,0.1-1v-1.9h0.5v2c0,0.6-0.1,1-0.2,1.3c-0.1,0.3-0.3,0.5-0.6,0.7c-0.3,0.2-0.6,0.2-1,0.2
		s-0.7-0.1-1-0.2c-0.3-0.2-0.5-0.4-0.6-0.7c-0.1-0.3-0.2-0.7-0.2-1.3V45.9L196.7,45.9z"/>
	<path d="M201.3,45.9h0.5v0.6c0.2-0.2,0.3-0.4,0.5-0.5c0.2-0.1,0.4-0.2,0.6-0.2c0.1,0,0.3,0,0.5,0.1l-0.3,0.4
		c-0.1,0-0.2-0.1-0.3-0.1c-0.2,0-0.3,0.1-0.5,0.2c-0.2,0.1-0.3,0.4-0.4,0.7c-0.1,0.2-0.1,0.7-0.1,1.4V50h-0.5V45.9L201.3,45.9z"/>
	<path d="M205.8,45.8c0.6,0,1.2,0.2,1.6,0.7c0.4,0.4,0.6,0.9,0.6,1.5c0,0.6-0.2,1.1-0.6,1.5c-0.4,0.4-0.9,0.6-1.6,0.6
		c-0.6,0-1.2-0.2-1.6-0.6c-0.4-0.4-0.6-0.9-0.6-1.5c0-0.6,0.2-1.1,0.6-1.5C204.6,46,205.1,45.8,205.8,45.8L205.8,45.8z M205.8,46.3
		c-0.4,0-0.8,0.2-1.1,0.5c-0.3,0.3-0.5,0.7-0.5,1.2c0,0.3,0.1,0.6,0.2,0.8c0.1,0.3,0.3,0.5,0.6,0.6c0.2,0.1,0.5,0.2,0.8,0.2
		c0.3,0,0.6-0.1,0.8-0.2c0.2-0.1,0.4-0.3,0.6-0.6c0.1-0.3,0.2-0.5,0.2-0.8c0-0.5-0.2-0.9-0.5-1.2C206.6,46.4,206.2,46.3,205.8,46.3
		L205.8,46.3z"/>
</g>
</svg>
